<svg data-name="Слой 1" xmlns="http://www.w3.org/2000/svg" viewBox="0 0 740.29 737.25"><title>action</title><path fill="#f35549" d="M37.6 531.76l56.41-87.2L0 400.42l84.1-60.93-71.72-75.11 100.43-26.44-39.74-95.95 103.21 11.62-2.4-103.83 92.03 48.13L301.18.23l68.44 78.12L437.79 0l35.59 97.57 91.88-48.43-2.06 103.83 103.17-11.96-39.43 96.08 100.52 26.11-71.47 75.35 84.3 60.65-93.87 44.45 56.7 87.01-103.58 7.54 21.44 101.61-99.31-30.39-16.73 102.5-81.62-64.21-52.62 89.54-52.91-89.37-81.41 64.49-17.06-102.45-99.21 30.72 21.1-101.69-103.61-7.19z"/></svg>