<svg id="eeeab55e-f2af-4927-8f62-e05330c87dcf" data-name="Второй экран" xmlns="http://www.w3.org/2000/svg" viewBox="0 0 304.59 93.98"><title>after-arrangement</title><line x1="302.59" y1="13.59" x2="302.59" y2="69.56" fill="none" stroke="#ccc" stroke-miterlimit="10" stroke-width="4"/><line x1="2" y1="13.59" x2="2" y2="69.56" fill="none" stroke="#ccc" stroke-miterlimit="10" stroke-width="4"/><line x1="0.53" y1="13.27" x2="304.23" y2="13.27" fill="none" stroke="#ccc" stroke-miterlimit="10" stroke-width="4"/><line x1="0.53" y1="27.34" x2="304.23" y2="27.34" fill="none" stroke="#ccc" stroke-miterlimit="10" stroke-width="4"/><line x1="0.53" y1="41.42" x2="304.23" y2="41.42" fill="none" stroke="#ccc" stroke-miterlimit="10" stroke-width="4"/><line x1="0.53" y1="55.49" x2="304.23" y2="55.49" fill="none" stroke="#ccc" stroke-miterlimit="10" stroke-width="4"/><line x1="0.53" y1="69.56" x2="304.23" y2="69.56" fill="none" stroke="#ccc" stroke-miterlimit="10" stroke-width="4"/><path d="M1248.35,1340.68a5.89,5.89,0,0,0,.24-.74,19.49,19.49,0,0,1,2.56-6.44,35.71,35.71,0,0,1,5.45-6.83,57.8,57.8,0,0,1,9.13-7.43,5.3,5.3,0,0,1,.62-.33.87.87,0,0,0,.53-1.11c-.14-.82-.26-1.64-.33-2.46a26.21,26.21,0,0,1,.31-6.91,21.57,21.57,0,0,1,2.75-7.61,22.34,22.34,0,0,1,6.19-6.75,13.26,13.26,0,0,1,4.56-2.14c.31-.07.62-.12.94-.17a.75.75,0,0,1,.75.32,11.85,11.85,0,0,1,2.1,4.11c.25.82.56,1.63.75,2.46a14.85,14.85,0,0,1,0,6.75,20.59,20.59,0,0,1-1.15,3.37,19.38,19.38,0,0,1-1.55,3.11,34.77,34.77,0,0,1-3.1,4.05,71.68,71.68,0,0,1-6.82,6.8,1.32,1.32,0,0,0-.51,1.27c.2,2,.34,4,.5,6a1.65,1.65,0,0,0,0,.33.38.38,0,0,0,.42.32c.52,0,1.05,0,1.57.07a18.8,18.8,0,0,1,8.13,2.92,12.39,12.39,0,0,1,4.89,6.38,15.76,15.76,0,0,1,.86,5.8,19.56,19.56,0,0,1-1.58,7.22,17.63,17.63,0,0,1-4.45,6.09,22.28,22.28,0,0,1-6,3.88c-.27.12-.54.22-.81.32s-.37.2-.33.52a61,61,0,0,1,.58,7.11,17.74,17.74,0,0,1-3.28,10.69,5.48,5.48,0,0,1-1.24,1.27,13.85,13.85,0,0,1-4.83,2.44,10,10,0,0,1-9.61-2.51c-.5-.68-1-1.33-1.51-2a12.26,12.26,0,0,1-1.91-4.48,7.27,7.27,0,0,1,3.58-7.77,7,7,0,0,1,4-1,5.76,5.76,0,0,1,4.22,2.12,6.06,6.06,0,0,1,1.3,5.59,7.37,7.37,0,0,1-2.11,3.6l-.15.14c-.21.23-.17.43.13.53a1.85,1.85,0,0,0,.41.08,4.16,4.16,0,0,0,1.84-.21,6.07,6.07,0,0,0,3.73-3.15,6.51,6.51,0,0,0,.6-3.4c-.22-2.58-.45-5.15-.67-7.73,0-.22,0-.44,0-.66s-.12-.4-.42-.37a18.1,18.1,0,0,1-5.89-.51,23.1,23.1,0,0,1-6.93-2.93,18.06,18.06,0,0,1-6.16-6.29,19.33,19.33,0,0,1-2.42-7.83,29.66,29.66,0,0,1-.05-4.15,4.19,4.19,0,0,0,0-.45Zm19-13.63a4.87,4.87,0,0,0-.47.25,49.14,49.14,0,0,0-5.18,4.09,22.79,22.79,0,0,0-5.31,6.53,18.29,18.29,0,0,0-2,6.75,11.39,11.39,0,0,0,.82,5.45A13.72,13.72,0,0,0,1257,1353a11.33,11.33,0,0,0,3.88,3.18,15.65,15.65,0,0,0,5.17,1.6c1,.14,2.09.2,3.14.28.31,0,.42-.11.41-.42s0-.5,0-.75l-1-14.2c0-.54-.06-1.08-.13-1.61s-.32-.52-.69-.3a1.63,1.63,0,0,0-.23.17c-.6.53-1.23,1-1.79,1.6a9.15,9.15,0,0,0-2,2.8,4.56,4.56,0,0,0-.23,3.39,3.52,3.52,0,0,1,.14.65,2.11,2.11,0,0,1-.05.44,5.05,5.05,0,0,1-.48-.37,12.36,12.36,0,0,1-2.88-4.52,9.47,9.47,0,0,1,2.51-10.11,15.65,15.65,0,0,1,4.31-2.69,2.46,2.46,0,0,0,.34-.15.58.58,0,0,0,.32-.69,2.27,2.27,0,0,1-.05-.41c-.09-1.14-.17-2.29-.26-3.43C1267.44,1327.38,1267.42,1327.25,1267.39,1327Zm5.66,12.16c0,.17,0,.31.06.44l1,11.91q.21,2.52.42,5c0,.49.18.57.64.42l.16,0a8.93,8.93,0,0,0,5-3.72,10.17,10.17,0,0,0,1.55-4.38,10.76,10.76,0,0,0,0-3.51,7,7,0,0,0-4.41-5.47,11.84,11.84,0,0,0-4.14-.75A1,1,0,0,0,1273.05,1339.2Zm-1.87-23.71c.28-.21.47-.36.67-.5a23.38,23.38,0,0,0,3.39-2.79,19,19,0,0,0,4.05-5.63,9.85,9.85,0,0,0,1-5,6.75,6.75,0,0,0-1-3.21c-.11-.17-.25-.32-.38-.48a4.18,4.18,0,0,0-.42.2c-.53.33-1.08.63-1.57,1a15,15,0,0,0-5.64,9.43,22.93,22.93,0,0,0-.25,6.45A3.46,3.46,0,0,0,1271.18,1315.49Z" transform="translate(-1236.41 -1291.74)" fill="#ccc"/><path d="M1381.85,1368.2c-.26-.14-.52-.27-.77-.42a7.24,7.24,0,0,1-2.76-3,6.57,6.57,0,0,1,0-6,8.56,8.56,0,0,1,1.86-2.58,6.33,6.33,0,0,1,4.61-1.74,11.08,11.08,0,0,1,4.19.92c.4.17.78.36,1.17.55l.08,0c.3.15.41,0,.4-.27q-.54-11.5-1.06-23-.13-2.87-.25-5.75c0-.24,0-.27.25-.28l2.49-.12a.32.32,0,0,1,.36.23c.07.2.17.4.23.6a4.71,4.71,0,0,0,.95,1.64c.71.82,1.42,1.64,2.17,2.43,1.66,1.73,3.42,3.36,5.21,5a14.12,14.12,0,0,1,4.2,6.88,11.1,11.1,0,0,1,.36,4.51,13.91,13.91,0,0,1-.93,3.42,18.88,18.88,0,0,1-2.32,4.11,2.87,2.87,0,0,1-.33.37.77.77,0,0,1-.27.16.43.43,0,0,1-.6-.43,2.14,2.14,0,0,1,.17-.68,11.91,11.91,0,0,0,.74-2.35,10.88,10.88,0,0,0,.12-3.85,19.34,19.34,0,0,0-.47-2.42,13.07,13.07,0,0,0-4.31-6.55,15.08,15.08,0,0,0-4.28-2.52c-.26-.1-.35,0-.33.23.4,7.63.84,15.27,1.43,22.89a5.89,5.89,0,0,1,0,1.46,5.6,5.6,0,0,1-1.15,2.51,11.83,11.83,0,0,1-3.39,2.87,10.41,10.41,0,0,1-4.07,1.43c-.48.06-1,.1-1.43.13a4.85,4.85,0,0,1-1.63-.15l-.29,0Z" transform="translate(-1236.41 -1291.74)" fill="#ccc"/><path d="M1498.56,1353.61c-.26-.14-.52-.27-.77-.42a7.24,7.24,0,0,1-2.76-3,6.57,6.57,0,0,1,0-6,8.56,8.56,0,0,1,1.86-2.58,6.33,6.33,0,0,1,4.61-1.74,11.08,11.08,0,0,1,4.19.92c.4.17.78.36,1.17.55l.08,0c.3.15.41,0,.4-.27q-.54-11.5-1.06-23-.13-2.87-.25-5.75c0-.24,0-.27.25-.28l2.49-.12a.32.32,0,0,1,.36.23c.07.2.17.4.23.6a4.71,4.71,0,0,0,.95,1.64c.71.82,1.42,1.64,2.17,2.43,1.66,1.73,3.42,3.36,5.21,5a14.12,14.12,0,0,1,4.2,6.88,11.1,11.1,0,0,1,.36,4.51,13.91,13.91,0,0,1-.93,3.42,18.88,18.88,0,0,1-2.32,4.11,2.87,2.87,0,0,1-.33.37.77.77,0,0,1-.27.16.43.43,0,0,1-.6-.43,2.14,2.14,0,0,1,.17-.68,11.91,11.91,0,0,0,.74-2.35,10.88,10.88,0,0,0,.12-3.85,19.34,19.34,0,0,0-.47-2.42,13.07,13.07,0,0,0-4.31-6.55,15.08,15.08,0,0,0-4.28-2.52c-.26-.1-.35,0-.33.23.4,7.63.84,15.27,1.43,22.89a5.89,5.89,0,0,1,0,1.46,5.6,5.6,0,0,1-1.15,2.51,11.83,11.83,0,0,1-3.39,2.87,10.41,10.41,0,0,1-4.07,1.43c-.48.06-1,.1-1.43.13a4.85,4.85,0,0,1-1.63-.15l-.29,0Z" transform="translate(-1236.41 -1291.74)" fill="#ccc"/><path d="M1372.25,1342.08q0-10.64-.07-21.27c0-1.44,0-2.87,0-4.31,0-.29-.08-.38-.36-.42l-2-.33h-.07a.84.84,0,0,0-.75-.07l-60.28,24.4a.84.84,0,0,0-.48.52c-.05,0-.09,0-.09,0q-.13,13.93-.27,27.85a3.54,3.54,0,0,1,0,.36,2,2,0,0,1-.28-.18,10.71,10.71,0,0,0-2.69-1.76,8.15,8.15,0,0,0-3.08-.88,5.79,5.79,0,0,0-5,1.94,4.87,4.87,0,0,0-1.11,1.85,9.32,9.32,0,0,0-.32,1.63c0,.08,0,.16,0,.24h-2.4a1.84,1.84,0,0,0,0,3.68h2.91a7.6,7.6,0,0,0,2.79,3.37,7.12,7.12,0,0,0,5.47,1.19,11.31,11.31,0,0,0,3.87-1.45,6.26,6.26,0,0,0,2.64-2.9l.08-.2h2.88a1.84,1.84,0,1,0,0-3.68h-2.36c0-1.74-.05-3.48-.06-5.22q0-8.35-.06-16.7a1.46,1.46,0,0,0,.35-.09l27.55-11.15q-.09,9.09-.18,18.18a3.54,3.54,0,0,1,0,.36,2,2,0,0,1-.28-.18,10.71,10.71,0,0,0-2.69-1.76,8.15,8.15,0,0,0-3.08-.88,5.79,5.79,0,0,0-5,1.94,4.87,4.87,0,0,0-1.11,1.85,9.32,9.32,0,0,0-.32,1.63,7.39,7.39,0,0,0,3.28,7.29,7.12,7.12,0,0,0,5.47,1.19,11.31,11.31,0,0,0,3.87-1.45,6.26,6.26,0,0,0,2.64-2.9,6.65,6.65,0,0,0,.6-2.82c0-2.1-.07-4.19-.07-6.29q0-8.69-.06-17.39l27.16-11q-.09,8.94-.17,17.88a3.54,3.54,0,0,1,0,.36,2,2,0,0,1-.28-.18,10.71,10.71,0,0,0-2.69-1.76,8.15,8.15,0,0,0-3.08-.88,5.79,5.79,0,0,0-5,1.94,4.87,4.87,0,0,0-1.11,1.85,9.32,9.32,0,0,0-.32,1.63,7.39,7.39,0,0,0,3.28,7.29,7.12,7.12,0,0,0,5.47,1.19,11.31,11.31,0,0,0,3.87-1.45,6.26,6.26,0,0,0,2.64-2.9,6.65,6.65,0,0,0,.6-2.82C1372.3,1346.28,1372.26,1344.18,1372.25,1342.08Zm-61.19,4.48q0-.72,0-1.45,0-1.41,0-2.82l28-11.33q0,2.14,0,4.29ZM1342,1334q0-.36,0-.71c0-1.18,0-2.37,0-3.55l27.25-11,0,4.29Z" transform="translate(-1236.41 -1291.74)" fill="#ccc"/><path d="M1428.32,1314.16Z" transform="translate(-1236.41 -1291.74)" fill="#ccc"/><path d="M1484.44,1362q0-10.64-.07-21.27c0-1.44,0-2.87,0-4.31a1.14,1.14,0,0,0-.45-.65.35.35,0,0,0-.17-.15l-54.77-20.9a1.36,1.36,0,0,0-.66-.51c-.23,0-2.11.1-2.11.33s0,.19,0,.29q-.13,13.93-.27,27.85a3.54,3.54,0,0,1,0,.36,2,2,0,0,1-.28-.18,10.71,10.71,0,0,0-2.69-1.76,8.15,8.15,0,0,0-3.08-.88,5.79,5.79,0,0,0-5,1.94,4.87,4.87,0,0,0-1.11,1.85,9.32,9.32,0,0,0-.32,1.63,7.39,7.39,0,0,0,3.28,7.29,7.12,7.12,0,0,0,5.47,1.19,11.31,11.31,0,0,0,3.87-1.45,6.26,6.26,0,0,0,2.64-2.9,6.65,6.65,0,0,0,.6-2.82c0-2.1-.07-4.19-.07-6.29q0-7.57-.05-15.15l24.94,9.52c-.06,4.77-.11,9.16-.17,15a3.54,3.54,0,0,1,0,.36,2,2,0,0,1-.28-.18,10.71,10.71,0,0,0-2.69-1.76,8.15,8.15,0,0,0-3.08-.88,5.79,5.79,0,0,0-5,1.94,4.87,4.87,0,0,0-1.11,1.85,9.32,9.32,0,0,0-.32,1.63,7.39,7.39,0,0,0,3.28,7.29,7.12,7.12,0,0,0,5.47,1.19A11.31,11.31,0,0,0,1454,1360a6.26,6.26,0,0,0,2.64-2.9,6.65,6.65,0,0,0,.6-2.82c0-2.1-.07-4.19-.07-6.29q0-5.91,0-11.83l24.2,9.24q-.09,9.31-.18,18.61a3.54,3.54,0,0,1,0,.36,2,2,0,0,1-.28-.18,10.71,10.71,0,0,0-2.69-1.76,8.15,8.15,0,0,0-3.08-.88,5.79,5.79,0,0,0-5,1.94,4.87,4.87,0,0,0-1.11,1.85,9.32,9.32,0,0,0-.32,1.63,7.39,7.39,0,0,0,3.28,7.29,7.12,7.12,0,0,0,5.47,1.19,11.31,11.31,0,0,0,3.87-1.45,6.26,6.26,0,0,0,2.64-2.9,6.65,6.65,0,0,0,.6-2.82C1484.5,1366.16,1484.45,1364.06,1484.44,1362Zm-55.3-39.66q0-1.48,0-3c0-.48,0-1,0-1.45l25,9.56c0,1.55,0,3,0,4.39Zm28,10.68q0-2.21,0-4.42l24.3,9.27q0,2.2,0,4.4Z" transform="translate(-1236.41 -1291.74)" fill="#ccc"/></svg>