<svg id="254eaed6-f0eb-47aa-ba1b-524de5a362ec" data-name="" xmlns="http://www.w3.org/2000/svg" viewBox="0 0 285.74 82.47"><title>before-arrangement</title><line x1="20.83" y1="10.75" x2="285.21" y2="10.75" fill="none" stroke="#ccc" stroke-miterlimit="10" stroke-width="4"/><line x1="20.83" y1="24.84" x2="285.21" y2="24.84" fill="none" stroke="#ccc" stroke-miterlimit="10" stroke-width="4"/><line x1="20.83" y1="38.92" x2="285.21" y2="38.92" fill="none" stroke="#ccc" stroke-miterlimit="10" stroke-width="4"/><line x1="20.83" y1="53" x2="285.21" y2="53" fill="none" stroke="#ccc" stroke-miterlimit="10" stroke-width="4"/><line x1="20.83" y1="67.09" x2="285.21" y2="67.09" fill="none" stroke="#ccc" stroke-miterlimit="10" stroke-width="4"/><path d="M388.84,1320.34a5.89,5.89,0,0,0,.58.52,19.49,19.49,0,0,1,4.84,5,35.71,35.71,0,0,1,4,7.77,57.8,57.8,0,0,1,3.06,11.37,5.3,5.3,0,0,1,0,.7.87.87,0,0,0,.8.94c.8.2,1.6.44,2.38.71a26.21,26.21,0,0,1,6.18,3.1,21.56,21.56,0,0,1,5.83,5.61,22.34,22.34,0,0,1,3.64,8.4,13.26,13.26,0,0,1,.09,5c-.06.31-.15.62-.23.93a.75.75,0,0,1-.6.55,11.85,11.85,0,0,1-4.61.24c-.85-.11-1.71-.15-2.55-.31a14.85,14.85,0,0,1-6.15-2.79,20.59,20.59,0,0,1-2.61-2.42,19.38,19.38,0,0,1-2.21-2.69,34.77,34.77,0,0,1-2.43-4.48,71.68,71.68,0,0,1-3.42-9,1.32,1.32,0,0,0-1-1c-1.92-.64-3.81-1.34-5.71-2a1.65,1.65,0,0,0-.32-.09.38.38,0,0,0-.46.26c-.23.47-.43,1-.7,1.41a18.8,18.8,0,0,1-6,6.23,12.39,12.39,0,0,1-7.82,1.86,15.76,15.76,0,0,1-5.64-1.58,19.56,19.56,0,0,1-5.94-4.39,17.63,17.63,0,0,1-3.74-6.55,22.28,22.28,0,0,1-1.11-7c0-.29,0-.58,0-.87s0-.42-.34-.51a61,61,0,0,1-6.73-2.38,17.74,17.74,0,0,1-8.42-7.36,5.48,5.48,0,0,1-.66-1.65,13.85,13.85,0,0,1-.25-5.4,10,10,0,0,1,6.21-7.75c.82-.18,1.64-.41,2.47-.54a12.26,12.26,0,0,1,4.87.08,7.27,7.27,0,0,1,5.63,6.44,7,7,0,0,1-.73,4,5.76,5.76,0,0,1-3.65,3,6.06,6.06,0,0,1-5.64-1.1,7.37,7.37,0,0,1-2.43-3.4c0-.06,0-.13-.07-.2-.12-.29-.32-.33-.54-.1a1.85,1.85,0,0,0-.24.34A4.16,4.16,0,0,0,346,1321a6.07,6.07,0,0,0,1.35,4.69,6.51,6.51,0,0,0,2.85,1.93l7.33,2.54.62.23c.29.11.41.05.51-.23a18.1,18.1,0,0,1,2.87-5.16,23.1,23.1,0,0,1,5.5-5.13,18.06,18.06,0,0,1,8.25-3.05,19.33,19.33,0,0,1,8.14,1,29.66,29.66,0,0,1,3.81,1.65,4.19,4.19,0,0,0,.42.16Zm4.67,22.94a4.87,4.87,0,0,0,0-.53,49.14,49.14,0,0,0-1.62-6.4,22.79,22.79,0,0,0-3.79-7.51,18.29,18.29,0,0,0-5.32-4.62,11.39,11.39,0,0,0-5.31-1.47,13.72,13.72,0,0,0-3.44.48,11.33,11.33,0,0,0-4.49,2.25,15.65,15.65,0,0,0-3.57,4.06c-.55.89-1,1.83-1.54,2.75-.15.27-.07.43.22.54l.7.26,13.36,4.89c.51.19,1,.39,1.52.54s.61-.08.56-.5a1.63,1.63,0,0,0-.06-.28c-.24-.77-.45-1.54-.73-2.29a9.15,9.15,0,0,0-1.75-2.95,4.56,4.56,0,0,0-3-1.6,3.52,3.52,0,0,1-.65-.14,2.11,2.11,0,0,1-.38-.23,5.05,5.05,0,0,1,.54-.29,12.36,12.36,0,0,1,5.3-.78,9.47,9.47,0,0,1,8.21,6.42,15.65,15.65,0,0,1,.69,5,2.46,2.46,0,0,0,0,.37.58.58,0,0,0,.5.57,2.27,2.27,0,0,1,.4.12l3.24,1.17Zm-13.41.21-.43-.13-11.27-4-4.78-1.67c-.46-.16-.6-.07-.65.41,0,.05,0,.11,0,.16a8.93,8.93,0,0,0,1.36,6.07,10.17,10.17,0,0,0,3.37,3.2,10.76,10.76,0,0,0,3.22,1.42,7,7,0,0,0,6.79-1.79,11.84,11.84,0,0,0,2.38-3.47A1,1,0,0,0,380.1,1343.49Zm22.41,8c.08.34.14.58.18.82a23.38,23.38,0,0,0,1.16,4.24,19,19,0,0,0,3.48,6,9.85,9.85,0,0,0,4.13,3,6.75,6.75,0,0,0,3.34.38c.2,0,.39-.1.6-.15a4.18,4.18,0,0,0,0-.46c-.09-.62-.14-1.24-.28-1.84a15,15,0,0,0-6.3-9,22.93,22.93,0,0,0-5.78-2.86A3.46,3.46,0,0,0,402.51,1351.47Z" transform="translate(-340.55 -1296.4)" fill="#ccc"/><path d="M500.9,1310.38c.22-.19.43-.4.65-.58a7.24,7.24,0,0,1,3.81-1.56,6.57,6.57,0,0,1,5.64,2,8.56,8.56,0,0,1,1.79,2.63,6.33,6.33,0,0,1,.06,4.92,11.08,11.08,0,0,1-2.29,3.63c-.29.32-.61.61-.91.91l-.06.06c-.24.23-.17.38.12.47l22,6.84,5.49,1.72c.23.07.25.1.18.33-.24.8-.49,1.59-.73,2.39a.32.32,0,0,1-.34.26c-.22,0-.43,0-.65,0a4.71,4.71,0,0,0-1.87.33c-1,.39-2,.78-3,1.22-2.19,1-4.32,2.07-6.44,3.2a14.12,14.12,0,0,1-7.89,1.6,11.1,11.1,0,0,1-4.36-1.2,13.91,13.91,0,0,1-2.9-2,18.88,18.88,0,0,1-3.07-3.58,2.87,2.87,0,0,1-.24-.44.77.77,0,0,1-.06-.31.43.43,0,0,1,.61-.41,2.14,2.14,0,0,1,.58.39,11.91,11.91,0,0,0,2,1.49,10.88,10.88,0,0,0,3.58,1.43,19.34,19.34,0,0,0,2.43.39,13.07,13.07,0,0,0,7.63-1.82,15.08,15.08,0,0,0,3.83-3.17c.19-.21.16-.31-.1-.39-7.31-2.23-14.64-4.41-22-6.46a5.89,5.89,0,0,1-1.37-.5,5.6,5.6,0,0,1-2-1.94,11.83,11.83,0,0,1-1.54-4.16,10.41,10.41,0,0,1,0-4.32c.11-.47.23-.93.36-1.39a4.85,4.85,0,0,1,.7-1.48,2.91,2.91,0,0,0,.14-.25Z" transform="translate(-340.55 -1296.4)" fill="#ccc"/><path d="M513.45,1374.37c-.1-.27-.21-.54-.3-.82a7.24,7.24,0,0,1,0-4.11,6.57,6.57,0,0,1,4-4.49,8.56,8.56,0,0,1,3.11-.69,6.33,6.33,0,0,1,4.6,1.77,11.08,11.08,0,0,1,2.52,3.47c.19.39.34.79.51,1.19l0,.08c.13.31.29.3.48.06l14.49-17.89,3.63-4.47c.15-.19.19-.2.38,0l1.94,1.56a.32.32,0,0,1,.11.41c-.08.2-.14.41-.23.61a4.71,4.71,0,0,0-.38,1.86c0,1.09,0,2.17,0,3.26.09,2.4.33,4.79.59,7.17a14.12,14.12,0,0,1-1.43,7.93,11.1,11.1,0,0,1-2.73,3.61,13.91,13.91,0,0,1-3,1.94,18.88,18.88,0,0,1-4.46,1.53,2.87,2.87,0,0,1-.49.06.77.77,0,0,1-.31-.06.43.43,0,0,1-.16-.72,2.14,2.14,0,0,1,.58-.39,11.91,11.91,0,0,0,2.11-1.27,10.88,10.88,0,0,0,2.65-2.8A19.34,19.34,0,0,0,543,1371a13.07,13.07,0,0,0,1.13-7.76,15.08,15.08,0,0,0-1.52-4.73c-.13-.25-.23-.27-.4-.05-4.77,6-9.51,12-14.14,18.05a5.89,5.89,0,0,1-1,1.09,5.6,5.6,0,0,1-2.53,1.11,11.83,11.83,0,0,1-4.44-.11,10.41,10.41,0,0,1-4-1.64c-.39-.27-.78-.56-1.16-.85a4.85,4.85,0,0,1-1.12-1.2,2.91,2.91,0,0,0-.18-.23Z" transform="translate(-340.55 -1296.4)" fill="#ccc"/><path d="M496.08,1354.78a2.3,2.3,0,0,0-.32-.1l-6.33-.83c-1.42-.19-2.83-.41-4.25-.61l-5.05-.71-4.25-.61c-.87-.12-1.74-.27-2.62-.37a4.75,4.75,0,0,1-2.72-1.21,8.36,8.36,0,0,1-1.76-2.3,13.3,13.3,0,0,1-1.43-3.85,8.28,8.28,0,0,1,.64-5.5,6.42,6.42,0,0,1,6.39-3.3,6.84,6.84,0,0,1,3.37,1.21,7.83,7.83,0,0,1,3.09,3.69,6.29,6.29,0,0,1,.35,3,10.58,10.58,0,0,1-2.45,5.37c-.1.13-.25.24-.2.48,1.24.22,2.52.36,3.78.56s2.54.38,3.81.58l3.81.59,3.81.58,3.81.57,3.81.59,3.81.58,3.86.59-.23.41-9.62,18.19c0,.09-.09.18-.14.26a.41.41,0,0,1-.42.19l-4.49-.42-6.72-.61-6.43-.57-6-.52-5.22-.5c-1.51-.14-3-.28-4.53-.4a5,5,0,0,1-2-.65,6.93,6.93,0,0,1-2.37-2.13,11.05,11.05,0,0,1-2-5.07,9,9,0,0,1,.17-3.65,5.24,5.24,0,0,1,1.53-2.62,11.28,11.28,0,0,1,2-1.44,6.53,6.53,0,0,1,6.06-.2,8.6,8.6,0,0,1,.78.39,6.74,6.74,0,0,1,3.7,6,8.38,8.38,0,0,1-1.29,4.53c-.34.59-.78,1.14-1.17,1.71-.07.11-.23.21-.13.34a.6.6,0,0,0,.36.12l4.52.45,5.51.55,5,.49,2.33.24a.41.41,0,0,0,.47-.24q3.53-6.65,7.07-13.29C495.9,1355.15,496,1355,496.08,1354.78Zm-3.2,14.55h0l2.44.21a.39.39,0,0,0,.26-.13,1.6,1.6,0,0,0,.21-.34l2.44-4.46,4.53-8.28c.2-.37.15-.45-.3-.54l-1.77-.33c-.21,0-.48-.17-.63-.1s-.23.33-.33.51l-3.36,6.16-3.76,6.85C492.51,1369.15,492.56,1369.28,492.88,1369.33Z" transform="translate(-340.55 -1296.4)" fill="#ccc"/><path d="M573.14,1334.87a2.3,2.3,0,0,0,.29.17l5.95,2.33c1.33.53,2.65,1.07,4,1.61l4.74,1.9,4,1.61c.82.33,1.63.68,2.45,1a4.75,4.75,0,0,1,2.35,1.82A8.36,8.36,0,0,1,598,1348a13.3,13.3,0,0,1,.46,4.08,8.28,8.28,0,0,1-1.94,5.19,6.42,6.42,0,0,1-7,1.67,6.84,6.84,0,0,1-3-2,7.83,7.83,0,0,1-2.12-4.33,6.29,6.29,0,0,1,.38-3,10.58,10.58,0,0,1,3.67-4.62c.13-.1.3-.17.31-.42-1.16-.51-2.36-1-3.53-1.45s-2.38-1-3.56-1.47l-3.56-1.48-3.56-1.48L571,1337.2l-3.56-1.48-3.56-1.48-3.6-1.49.32-.34,13.7-15.35.2-.22a.41.41,0,0,1,.46-.08l4.26,1.48,6.37,2.2,6.1,2.09,5.69,1.94,4.95,1.74c1.43.5,2.86,1,4.3,1.47a5,5,0,0,1,1.76,1.1,6.93,6.93,0,0,1,1.79,2.64,11.05,11.05,0,0,1,.69,5.39,9,9,0,0,1-1,3.51,5.24,5.24,0,0,1-2.11,2.17,11.28,11.28,0,0,1-2.26.93,6.53,6.53,0,0,1-5.93-1.26,8.6,8.6,0,0,1-.67-.57,6.74,6.74,0,0,1-2.16-6.7,8.38,8.38,0,0,1,2.34-4.09c.48-.49,1-.92,1.55-1.38.1-.09.28-.15.2-.3s-.2-.16-.32-.2l-4.28-1.52-5.22-1.86-4.7-1.67-2.21-.79a.41.41,0,0,0-.52.12l-10.05,11.21Zm6.59-13.36h0l-2.32-.79a.39.39,0,0,0-.29.06,1.6,1.6,0,0,0-.29.27l-3.44,3.75-6.39,7c-.28.31-.26.4.16.6l1.64.75c.2.09.43.28.59.24s.31-.26.45-.42l4.74-5.17,5.29-5.75C580.05,1321.77,580,1321.64,579.73,1321.51Z" transform="translate(-340.55 -1296.4)" fill="#ccc"/><path d="M450.27,1322.82a3.56,3.56,0,0,0-.25.26l-16.93,22.12-.17.23c-.14.18-.21.19-.39,0l-.18-.18-1.42-1.47c-.2-.21-.21-.32,0-.55l2.59-3.45q6.36-8.53,12.71-17.06c1.25-1.68,2.47-3.39,3.72-5.08a6.65,6.65,0,0,1,2.17-1.89,6.26,6.26,0,0,1,3.85-.74,11.3,11.3,0,0,1,4,1.16,7.12,7.12,0,0,1,3.66,4.24,7.39,7.39,0,0,1-1.75,7.8,9.31,9.31,0,0,1-1.23,1.11,4.87,4.87,0,0,1-2,.81,5.79,5.79,0,0,1-5.15-1.44,8.15,8.15,0,0,1-1.94-2.55,10.71,10.71,0,0,1-1.1-3A2,2,0,0,0,450.27,1322.82Z" transform="translate(-340.55 -1296.4)" fill="#ccc"/><line x1="283.74" y1="10.75" x2="283.74" y2="66.72" fill="none" stroke="#ccc" stroke-miterlimit="10" stroke-width="4"/><line x1="22.3" y1="10.75" x2="22.3" y2="66.72" fill="none" stroke="#ccc" stroke-miterlimit="10" stroke-width="4"/><path d="M547.93,1324.11l-.21-3.06,3.12,1.1a2.46,2.46,0,1,0,1.63-4.64l-5.11-1.8-.22-3.21,3,1.07a2.46,2.46,0,1,0,1.63-4.64l-5-1.77-.38-5.56v0a2.46,2.46,0,0,0-4.9.36l.23,3.46-3-1.07-.38-5.65v0a2.46,2.46,0,0,0-4.9.36l.24,3.54-3.12-1.1a2.46,2.46,0,1,0-1.63,4.64l5.11,1.79.22,3.21-3-1.07a2.46,2.46,0,1,0-1.63,4.64l5,1.77.34,5.07v0a2.46,2.46,0,0,0,4.9-.36l-.2-3,3,1.07.35,5.16v0a2.46,2.46,0,0,0,4.9-.36Zm-8.65-11.23-.22-3.21,3,1.07.22,3.21Z" transform="translate(-340.55 -1296.4)" fill="#ccc"/></svg>