<svg data-name="Слой 1" xmlns="http://www.w3.org/2000/svg" viewBox="0 0 187.4 187.4"><title>infog5</title><g data-name="Результат"><g data-name="Результат"><circle cx="93.7" cy="93.7" r="93.7" fill="#f9d858"/><g data-name="Результат"><path d="M155.8 86.2a21.9 21.9 0 0 1-3.6 12.1 20.1 20.1 0 0 1 .7 5.1 21.7 21.7 0 0 1-2.8 10.7 22.9 22.9 0 0 1 .2 3.2 21.7 21.7 0 0 1-4.5 13.2c.1 14-9.4 22.3-23.2 22.3H113c-10.5 0-20.4-3.1-30.2-6.5-2.2-.7-8.2-3-10.3-3H51.1a9.5 9.5 0 0 1-9.5-9.5V86.3a9.5 9.5 0 0 1 9.5-9.5h20.4c2.9-1.9 7.9-8.6 10.2-11.5s5.1-6.5 7.9-9.5c4.5-4.8 2.1-16.5 9.5-23.8a9.7 9.7 0 0 1 6.7-2.7c7.7 0 15.2 2.7 18.8 10 2.3 4.5 2.6 8.8 2.6 13.8a31.7 31.7 0 0 1-3.6 14.3h13.1a19.3 19.3 0 0 1 19.1 18.8zm-15.1 9.6c3.5-.1 5.6-6.8 5.6-9.5a9.8 9.8 0 0 0-9.5-9.5h-26.2c0-8.7 7.1-15 7.1-23.8s-1.7-14.3-11.9-14.3c-4.8 4.8-2.3 16.2-9.5 23.8-2.1 2.1-3.9 4.5-5.7 6.8-3.3 4.3-12.2 17-18.1 17h-2.4v47.6h2.4c4.2 0 11 2.7 15 4.1 8.2 2.8 16.6 5.4 25.4 5.4h9c8.4 0 14.3-3.3 14.3-12.4a24.9 24.9 0 0 0-.4-4.2c3.1-1.7 4.8-5.9 4.8-9.4a10.4 10.4 0 0 0-1.3-5.1 11.8 11.8 0 0 0 3.9-8.8 13.4 13.4 0 0 0-2.5-7.7zm-80 33.3a4.8 4.8 0 1 0-4.8 4.8 4.8 4.8 0 0 0 4.8-4.8z" fill="#3a4151"/><path d="M146.3 86.3c0 2.7-2.1 9.4-5.6 9.5a13.4 13.4 0 0 1 2.6 7.7 11.8 11.8 0 0 1-3.9 8.8 10.4 10.4 0 0 1 1.3 5.1c0 3.4-1.7 7.6-4.8 9.4a24.9 24.9 0 0 1 .4 4.2c0 9.1-5.9 12.4-14.3 12.4h-9c-8.8 0-17.2-2.6-25.4-5.4-4-1.4-10.8-4.1-15-4.1h-2.4V86.3h2.4c5.9 0 14.7-12.7 18.1-17 1.9-2.3 3.6-4.6 5.7-6.8 7.2-7.6 4.8-19 9.5-23.8 10.2 0 11.9 5.6 11.9 14.3s-7.1 15.1-7.1 23.8h26.2a9.8 9.8 0 0 1 9.4 9.5zm-90.4 38a4.8 4.8 0 1 1-4.8 4.8 4.8 4.8 0 0 1 4.8-4.8z" fill="#fff"/></g></g><circle cx="160.9" cy="26.4" r="26.4" fill="#f35549"/><text transform="translate(152.8 35.7)" font-size="31.69" fill="#fff" font-family="MyriadPro-Regular,Myriad Pro">5</text></g></svg>