<svg data-name="Слой 1" xmlns="http://www.w3.org/2000/svg" viewBox="0 0 187 187.2"><title>infog2</title><g data-name="Создание демо"><circle cx="93.5" cy="93.7" r="93.5" fill="#f9d858"/><path d="M40.1 69.1v69a1.5 1.5 0 0 0 1.5 1.5H59a1.5 1.5 0 0 0 1.5-1.5v-69a5.5 5.5 0 0 1-5.3-5.5V8.3A93.3 93.3 0 0 0 42.8 15v51.2a2.9 2.9 0 0 1-2.7 2.9zm28.4 0v69a1.5 1.5 0 0 0 1.5 1.5h17.4a1.5 1.5 0 0 0 1.5-1.5V68.4a5.5 5.5 0 0 1-2.8-4.8V.5a93.4 93.4 0 0 0-12.7 1.9v61.3a5.5 5.5 0 0 1-4.9 5.4zm30.4 0H97v69a1.5 1.5 0 0 0 1.5 1.5h17.4a1.5 1.5 0 0 0 1.5-1.5V3.3a93.1 93.1 0 0 0-13-2.4v62.8a5.5 5.5 0 0 1-5.5 5.4zm27.9 70.5h17.4a1.5 1.5 0 0 0 1.5-1.5v-69h-1.2a2.9 2.9 0 0 1-2.9-2.9V13.5a93.1 93.1 0 0 0-16.3-7.8v132.4a1.5 1.5 0 0 0 1.5 1.5z" fill="#fff"/><path d="M150.7 19.8l-1-.8-4-2.9-4.1-2.6v52.7a2.9 2.9 0 0 0 2.9 2.9h1.2v69a1.5 1.5 0 0 1-1.5 1.5h-17.4a1.5 1.5 0 0 1-1.5-1.5V5.8l-4-1.4-4-1.1v134.8a1.5 1.5 0 0 1-1.5 1.5H98.4a1.5 1.5 0 0 1-1.5-1.5v-69h-5.2a5.5 5.5 0 0 1-2.7-.7v69.7a1.5 1.5 0 0 1-1.5 1.5H70a1.5 1.5 0 0 1-1.5-1.5v-69a5.5 5.5 0 0 0 4.9-5.5V2.3l-4.9 1.2-4 1.2-4 1.4-5.3 2.2v55.3a5.5 5.5 0 0 0 5.3 5.5v69a1.5 1.5 0 0 1-1.5 1.5H41.6a1.5 1.5 0 0 1-1.5-1.5v-69a2.9 2.9 0 0 0 2.7-2.9V15l-2.7 1.8-4 2.9-2.4 1.9-1.6 1.4v115a9.5 9.5 0 0 0 9.5 9.5H59a9.4 9.4 0 0 0 5.5-1.8 9.4 9.4 0 0 0 5.5 1.8h17.4a9.4 9.4 0 0 0 5.5-1.8 9.4 9.4 0 0 0 5.5 1.8h17.4a9.4 9.4 0 0 0 5.5-1.8 9.4 9.4 0 0 0 5.5 1.8h17.4a9.5 9.5 0 0 0 9.5-9.5V22.2z" fill="#3a4151"/><path d="M88.9 68.4a5.5 5.5 0 0 0 2.7.7h7.2a5.5 5.5 0 0 0 5.5-5.5V.8L96.9.2h-8l-2.8.2v63.1a5.5 5.5 0 0 0 2.8 4.9z" fill="#507299"/><circle cx="161" cy="26" r="26" fill="#f35549"/><text transform="translate(151.7 36.6)" font-size="36.136" fill="#fff" font-family="MyriadPro-Regular,Myriad Pro">2</text></g></svg>