<svg data-name="Слой 1" xmlns="http://www.w3.org/2000/svg" viewBox="0 0 187.4 187.4"><title>infog1</title><g data-name="Ваша идея"><circle cx="93.7" cy="93.7" r="93.7" fill="#f9d858"/><path d="M128 39.7A49.2 49.2 0 1 0 62.5 113a19.1 19.1 0 0 1 7.1 14.9v7.5a15.8 15.8 0 0 0 14.3 15.7 10.5 10.5 0 0 0 9.8 7.3h.2a10.5 10.5 0 0 0 10-7.4 15.8 15.8 0 0 0 13.7-15.7v-7.5a19.1 19.1 0 0 1 7.1-14.8 49.2 49.2 0 0 0 3.3-73.3z" fill="#fff"/><path d="M128 39.7A49.2 49.2 0 1 0 62.5 113a19.1 19.1 0 0 1 7.1 14.9v7.5a15.8 15.8 0 0 0 14.3 15.7 10.5 10.5 0 0 0 9.8 7.3h.2a10.5 10.5 0 0 0 10-7.4 15.8 15.8 0 0 0 13.7-15.7v-7.5a19.1 19.1 0 0 1 7.1-14.8 49.2 49.2 0 0 0 3.3-73.3zM94.4 143.5h-.9v-.3h.9zm12.2-4.9l-21.3 2.5a5.8 5.8 0 0 1-3.7-1.5l26-3.2a5.8 5.8 0 0 1-1 2.2zm1.1-5.3l-27.8 3.4a5.8 5.8 0 0 1-.2-1.5v-.8l28-3.4zm0-5.5v.3l-28 3.4v-2.7l28.1-3.4c-.1.8-.2 1.6-.2 2.4zm.5-5.5l-28.6 3.4a29 29 0 0 0-.4-3.2l29.8-3.6a28.9 28.9 0 0 0-.8 3.4zm-35-54.6c.8 6.7 3 7.7 4.3 7.7a3.2 3.2 0 0 0 2.7-1.8 4.3 4.3 0 0 0 1.2 1 3.4 3.4 0 0 0 1.6.4 3.6 3.6 0 0 0 1.9-.6 4.9 4.9 0 0 0 1.6-1.7 4.7 4.7 0 0 0 1.8 1.8 3.4 3.4 0 0 0 1.6.4 3.6 3.6 0 0 0 1.9-.6 4.9 4.9 0 0 0 1.5-1.6 4.6 4.6 0 0 0 1.7 1.6 3.4 3.4 0 0 0 1.6.4 3.6 3.6 0 0 0 1.9-.6 5 5 0 0 0 1.7-1.8 4.7 4.7 0 0 0 1.7 1.7 3.4 3.4 0 0 0 1.6.4 3.6 3.6 0 0 0 1.9-.6 4.8 4.8 0 0 0 1.4-1.4 4.3 4.3 0 0 0 1 .9 3.9 3.9 0 0 0 4.1.1 5 5 0 0 0 1.7-1.7C111 87 100 111.9 97.7 116.9l-7.6.9c-23-45.3-18.6-53.3-17.5-54.5a1.7 1.7 0 0 1 .9-.5 8.7 8.7 0 0 0-.4 4.9zm5.5 3c-.5 1.7-1.1 2.3-1.3 2.3s-1.4-1.2-1.9-5.6a5.6 5.6 0 0 1 .4-3.6 7.5 7.5 0 0 1 2.4 2.2 11 11 0 0 0-.1 1.5 14 14 0 0 0 .5 3.3zm-.2-8h1l-.3.6zm2.4 3a3.8 3.8 0 0 1 1.3-2.2l.3-.2.9.5a5.3 5.3 0 0 1 1.8 4c.1 2.6-.8 4.1-1.6 4.6a1.1 1.1 0 0 1-1.1.1 3.2 3.2 0 0 1-1.3-1.8 18.5 18.5 0 0 0 .3-1.8 5.5 5.5 0 0 0-.7-3.2zm4.7-3h1l-.4.7zm6.5 6.2c-.1 2-.9 3.2-1.5 3.6a1.1 1.1 0 0 1-1.1.1c-.8-.4-1.7-2-1.7-5s.4-3.2 1.4-4l.3-.2.9.5a4.9 4.9 0 0 1 1.7 3.2v.4c0 .1-.1.9-.1 1.4zm.4-6.3h.9l-.4.6zm2 4.3a4.5 4.5 0 0 1 1.4-3.5l.3-.2.9.5a5.3 5.3 0 0 1 1.8 4c.1 2.6-.8 4.1-1.6 4.6a1.1 1.1 0 0 1-1.1.1c-.7-.4-1.4-1.5-1.7-3.7v-.9c0-.3-.1-.6-.1-.9zm4.7-4.5h1.1l-.4.7zm6.5 7.1a3.9 3.9 0 0 1-1.4 2.6 1.1 1.1 0 0 1-1.1.1c-.8-.4-1.7-2-1.7-5s.4-3.2 1.4-4l.3-.2.9.5a4.9 4.9 0 0 1 1.7 3v.4a11.3 11.3 0 0 0-.2 2.6zm.5-7.3h.9l-.3.6zm2 4.3a6.6 6.6 0 0 1 1.5-3.8l1 .6a5.3 5.3 0 0 1 1.8 4c.1 2.4-.8 3.8-1.6 4.3a1.5 1.5 0 0 1-1.6 0 3.1 3.1 0 0 1-1.2-2.1 11.5 11.5 0 0 0 .1-2.1c-.1-.2-.2-.5-.2-.9zm10.4 38.7a29.2 29.2 0 0 0-8.2 10.6l-9.7 1.2c3.3-7.4 13.5-30.9 15.7-45.6.8-5.6-.9-9.1-2.9-10.6a4 4 0 0 0-4.1-.6 10.9 10.9 0 0 0-3-.3l-2.3.2h-.4l-.6.2a11.8 11.8 0 0 0-4.9-.3h-1.1l-.9.3a13 13 0 0 0-5.9-.1h-.1l-.7.2-.7-.2a11.5 11.5 0 0 0-6.2.2 12.7 12.7 0 0 0-6-.1l-.8.4a4.3 4.3 0 0 0-4.6 1c-5.1 5.2.8 25.2 16.6 56.5l-9.1 1.1a29.3 29.3 0 0 0-9.6-14.4 39.2 39.2 0 0 1 23.6-69.2h.9a39.2 39.2 0 0 1 24.7 69.6z" fill="#3a4151"/><circle cx="161.5" cy="25.9" r="25.9" fill="#f35549"/><path d="M160.9 17.4h-.1l-3.5 1.9-.5-2.1 4.4-2.4h2.3V35h-2.6z" fill="#fff"/></g></svg>