<svg data-name="Слой 1" xmlns="http://www.w3.org/2000/svg" viewBox="0 0 1114.5 78.6"><title>infog-bg</title><path d="M10 39.8c-3.4 0-6.6.3-10 .6l5.6 8.2c1.4-2.9 2.7-5.9 4.4-8.8zm11.9-6.7c-3.3-.1-6.7-.3-10-.2l5 8.6c1.5-2.9 3.3-5.6 5-8.4zm12.4-5.9l-10-.9 4.3 8.9zM47 22l-9.9-1.4 3.8 9.2zm13-4.3c-3.2-.8-6.5-1.4-9.8-2l3.2 9.4c2.2-2.5 4.3-5 6.6-7.4zm13.2-3.6l-4.8-1.4-4.8-1.2 2.7 9.5 3.4-3.5zm13.4-3L77.1 8l2.2 9.7c2.3-2.3 4.8-4.4 7.3-6.6zm13.5-2.4l-9.4-3.5 1.8 9.8zm13.6-1.8L104.5 3l1.3 9.8c2.6-1.9 5.2-3.9 7.9-5.9zm13.6-1.1l-4.5-2.2-4.5-2.1.9 9.9 4-2.9zm13.7-.7c-2.9-1.5-5.9-3.2-8.8-4.6l.5 9.9c2.7-1.9 5.5-3.5 8.3-5.3zm13.7-.1l-8.6-5 .1 9.9 8.5-4.9zm13.7.3L160 .1l-.3 9.9 8.7-4.7zm13.7.9c-2.7-1.9-5.5-3.7-8.3-5.5l-.6 9.8c3-1.4 5.9-3 8.9-4.3zm13.6 1.3c-2.7-2-5.3-4-8.1-5.9l-.9 9.9c3-1.4 6-2.6 9-4zm13.6 1.9l-7.8-6.2-1.3 9.9 9.1-3.7zm13.5 2.3c-2.5-2.2-5-4.3-7.6-6.4l-1.7 9.8c3.1-1.1 6.2-2.4 9.3-3.4zm13.4 2.9c-2.4-2.3-4.8-4.6-7.4-6.7l-2.1 9.7c3.2-1.1 6.3-2 9.5-3zm13.3 3.5l-7.1-7.1-2.5 9.6zm13 4.2l-3.3-3.8-3.4-3.7-2.9 9.5 4.8-1.1zm12.8 4.8l-3.1-3.9-3.2-3.9-3.5 9.3 4.8-.8zm12.5 5.8c-1.8-2.7-3.7-5.5-5.7-8.3l-4.1 9c3.2-.3 6.4-.5 9.8-.7zm11.7 7.1l-2.3-4.4-1.2-2.2-1.3-2.2-5 8.6h4.8zm11 8.2c-.7-1.5-1.3-3-2-4.5l-.9-2.2c-.3-.7-.6-1.5-.9-2.3l-6.2 7.8 2.5.3 2.5.4zm11.6 7.2c-.9-1.4-1.7-2.9-2.4-4.3s-1.6-2.8-2.3-4.3l-5.4 8.3c1.7.2 3.4.1 5.1.2zm12.4 6l-2.9-4c-.9-1.3-1.9-2.6-2.7-4l-4.4 8.9 5.1-.4zm12.9 4.6l-3.3-3.7-1.6-1.8-1.5-1.9-3.5 9.3 2.5-.4 2.5-.5zm13.2 3.5c-2.4-2.3-4.8-4.4-7-6.8l-2.6 9.6c3.3-.8 6.5-1.9 9.6-2.8zm13.5 2.3l-3.9-3-3.7-3.2-1.8 9.8 4.7-1.7zm13.7 1.4c-2.8-1.8-5.4-3.8-8-5.7l-1.1 9.9c3.1-1.4 6.1-2.7 9.1-4.2zm13.7.5l-8.4-5.2-.4 9.9zm13.7-.3c-2.9-1.5-5.8-3-8.7-4.7l.2 9.9c2.9-1.6 5.7-3.5 8.5-5.2zm13.6-1c-3-1.3-6-2.8-8.9-4.2l.7 9.9c2.8-2 5.6-3.8 8.2-5.7zm13.6-1.7l-9.1-3.8 1.1 9.9zm13.6-2.2l-9.2-3.5 1.5 9.8c2.6-2 5.2-4.1 7.7-6.3zm13.4-2.6l-9.4-3.1 1.9 9.7zm13.4-3.2l-9.5-2.8 2.2 9.7zm13.2-3.5l-9.6-2.5 2.5 9.6zm13.1-3.9l-9.6-2.3 2.8 9.5zm13.1-4.3l-9.7-2 3.1 9.4zm12.9-4.6l-9.7-1.7 3.3 9.3 6.4-7.6zm12.8-4.9l-9.8-1.6 3.5 9.3zm12.7-5.1l-9.8-1.3 3.7 9.2zm12.7-5.2l-9.9-1.4 3.9 9.2 6-7.8zm12.8-5l-9.9-1.6 3.6 9.2zm12.9-4.4l-9.8-2 3.2 9.4zm13.2-3.8l-9.7-2.4 2.8 9.5zm13.3-3.1l-4.7-1.5L616 12l2.3 9.6 3.6-3.4c1.2-1.1 2.4-2.3 3.6-3.3zm13.6-2.3l-4.6-1.9-4.7-1.7 1.7 9.8 3.8-3.2zm13.6-1.3L643.6 7l1 9.9zm13.7 0l-4.3-2.6-4.4-2.4.2 9.9 4.2-2.5zm13.7 1.2c-2.6-2.1-5.4-3.9-8.2-5.8l-.7 9.9c2.8-1.5 5.8-3 8.9-4.1zm13.5 2.3l-3.7-3.3-3.9-3.3-1.6 9.8 4.6-1.7zm13.2 3.5c-2.3-2.4-4.6-4.8-7.1-7.1l-2.4 9.6zm13.1 4.2c-2.2-2.5-4.3-5-6.6-7.5l-3 9.4zm12.8 4.8l-6.4-7.6-3.4 9.3zm12.9 4.8l-6.3-7.7-3.5 9.3 9.8-1.6zm12.9 4.6l-3.3-3.7-3.1-3.8-3.4 9.3 4.9-.8 4.9-1zm13 4.1c-2.3-2.3-4.5-4.8-6.7-7.2l-3 9.4c3.3-.7 6.5-1.3 9.7-2.2zm13.3 3.5l-7.1-6.9-2.6 9.6zm13.5 2.6c-2.6-2.1-5.1-4.2-7.5-6.4l-2 9.7c3.2-1 6.4-2.2 9.5-3.3zm13.5 1.8c-2.7-1.9-5.3-4-7.9-5.9l-1.4 9.8zm13.7.8l-4.2-2.6-4.1-2.8-.7 9.9 4.5-2.2zm13.7.2l-8.5-4.9-.2 9.9zm13.7-1l-4.5-1.9-4.3-2.2.5 9.9 4.3-2.8zm13.4-2.6l-4.7-1.4L857 43l1.7 9.8 3.9-3.3c1.3-1 2.5-2.2 3.7-3.4zm13.2-3.8c-3.2-.6-6.4-1.4-9.6-2.2l2.7 9.5c2.4-2.4 4.7-4.8 6.9-7.3zm12.8-4.9l-9.7-1.5 3.4 9.3c2.2-2.6 4.3-5.1 6.3-7.8zm12.6-5.3l-9.8-1.2L899 40zm12.6-5.6l-9.9-1 4 9 5.9-8zm12.6-5.3l-9.9-1.3 3.9 9.1zm12.8-4.8l-9.8-1.7 3.6 9.3c2-2.6 4.1-5.1 6.2-7.6zm13.1-4.1c-3.2-.8-6.5-1.7-9.7-2.3l3 9.5c2.1-2.5 4.4-4.8 6.7-7.2zm13.4-3l-4.7-1.6-4.8-1.4 2.3 9.6 3.5-3.4zm13.5-2c-3-1.3-6.1-2.5-9.3-3.8l1.5 9.8c2.6-2 5.2-4.1 7.8-6zm13.7-.8c-2.9-1.6-5.9-3.2-8.9-4.6l.7 9.9c2.6-1.9 5.4-3.5 8.2-5.3zm13.7.3c-2.8-1.8-5.6-3.5-8.5-5.3v10c2.7-1.6 5.6-3.2 8.5-4.7zm13.7 1.5l-4-3.1-4.1-2.8-.9 9.8 4.4-2.1 4.6-1.8zm13.5 2.3c-2.5-2.1-5-4.4-7.6-6.5l-1.6 9.8c2.9-1.2 6-2.2 9.2-3.3zm13.3 3.2l-7.2-6.9-2.2 9.7zm13.1 3.8l-6.8-7.2-2.8 9.5zm13 4.5l-6.5-7.5-3.2 9.4zm12.7 5.1l-6.1-7.8-3.6 9.2 9.7-1.4zm12.6 5.5l-5.9-8-3.9 9.1 9.8-1.1zm12.3 6l-5.6-8.3-4.2 9 9.8-.7z" fill="#f35549"/></svg>