<svg data-name="Слой 1" xmlns="http://www.w3.org/2000/svg" viewBox="0 0 187.4 187.4"><title>infog4</title><g data-name="Запись и сведение"><circle cx="93.7" cy="93.7" r="93.7" fill="#f9d858"/><circle cx="93.7" cy="93.4" r="15.7" fill="#507299"/><path d="M67.6 93.4a26 26 0 0 1 6.2-16.8 2.4 2.4 0 0 0-.2-3.3 2.4 2.4 0 0 0-3.6.1 30.9 30.9 0 0 0 .5 40.5 2.4 2.4 0 0 0 3.5.1 2.4 2.4 0 0 0 .1-3.3 26 26 0 0 1-6.5-17.3zm52.2 0a26 26 0 0 1-5.7 16.3 2.4 2.4 0 0 0 .2 3.2 2.4 2.4 0 0 0 3.6-.2 30.9 30.9 0 0 0-.5-39.3 2.4 2.4 0 0 0-3.6-.1 2.4 2.4 0 0 0-.2 3.3 26 26 0 0 1 6.2 16.8zm27.5-53.5a2.4 2.4 0 0 0-.1 3.4 73.2 73.2 0 0 1 .5 99.8 2.4 2.4 0 0 0 .1 3.4 2.4 2.4 0 0 0 3.5-.1 78.1 78.1 0 0 0-.5-106.4 2.4 2.4 0 0 0-3.5-.1zM40.7 147.5a2.4 2.4 0 0 0 0-3.4 73.2 73.2 0 0 1-.5-100.8 2.4 2.4 0 0 0-.1-3.4 2.4 2.4 0 0 0-3.5.1 78.1 78.1 0 0 0 .5 107.5 2.4 2.4 0 0 0 3.6 0z" fill="#3a4151"/><path d="M34.2 93.4A59.3 59.3 0 0 1 50 53a2.4 2.4 0 0 0-.1-3.4 2.4 2.4 0 0 0-3.5.1 64.3 64.3 0 0 0 .5 87.9 2.4 2.4 0 0 0 3.5 0 2.4 2.4 0 0 0 0-3.4 59.3 59.3 0 0 1-16.2-40.8zm119 0a59.3 59.3 0 0 1-15.4 39.9 2.4 2.4 0 0 0 .1 3.3 2.4 2.4 0 0 0 3.5-.1 64.3 64.3 0 0 0-.5-86.8 2.4 2.4 0 0 0-3.5-.1 2.4 2.4 0 0 0-.1 3.4 59.3 59.3 0 0 1 15.9 40.4z" fill="#3a4151"/><path d="M50.9 93.4a42.7 42.7 0 0 1 11-28.6 2.4 2.4 0 0 0-.1-3.4 2.4 2.4 0 0 0-3.5.1 47.6 47.6 0 0 0 .5 64.3 2.4 2.4 0 0 0 3.5 0 2.4 2.4 0 0 0 0-3.4 42.7 42.7 0 0 1-11.4-29zm85.7 0a42.6 42.6 0 0 1-10.5 28.1 2.4 2.4 0 0 0 .1 3.3 2.4 2.4 0 0 0 3.6-.1 47.6 47.6 0 0 0-.5-63.1 2.4 2.4 0 0 0-3.5-.1 2.4 2.4 0 0 0-.1 3.4 42.7 42.7 0 0 1 10.9 28.5z" fill="#3a4151"/><circle cx="161" cy="26.3" r="26.3" fill="#f35549"/><text transform="translate(152.9 35.6)" font-size="31.608" fill="#fff" font-family="MyriadPro-Regular,Myriad Pro">4</text></g></svg>