<svg data-name="Слой 1" xmlns="http://www.w3.org/2000/svg" viewBox="0 0 187.4 187.4"><title>infog3</title><g data-name="Утверждение"><circle cx="93.7" cy="93.7" r="93.7" fill="#f9d858"/><circle cx="161.1" cy="26.3" r="26.3" fill="#f35549"/><text transform="translate(153.1 35.5)" font-size="31.504" fill="#fff" font-family="MyriadPro-Regular,Myriad Pro">3</text><path d="M164.4 75.3v39.2a4 4 0 0 1-3.9 3.9h-26.7a16 16 0 0 1-12.7 9.7 18.6 18.6 0 0 1-11.2 7.8 17.1 17.1 0 0 1-14.3 6.5c-10.1 5.7-21.5.7-29.1-6.7l-17.6-17.3H27a4 4 0 0 1-3.9-3.9V73.3a4 4 0 0 1 3.9-3.9h25.8c7.1-7.1 12-13.7 22.7-13.7h7.2a19.8 19.8 0 0 1 11.1 3.4 19.8 19.8 0 0 1 11.1-3.4h10.2c11.6 0 16.5 7.6 23.5 15.7h21.8a4 4 0 0 1 4 3.9zm-11.8 35.3c5.1 0 5.1-7.9 0-7.9s-5.1 7.9 0 7.9zm-11.8 0V79.2h-5.7l-9.6-11a13.9 13.9 0 0 0-10.4-4.7h-10.2a11.9 11.9 0 0 0-9 4.1L83.1 82.5a7.1 7.1 0 0 0-.1 9.2 9 9 0 0 0 13.5.2l11.8-13.4a3.9 3.9 0 0 1 6.7 3.8c2.3 2.7 4.8 5.3 7.1 8s6 7.8 9 11.6a17.4 17.4 0 0 1 3.7 8.6zm-22.2 9.9c7.3 0 11.1-7.7 6.6-13.4s-9.6-12.8-15.1-18.5l-7.7 8.6a16.7 16.7 0 0 1-25.4-.4 14.9 14.9 0 0 1 .1-19.3L88 64.9c-3.8-2-8.4-1.3-12.5-1.3a13.7 13.7 0 0 0-9.7 4l-9.7 9.7h-9.5v33.3c2.7 0 5.2-.4 7.3 1.7l18.2 17.9c3.7 3.6 8.6 6.8 13.9 6.8a11 11 0 0 0 7.7-2.9 8.9 8.9 0 0 0 11.3-5.7 9.9 9.9 0 0 0 7.8-2.7c1.4-1.3 3.2-3.9 3.1-5.9a4.3 4.3 0 0 0 2.7.7zm-83.7-9.9c5.1 0 5.1-7.9 0-7.9s-5.2 7.9 0 7.9z" fill="#3a4151"/><path d="M152.6 102.7c5.1 0 5.1 7.9 0 7.9s-5.1-7.9 0-7.9zm-11.8-23.5v31.4h-5.9a17.4 17.4 0 0 0-3.7-8.6c-3-3.9-5.9-7.9-9-11.6s-4.8-5.3-7.1-8a3.9 3.9 0 0 0-6.7-3.8L96.6 91.9a9 9 0 0 1-13.5-.2 7.1 7.1 0 0 1 .1-9.2L96 67.6a11.9 11.9 0 0 1 9-4.1h10.2a13.9 13.9 0 0 1 10.4 4.7l9.6 11z" fill="#fff"/><path d="M125.2 107c4.5 5.8.7 13.4-6.6 13.4a4.3 4.3 0 0 1-2.6-.6c.2 2-1.7 4.6-3.1 5.9a9.9 9.9 0 0 1-7.8 2.7 8.9 8.9 0 0 1-11.3 5.7 11 11 0 0 1-7.7 2.9c-5.3 0-10.2-3.2-13.9-6.8L54 112.3c-2.1-2.1-4.6-1.7-7.3-1.7V77.2h9.5l9.7-9.7a13.7 13.7 0 0 1 9.7-4c4.1 0 8.7-.7 12.5 1.3L77.2 77.4a14.9 14.9 0 0 0-.1 19.3 16.7 16.7 0 0 0 25.4.4l7.7-8.6c5.4 5.8 10.2 12.2 15 18.5zm-90.3-4.3c5.1 0 5.1 7.9 0 7.9s-5.2-7.9 0-7.9z" fill="#fff"/></g></svg>