<svg xmlns="http://www.w3.org/2000/svg" viewBox="0 0 128.67 100.11"><title>Ресурс 7</title><g id="f852e852-69d5-42cf-aff1-3bb643b3e028" data-name="Слой 2"><g id="dfca9b88-b7e5-4200-a813-cd325bbfe003" data-name="Арсенал"><g id="a1d0e2f4-1fab-48f8-bdaf-e427fb566b47" data-name="Доверие брендов"><path d="M58.41,36.59a16.85,16.85,0,0,0-13-.78c.33,0,.73-.06,1.06-.06A18,18,0,0,1,62.61,46,5.37,5.37,0,0,1,60,53.13a4.8,4.8,0,0,1-2.18.5,4.8,4.8,0,0,1,2.18.5,5.37,5.37,0,0,1,2.57,7.15A18,18,0,0,1,46.46,71.51h-.33c-.84-.11-1.62-.17-2.46-.22l-16.2-1.51-13.35,6.7a3.45,3.45,0,0,1-1.62.39,3.59,3.59,0,0,1-3.18-2L.37,57a3.65,3.65,0,0,1,1.4-4.75l11.68-6.65,8.27-14.92a44.48,44.48,0,0,1,16-29.5A5.36,5.36,0,1,1,44.56,9.5,35.89,35.89,0,0,0,38,16.65,33.61,33.61,0,0,1,52.94,11a5.35,5.35,0,0,1,1.34,10.61A22.72,22.72,0,0,0,45.4,24.7a25.77,25.77,0,0,1,5.53-.56,27.79,27.79,0,0,1,12.18,2.79,5.37,5.37,0,0,1-4.69,9.66Zm-5.47,14a7.16,7.16,0,0,0-13.63,3.07,6.69,6.69,0,0,0,2,5l.56.45a6.77,6.77,0,0,0,4.58,1.73,7.16,7.16,0,0,0,6.48-4.08,5.33,5.33,0,0,1,4.69-3.07A5.33,5.33,0,0,1,52.94,50.56Zm75.36-7.49a3.65,3.65,0,0,1-1.4,4.75l-11.68,6.65L107,69.38a44.48,44.48,0,0,1-16,29.5,5.36,5.36,0,1,1-6.82-8.27,35.89,35.89,0,0,0,6.54-7.15A33.61,33.61,0,0,1,75.73,89.1a2.72,2.72,0,0,1-.67.06,5.36,5.36,0,0,1-5.31-4.69,5.28,5.28,0,0,1,4.64-6,22.72,22.72,0,0,0,8.88-3.07,25.77,25.77,0,0,1-5.53.56,27.79,27.79,0,0,1-12.18-2.79,5.37,5.37,0,0,1,4.69-9.66,16.85,16.85,0,0,0,13,.78c-.33,0-.73.06-1.06.06A18,18,0,0,1,66.07,54.13,5.37,5.37,0,0,1,68.64,47a4.8,4.8,0,0,1,2.18-.5,4.8,4.8,0,0,1-2.18-.5,5.37,5.37,0,0,1-2.57-7.15A18,18,0,0,1,82.21,28.61h.39c.78.11,1.56.17,2.35.22l16.26,1.51,13.35-6.7a3.45,3.45,0,0,1,1.62-.39,3.59,3.59,0,0,1,3.18,2ZM87.35,41.51l-.56-.45a6.77,6.77,0,0,0-4.58-1.73,7.16,7.16,0,0,0-6.48,4.08A5.33,5.33,0,0,1,71,46.48a5.33,5.33,0,0,1,4.69,3.07,7.16,7.16,0,0,0,13.63-3.07A6.69,6.69,0,0,0,87.35,41.51Z" fill="#efefef"/></g></g></g></svg>