<svg data-name="Слой 1" xmlns="http://www.w3.org/2000/svg" viewBox="0 0 305.5 103.7"><title>logo</title><g data-name="logo"><path d="M43.2.3H.1v11h43.1a6.1 6.1 0 0 1 6.1 6.1v21.3a6.1 6.1 0 0 1-6.1 6.1H.1v20.6h10.2v-9.6h32.9a17.1 17.1 0 0 0 17-17.1V17.4A17.1 17.1 0 0 0 43.2.3zM120.9 55H94.7a9.6 9.6 0 0 1-9.6-9.6V.4h-11v45A20.6 20.6 0 0 0 94.7 66h17.9zm94.2 10.7h14L185.3 2.4l1.8-2.4h-13.7l-49.5 65.7h13.7l7.3-9.7 48.5.4-7.8-11.4h-32.4l25.1-33.3 36.8 54zM292.7 0a45.7 45.7 0 0 1-76.6 0h-12.7c9.7 18.9 29 31.7 51 31.7s41.3-12.9 51-31.7z" fill="#3a4151"/><circle cx="254.5" cy="55.3" r="10.2" fill="#3a4151"/><path d="M54.5 102.9a2 2 0 0 1-2-2V84.7a2 2 0 1 1 3.9 0V101a2 2 0 0 1-1.9 1.9z" fill="#3a4151"/><path d="M64.3 86.7H44.9a2 2 0 0 1 0-3.9h19.3a2 2 0 1 1 0 3.9zm-46.5 4.2H5.1a1.2 1.2 0 0 1-1.2-1.2v-1.9a1.2 1.2 0 0 1 1.2-1.2h5.5a1.95 1.95 0 1 0 0-3.9H5.1A5.1 5.1 0 0 0 0 87.8v1.9a5.1 5.1 0 0 0 5.1 5.1h12.7A1.2 1.2 0 0 1 19 96v1.9a1.2 1.2 0 0 1-1.2 1.2H2a1.95 1.95 0 1 0 0 3.9h15.7a5.1 5.1 0 0 0 5.1-5.1V96a5.1 5.1 0 0 0-5-5.1zm91.2-8.1a2 2 0 0 0-2 2v12.7a2.7 2.7 0 0 1-3 2.4H92.7a2.7 2.7 0 0 1-3-2.4V84.7a2 2 0 1 0-3.9 0v12.7c0 3.1 3.1 5.6 6.9 5.6H104c3.8 0 6.9-2.5 6.9-5.6V84.7a2 2 0 0 0-1.9-1.9zm44.6 20.2H134V82.7h19.6a6.1 6.1 0 0 1 6.1 6.1v8.1a6.1 6.1 0 0 1-6.1 6.1zm-15.7-4h15.7a2.2 2.2 0 0 0 2.2-2.2v-8.1a2.2 2.2 0 0 0-2.2-2.2h-15.7zm45.4 4a2 2 0 0 1-2-2V84.7a2 2 0 0 1 3.9 0V101a2 2 0 0 1-1.9 2zm40.6 0h-14.5a5.2 5.2 0 0 1-5.2-5.2v-9.9a5.2 5.2 0 0 1 5.2-5.2h14.5a5.2 5.2 0 0 1 5.2 5.2v9.9a5.2 5.2 0 0 1-5.2 5.2zm-14.5-16.3a1.3 1.3 0 0 0-1.3 1.3v9.9a1.3 1.3 0 0 0 1.3 1.3h14.5a1.3 1.3 0 0 0 1.3-1.3V88a1.3 1.3 0 0 0-1.3-1.3z" fill="#3a4151"/><path d="M296.3 52.1a45.4 45.4 0 0 1-44.6 45.4v6.2A51.7 51.7 0 0 0 302.6 52z" fill="#507299"/><path d="M290.9 56.5h-4V58A29.9 29.9 0 0 1 257 87.9h-1.1v3.9h1.2A33.8 33.8 0 0 0 290.9 58v-1.5z" fill="#507299"/><path d="M258.9 81.5v2.4A23.9 23.9 0 0 0 282.8 60h-2.4a21.5 21.5 0 0 1-21.5 21.5z" fill="#507299"/></g></svg>