<svg id="643e3558-e52f-47fa-a417-64216047b5bb" data-name="Главный экран" xmlns="http://www.w3.org/2000/svg" viewBox="0 0 1920 729"><title>Верхний переход</title><path d="M147.4,493.5l14,3.6,10.9,3.2,15.1,5.1,14.1,5.4,12.5,5.4,12.2,5.8,11.8,6.2,11.4,6.5,11.2,6.9,10.8,7.2,12.3,8.8,8.5,6.5,10.1,8.2,9.6,8.3,9.3,8.5,9,8.6,7.1,7.2,1.7,1.6,3,3.2,5.5,5.8,8.2,9.1,6.6,7.6q4.7,5.8,9.4,11.4l7.7,9.5c39.1,51.6,81.7,87.3,131.4,95.7h6.9c-46.1-5.4-86.1-34.3-122.9-77.9,36.2,39.4,75.3,65.8,119.4,71.6a173.4,173.4,0,0,0,23,1.5c69.4,0,137.4-41,206.1-100.9C680.7,700.5,618.8,741.6,556,748.8h7.5c61-9.5,121.1-50.3,181.7-106.2q29.5,0,60-2.1c120-8.1,235-37.8,346.2-66.6,50.7-13.1,98.6-25.5,145.7-35.5,92.5-19.7,192.5.4,286.4,32.9,11.6,24.7,24.3,49.2,38.6,73.1,23.9,40.1,50.1,74.8,78.9,104.4h1.2c-50.8-51.9-87.5-113.5-117.4-177.1l1,.3c12.1,24.7,25.3,49.2,40.1,73.1,24.8,40.1,51.8,74.5,81.4,103.6h1.4c-52.4-51.2-90.4-112.7-121.5-176.2l.9.3c32.3,63.5,71.6,125.2,125.7,175.9h1.7c-54.2-50.5-93.5-112-125.8-175.3l.9.3c33.7,63.4,74.3,125,130.3,175h1.9c-56-49.7-96.7-111.1-130.4-174.4l.9.3c35.1,63.3,77.3,124.8,135.2,174.1h2.1c-58-49-100.2-110.3-135.4-173.4l.8.3c36.7,63.1,80.5,124.7,140.5,173.1h2.3c-60-48.1-103.9-109.4-140.7-172.4l.7.2c38.4,63,84,124.6,146.2,172.1h2.5c-62.3-47.2-108-108.5-146.4-171.3l.5.2c40.3,62.9,87.8,124.5,152.4,171.1h2.7c-64.7-46.2-112.3-107.5-152.6-170.2h.4c42.3,62.8,91.9,124.5,159,170.1h3c-67.2-45.1-117-106.5-159.3-169.1h.3c44.5,62.7,96.5,124.6,166.3,169h3.3c-69.9-43.8-122-105.3-166.6-167.9h0c46.9,62.6,101.5,124.8,174.3,167.9h3.6c-71.4-41.5-125.4-101.6-171.7-162.8,48.9,61.3,105.6,122.1,179.9,162.8h4c-73-39-128.9-97.7-177.2-157.4,49.5,58.1,106.3,115.7,179,153.8l7.1,3.6h4.5l-10.7-5.4c-69.4-36.4-124.3-90.8-172.3-146.2,49.5,54.4,103.5,106,172.3,141.8q9.9,5.2,20.2,9.8h5.1q-12.4-5.5-24.3-11.7c-66.8-34.8-119.7-84.5-168-137.3,49.3,50.7,102.4,99.1,168,132.9q16.8,8.6,34.5,16h5.7q-20.2-8.2-39.2-18c-63-32.5-114.5-78.5-162.2-127,48.5,46.6,100.3,91.1,162.2,122.8a524.1,524.1,0,0,0,49.9,22.2h6.4a522.2,522.2,0,0,1-55.3-24.3c-59.3-30.3-109.4-72.6-156.2-117.2,47.7,42.6,98,83.5,156.2,113a572.6,572.6,0,0,0,66.6,28.5h7.1a571.1,571.1,0,0,1-72.6-30.5c-55.7-28.2-104.3-67.1-150.3-107.9,46.7,38.8,95.6,76.3,150.2,103.7a624.6,624.6,0,0,0,84.3,34.7h7.9A625.1,625.1,0,0,1,1808,712c-51.8-26-98.6-61.2-143.2-98,45.3,34.9,92.4,68.8,143.1,93.9a681.6,681.6,0,0,0,103.3,40.9h8.6a682.7,682.7,0,0,1-110.8-43.1c-48.8-24.3-94.3-56.7-138.1-90.2,44.5,31.6,90.3,62.8,138,86.2A735.9,735.9,0,0,0,1920,745.2v-2.7a733.4,733.4,0,0,1-109.9-43.1c-45.6-22.4-89.4-51.8-132-82,43.1,28.3,87.4,56.5,131.9,78.1A789.9,789.9,0,0,0,1920,738.9v-2.8a786.5,786.5,0,0,1-108.9-43c-42.4-20.6-84.6-47.3-125.8-74.2,43.2,26,84.2,50.5,125.6,70.4a841.7,841.7,0,0,0,109.1,43v-2.8a843.5,843.5,0,0,1-107.9-42.7c-39.5-19-78.6-42.2-119.7-66.8l11.8,6.5c37.5,20.6,72.9,40.1,107.6,56.6A899.2,899.2,0,0,0,1920,725.8v-2.9a904.4,904.4,0,0,1-106.9-42.4c-34.6-16.4-70-35.9-107.5-56.5l-6-3.3,35.2,17.7c27.4,13.8,53.2,26.9,78.1,38.5A960.8,960.8,0,0,0,1920,719.1v-3a962.1,962.1,0,0,1-105.9-41.9c-24.9-11.6-50.7-24.7-78.1-38.5l-28.9-14.5c24.3,10.9,47.6,21.8,69.6,32.1l37.1,17.3A1027.1,1027.1,0,0,0,1920,712.4v-3a1038.2,1038.2,0,0,1-104.9-41.4l-37.1-17.3c-40.3-18.9-83.7-39.2-129.3-57.9l-5.1-2.4-6.5-3.4-6.1-3.6-5.8-3.8-5.8-4.1-4.5-3.5-7-5.9-5.6-5.2-.4-.4-5.1-5.1-3.2-3.4-2.3-2.4-5.2-6-5.1-6.3-5-6.6-4.8-6.8-5.8-8.7-3.2-5.1-4.2-7.3-4-7.2-3.7-7.1-3.3-6.8-2.9-6.3-2.4-5.5-1.8-4.3L1527.4,433c-27.6-71.7-53.6-139.3-88.6-185.6-38.9-51.3-85.1-71.7-145.5-64.2C1148.1,201.3,1018.7,345.5,893.6,485c-40.2,44.8-79.7,88.9-118.9,127.8l-2.2,2.1-2.6,2.3-2.3,2-2.6,2.1-2.7,2-.6.4-3.9,2.5-8.9,4.6-2.4,1.1L744,633l-3,1.2-3.2,1.1-3.2,1-3.2.8-6,1.3h-.1l-3.2.4-1.4.2h-6.3c-91-3.3-183.6-22.2-276.4-66.6q-55.2-26.4-136.4-48.5c-19.8-37.8-39.2-78-58.9-118.7-44.1-91.2-89.7-185.5-142.8-259.7C71.2,105.3,43,74.6,13.6,51.5Q6.8,46.2,0,41.5v1.4c34,23.7,66.8,58,99.1,103.1,53.1,74.2,98.6,168.4,142.7,259.6,19.6,40.5,38.9,80.4,58.5,117.9l-6-1.6c-20.5-36.5-40.8-75.3-61.3-114.6C163.8,274.9,92.9,139.2,0,68.6V70c92.4,70.6,163.1,205.9,232,337.8,20.4,39,40.5,77.5,60.8,113.7l-5.9-1.5c-21.3-35.1-42.3-72.4-63.6-110.3C155.5,289.5,86.1,166.6,0,96.3v1.5C85.6,168,154.7,290.6,222.2,410.2c21.1,37.5,42,74.4,63,109.3l-5.7-1.5c-21.8-33.5-43.5-69.1-65.8-105.7C147.6,303.9,79.9,193,0,124.1v1.6C79.4,194.5,146.8,305,212.6,413c22.1,36.2,43.5,71.4,65.1,104.6l-5.6-1.4c-22.4-32-44.8-66-67.8-100.9C140.1,317.8,74.5,218.2,0,151.9v1.8C74,219.9,139.3,319,203.2,416c22.7,34.5,44.8,68,67,99.7l-5.4-1.3c-23-30.5-46-62.7-69.6-95.9C133,331.2,69.6,242.3,0,179.2v1.9C69.1,244,132.2,332.5,194,419.3c23.3,32.7,45.9,64.5,68.6,94.5l-5.2-1.2c-23.4-28.8-46.9-59.3-71-90.6C126.4,344.3,65.3,265.1,0,205.9v2c64.8,59,125.5,137.7,185.2,215C208.9,453.7,232,483.6,255,512l-4.9-1.2c-24.3-27.7-48.4-56.6-72.2-85C120.2,356.8,61.4,286.6,0,231.6v2.1c61,54.7,119.3,124.6,176.7,193.2,23.3,27.9,46.9,56.1,70.7,83.3l-4.8-1.1c-24-25.4-48.2-52-72.6-79C114.5,368.9,58.1,306.7,0,256.2v2.2c57.6,50.3,113.6,112.1,168.8,172.9,23.4,25.8,47.1,52,71,77.2l-4.6-1c-23.9-23.4-48.1-47.9-72.5-72.7C109.3,380.6,55.1,325.6,0,279.5v2.3C54.7,327.7,108.4,382.2,161.5,436c23.3,23.6,46.9,47.5,70.6,70.8l-4.2-.9c-23.6-21.3-47.4-43.5-71.5-65.9C104.8,391.9,52.6,343.3,0,301.3v2.3c52.2,41.7,104,89.9,155.1,137.5,22.8,21.3,46,42.8,69.2,63.8l-3.9-.8c-22.8-19-45.9-38.7-69.3-58.7C101.2,402.9,50.6,359.8,0,321.7v2.4C50.2,361.9,100.3,404.7,149.8,447c22,18.8,44.2,37.8,66.6,56.4l-3.5-.7c-21.6-16.5-43.4-33.6-65.5-50.8C98.6,413.8,49.2,375.2,0,340.7v2.4c48.8,34.3,97.8,72.5,146.2,110.3,20.9,16.3,41.7,32.5,62.2,48.2l-2.9-.6c-19.6-13.7-39.4-27.8-59.4-42C97.6,424.6,48.6,389.7,0,358.1v2.5C48.2,392,96.8,426.6,144.9,460.7,163.5,474,182,487.2,200.3,500l-2.3-.5-50-32.2C98.9,435.6,49.2,403.5,0,374.1v2.5c48.8,29.1,98.1,61,146.9,92.5l45.3,29.2-1.6-.3L155,477.3C103.5,447.1,51.3,416.7,0,388.7v2.6c51,27.8,102.7,58,153.9,88l29.9,17.5-.8-.2-12.7-6.7C113.6,459.9,56.2,429.6,0,402v2.6c55.9,27.5,112.8,57.6,169.2,87.4l4.2,2.2C116.6,467.1,57.9,439.5,0,414v2.6c52.6,23.1,105.9,48.1,157.8,72.7C105.8,467.3,52.5,445.2,0,424.8v2.8c47.2,18.4,94.8,38,141.4,57.7C94.6,467.7,47,450.5,0,434.4v2.7c41.3,14.1,82.9,29,124.1,44.3-32.3-10.5-64.6-20.7-96.3-30.2L0,442.9v2.7c35.9,10.6,72,21.8,107.7,33.3-29.5-8.2-59.7-16.3-90.2-24L0,450.5v2.7c30.4,7.6,61.1,15.6,91.5,24q-41.1-9.5-84.4-18.6L0,457.1v2.8c25.8,5.3,51.6,11,77.4,16.9-27-5.1-53-9.7-77.4-13.7v2.7q26.5,4.4,53.1,9.2Q27.2,471.2,0,467.7v3c46.1,5.9,92,12.7,136.4,20.5Zm1451.3,79.8h-.4Zm-2.8-1.2.2.3-.5-.2-.2-.4Zm-2.5-4.1h-.4Zm-.2,3,.3.5-.7-.2-.3-.6Zm-2.4-4.2v.2l-.5-.2v-.3Zm-.2,3.1.4.8-.7-.3-.4-.8Zm-2.4-7.7h.1l-.4-.2V562Zm0,3.3.2.4-.6-.3-.3-.5Zm-.2,3.3.5.9-.8-.3-.5-1Zm-2.4-8,.2.4-.5-.3-.2-.4Zm0,3.5.3.6-.7-.3-.3-.7Zm-.1,3.5.6,1.1-.9-.3-.6-1.2Zm-2.3-11.5h.1l-.4-.2h-.1Zm-.1,3.2.3.6-.6-.3-.3-.6Zm.1,3.7.4.8-.8-.3-.4-.9Zm0,3.7.6,1.3-.9-.3-.6-1.4Zm-36.2-10.7c-96.6-29.2-178.5-36-250.5-20.7-47.1,10-95,22.4-145.8,35.6-107.4,27.8-222,57.4-340.2,66,107.3-11.5,211.3-40.5,312-68.6,60.8-17,118.2-33,174.5-44.7,94.8-19.7,191.5,4.5,284.1,42.3l.7,1.5Q1564.4,561.4,1546.9,556.1Zm33.7,6.6-.5-1,.8.4.5,1Zm.1-11.1h0l-.3-.2h0Zm0,3.2.2.3-.5-.3-.2-.4Zm0,3.4.4.8-.7-.3-.4-.8Zm-58-16.7c-85.5-27.8-159.5-34.6-226.4-20.7-56.3,11.8-113.8,27.8-174.7,44.8-101.2,28.3-209,58.3-320.2,69.2,101.6-13.5,200.7-43.3,296.7-72.2,69.2-20.9,134.6-40.5,198.6-53.6,95.8-19.4,191.5,9.9,282,52.2l.5,1.2C1560.5,554.6,1541.6,547.6,1522.7,541.5Zm55.6,8.5.2.3-.4-.2-.2-.3Zm.1,3.4.3.5-.6-.3-.3-.6Zm.1,3.6.5,1-.7-.3-.5-1Zm-2.5-11.6h0l-.3-.2h0Zm0,3.1.3.5-.5-.3-.3-.6Zm.5,4.4-.6-.3-.4-.8.6.4Zm-2.8-9.1v.3l-.3-.2-.2-.3Zm.1,3.3.3.7-.5-.3-.4-.8Zm-2-4.4-.4-.3-.2-.6.4.3Zm.4,4c-28.3-16.8-57-32.1-86-44.4-67.9-28.7-130.2-37-190.3-25.4-77.4,15.2-155.9,42.9-238.9,72.2-85.7,30.3-172.6,61-260.8,78.5,83.2-19.5,165.3-50.8,245-81.2,88.6-33.8,172.2-65.7,255.1-81.6,101.6-19.2,188.7,23.1,275.5,81Zm-.9-7.9v.2l-.2-.2v-.2Zm-1.4,2.7c-29.9-19.7-60.2-37.8-90.9-51.9s-59.9-23.4-88.6-28.3a265.7,265.7,0,0,0-94.7.8c-83.1,16-166.8,47.9-255.5,81.8-79.4,30.3-159.8,61-241.4,80.4,76.8-21.1,152.6-52.2,227.4-83,93.5-38.5,181.9-74.8,269.8-91.4,103.1-19,188.5,28.2,273.5,90.8Zm-.7-4.4.2.4-.3-.2-.2-.4Zm-2.2-4.9h0Zm-4.4-7c-32.4-28.5-64.5-54.2-98.5-73.8-57.2-33-110.9-43.6-168.8-33.3-97.7,17.4-194.2,63.3-296.5,111.9-65.1,30.9-130.9,62.2-197.5,85.7,63.3-24.8,126.2-56.8,187.6-88,100.9-51.3,205.3-104.4,306.7-122.1C1403.5,386.8,1483.3,448.7,1562.6,525Zm-3.8-6.8c-32.2-30.8-64.2-58.6-98.2-79.6-55.2-34.1-107.7-45.3-165.4-35.3-101.8,17.7-206.3,70.9-307.4,122.3-61.1,31.1-123,62.6-185.6,87.1,59.5-25.7,118.7-57.8,176.6-89.3,103.9-56.4,211.4-114.8,316.6-132.7C1404.8,372.2,1479.6,435.6,1558.8,518.2Zm-4.1-7.4c-31.8-32.8-63.3-62.6-97.1-84.9-53.4-35.2-105-47.1-162.5-37.3-105.6,18-213.2,76.4-317.3,133C920.2,552.9,862,584.5,803.2,610c56.1-26.5,111.9-58.8,166.5-90.3C1076.2,458,1186.4,394.2,1295.3,376S1478,424.6,1554.7,510.8Zm-4-7.5c-31.3-34.8-62.3-66.4-95.9-90-51.7-36.4-102.5-48.8-159.9-39.3-109.2,18.2-219.6,82.1-326.4,143.8-54.3,31.4-109.3,63.2-164.7,89.4,52.9-27.2,105.7-59.6,157.3-91.3,109-67,221.7-136.3,334-154.6S1476.4,413.4,1550.7,503.3Zm-3.9-7.8c-30.7-36.8-61.1-70.2-94.4-95-50.2-37.5-100.3-50.6-157.7-41.3-112.6,18.4-225.5,87.8-334.7,154.9-51.5,31.6-103.5,63.6-156,90.6,50.2-27.8,100.2-60.4,149.2-92.4C1064.5,439.9,1179.5,365,1295,346.5,1406.6,328.7,1474.9,402.2,1546.9,495.5Zm-3.6-7.8c-30.1-38.7-59.9-73.8-92.8-99.8-48.9-38.7-98.4-52.4-155.7-43.2-115.9,18.5-231.1,93.6-342.4,166.2-48.7,31.7-97.8,63.8-147.4,91.3,47.5-28.3,94.8-61,141.2-93,113.2-78.1,230.2-158.8,348.8-177.3C1407.3,314.2,1473.5,390.8,1543.2,487.7ZM1294.5,330c-119,18.6-236.2,99.4-349.5,177.6-46.1,31.8-92.6,63.9-139.6,91.9,45-28.8,89.9-61.5,133.9-93.5,114.9-83.8,233.8-170.4,355.4-189,113.3-17.3,177.5,62.4,245,162.7C1471.5,385.6,1405.4,312.7,1294.5,330Zm-.1-14.7c-122,18.6-241.1,105.4-356.2,189.3-45.6,33.2-90.5,65.9-135,94.4,43.7-29.7,87.3-63.2,130.1-96,116.4-89.4,236.8-181.9,361.2-200.7,113.6-16.7,175.9,65,240.8,167.9C1469.6,373.4,1405.5,298.3,1294.4,315.3Zm-400,170.4c125-139.4,254.2-283.5,398.9-301.5,60.1-7.5,106,12.8,144.6,63.8,32.3,42.7,57,103.7,82.3,169.3-25-60.8-49.6-117.1-81.1-157-39.5-50.2-85.8-70-145.8-62.3-142.8,18.3-271.4,155.7-395.8,288.7-31.2,33.3-61.9,66.2-92.4,96.7C834.6,552.4,864.3,519.3,894.4,485.7Zm3.9,1.6c124.2-132.8,252.7-270.2,395.1-288.4,59.6-7.6,105.6,12.1,144.9,61.9,32,40.7,57.1,98.5,82.6,160.8-25.1-57.6-50.1-110.7-81.2-148.6-40.2-49-86.6-68.3-146.3-60.5C1153,230.9,1025.2,361.7,901.7,488.2c-33,33.7-65,66.5-96.8,96.8C835.7,554.2,866.8,521,898.3,487.3Zm4.2,1.8c123.5-126.4,251.1-257,391.1-275.4,59.2-7.7,105.3,11.4,145.2,60.1,31.9,39,57.4,94,83.2,153.5-25.4-54.8-50.7-105.1-81.7-141.4-40.9-47.9-87.5-66.5-146.8-58.7C1155.6,245.8,1028.7,370,906,490.1c-34.5,33.8-68,66.6-101.2,96.7C836.8,556.3,869.2,523.1,902.5,489.1Zm4.4,1.9c122.6-120,249.3-244,386.9-262.5,58.8-7.8,105.1,10.7,145.7,58.2,32,37.5,58,90.1,84.3,147.2-25.8-52.4-51.6-100.4-82.6-135.2-41.7-46.7-88.5-64.8-147.4-56.8-135.5,18.6-261.3,136.3-383.1,250.2-36.1,33.8-71.2,66.6-106,96.5C838.2,558.2,872,525.1,906.9,491Zm4.7,2.1c121.6-113.7,247.3-231.2,382.3-249.8,58.4-7.9,104.9,10,146.2,56.4,32.1,36,58.7,86.5,85.6,141.3-26.3-50.1-52.6-96.1-83.7-129.4-42.5-45.6-89.6-63-148.2-54.9-132.9,18.7-257.6,130-378.3,237.6-38,33.9-74.8,66.7-111.4,96.5C839.4,560.5,875,527.3,911.6,493Zm5,2.2C1037,387.8,1161.6,276.7,1294,258c58.1-8,104.8,9.3,146.9,54.5,32.4,34.7,59.6,83.3,87.1,136-26.9-48.1-53.7-92.1-85-124.2-43.4-44.4-90.7-61.3-149-53.1C1163.7,290.1,1040.2,395,920.8,496.5c-39.8,33.8-78.4,66.6-116.7,96.1C841,562.6,878.2,529.5,916.5,495.3Zm614.1-39.1c-62.2-104.4-122.8-186.7-236.5-170.3C1166.6,304.8,1044.5,403.5,926.4,499c-39.7,32.1-80.2,64.9-120.8,94.3,38.1-29.3,76.5-62,116.2-95.6,119.3-101.4,242.6-206.2,372.4-224.9,57.8-8.2,104.7,8.6,147.8,52.6C1474.7,358.8,1502.5,405.5,1530.6,456.2Zm-603.3,44c117.9-95.4,239.9-194,367-212.7,57.5-8.3,104.8,7.8,148.7,50.7,33,32.2,61.5,77,90.4,125.8-64.1-100.9-126.5-180-239.2-163.4-124.8,18.9-245.3,111.5-361.9,201.1-44.8,34.4-88.9,68.3-132.6,97.9C842.6,568.8,885.4,534.2,927.4,500.2ZM999.9,532c102.1-48.5,198.5-94.3,295.9-111.7,106.4-19,188.2,38.2,269.4,110.1v.2c-82.4-66.2-165.6-116.9-269.8-97.9-93.3,17-186.2,58.1-284.5,101.7-69.6,30.8-140.2,62.1-211.6,84.4C867,595.1,933.9,563.4,999.9,532Zm12.1,4.6c98.2-43.5,191-84.6,284-101.5,104.7-19.1,188.3,33.1,271.4,100.3l.3.6c-84.3-61.6-169.2-107.6-272-88.7-88.2,16.6-176.7,53-270.3,91.5-75.7,31.2-152.5,62.7-230.2,83.7C868.3,600.2,940.6,568.1,1011.9,536.6Zm45.9,14.9c83-29.3,161.3-57,238.6-72.1,99.3-19.2,190.3,19.4,277.7,71.5l.4.9c-88.9-46.9-180.8-79.6-278.5-60.3-71.2,14.3-143.6,37.9-220.2,62.9-92.6,30.2-186.6,60.9-282,76.2C883.6,613,972,581.8,1057.8,551.5Zm18.8,5.4c76.6-25,148.9-48.6,219.9-62.8,97.9-19.4,190.4,14.2,279.8,61.7l.5,1.1c-23.1-10.7-46.5-20.5-70.1-28.9-78-27.7-146.8-34.8-210.6-21.9s-129.6,32.8-198.9,53.7c-100.5,30.3-202.6,61-306.6,73.8C888.3,618.3,984,587.1,1076.6,556.9ZM242.6,519.1h-.1l3.1.9.3.3Zm1.6-2.9,3.9,1,.7.7-3.9-1.1Zm3.6,7.3,2.4.8h.1Zm1.7-2.3-.4-.4,3.5,1,.5.6Zm89.1,74.1-.9-1.3,3.2,2.1.9,1.5Zm5.6,5.9,1,1.6-3-2.2-.9-1.4ZM335.1,590l-1-1.5,3.5,2.1,1,1.7Zm-53.5-51.4.9,1.1-3.9-1.5-.8-.9Zm-7.3-5.5-1-1.2,4.1,1.4,1,1.3Zm6.7,2.4-1.1-1.4,4.4,1.5,1.1,1.6Zm7.3,5.5,1,1.4-4.2-1.7-1-1.2Zm23.4,18.5-1.1-1.8,4.4,1.9,1.1,1.9Zm6.7,5.8,1.1,1.8-4.2-2.1-1.1-1.7ZM308.1,554l-1.2-1.8,4.7,1.9,1.2,2Zm.5,2.9,1.1,1.7-4.2-1.9-1.1-1.5Zm-6.8-5.7-1.1-1.6,4.4,1.8,1.1,1.7Zm2.8-2.8-1.2-1.9,4.9,1.8,1.2,2Zm-3.6-5.6-1.3-2,5.1,1.7,1.3,2.2Zm.6,3.1,1.2,1.8-4.6-1.9-1.1-1.7Zm-7.2-5.5-1.2-1.8,4.9,1.7,1.2,2Zm.6,3.1,1.1,1.6-4.4-1.8-1.1-1.5Zm-7.2-5.5-1.2-1.6,4.7,1.6,1.2,1.8Zm4.4,8.4.9,1.2-3.9-1.7-.9-1.1Zm3.9,5.2.8,1.1-3.6-1.7-.8-.9Zm-.5-2.9-1-1.3,4.1,1.7,1,1.5Zm6.8,5.7,1,1.4-3.9-1.8-.9-1.2Zm3.7,5.3.9,1.3-3.7-1.8-.8-1.1Zm3.7,5.3.8,1.1-3.4-1.8-.7-1Zm-.5-2.8-1-1.4,3.9,1.8,1,1.6Zm6.5,5.8.9,1.4-3.7-2-.9-1.3Zm3.6,5.4.9,1.3-3.4-1.9-.8-1.1Zm-.5-2.8-1-1.6,4,2,1.1,1.7Zm6.3,5.9,1,1.6-3.8-2.1-1-1.5Zm3.4,5.5.9,1.5-3.5-2.1-.9-1.3Zm3.5,5.4.8,1.3-3.2-2.1-.8-1.1Zm3.5,5.4.7,1.1-2.9-2-.6-.9Zm-3.9-8.1-1-1.6,3.8,2.1,1.1,1.8Zm-3.5-5.5-1.1-1.7,4,2.1,1.1,1.9Zm-3.5-5.5-1.1-1.8,4.2,2.1,1.2,2Zm-3.4-5.6-1.2-1.9,4.5,2,1.2,2.1Zm-3.4-5.6-1.2-2,4.7,2,1.2,2.1Zm-3.4-5.6-1.2-2,4.9,2,1.2,2.2Zm-3.4-5.7-1.2-2.1,5.1,1.9,1.2,2.2Zm-3.4-5.8-1.3-2.2,5.3,1.8,1.3,2.4Zm-3.4-5.8-1.3-2.2,5.5,1.8,1.3,2.3Zm-3.3-5.8-1.3-2.2,5.7,1.7,1.2,2.4Zm.5,3.1,1.3,2.2-5.3-1.8-1.3-2Zm-7.5-5.3-1.3-2.1,5.5,1.6,1.2,2.2Zm.5,3.1,1.2,2-5.1-1.7-1.2-1.9Zm-7.5-5.2-1.2-1.9L291,529l1.2,2Zm.5,3.1,1.2,1.8-4.9-1.6-1.2-1.7Zm-7.5-5.2-1.2-1.7,5.1,1.4,1.2,1.8Zm.5,3.1,1.1,1.6-4.7-1.6-1.1-1.4Zm-7.6-5.2-1.1-1.5,4.9,1.4,1.1,1.6Zm.6,3.1,1,1.4-4.5-1.5-1-1.2Zm-2,4-3.8-1.4-.8-.9,3.7,1.2Zm-5.6-9.1-1.1-1.3,4.7,1.3,1.1,1.4Zm.6,3.1.9,1.1-4.1-1.3-.9-1Zm-7.5-5.1-.9-1.1,4.3,1.2,1,1.2Zm.6,3.1.8.8-4-1.3-.7-.7Zm-7.7-5.1-.8-.8,4.2,1.1.8.9Zm2.4,7.1-.3-.3,3.1,1,.5.5Zm5,4.6,2.5.9h.1Zm1.7-2.2-.6-.6,3.6,1.2.7.8Zm4.6,4.7-.3-.3,3.2,1.2.4.5Zm4.5,4.6h-.1l2.8,1.1.2.3Zm2.1-2-.6-.7,3.4,1.2.7.8Zm4.6,7.6.4.2h0Zm-.2-2.8-.4-.5,3,1.2.5.6Zm4.4,4.8-.3-.3,2.6,1.1.4.4Zm1.8-2.1-.7-.8,3.5,1.4.7.9Zm2.6,6.8h0l2.2,1,.2.2ZM287,548l-.5-.6,3.2,1.4.6.8Zm4.2,4.9-.4-.4,2.8,1.3.5.6Zm4.3,4.9-.2-.2,2.4,1.2.3.4Zm1.7-1.8-.6-.8,3.2,1.5.7,1Zm3.5,7.2,1.1.6h.1Zm.6-2.2-.5-.6,2.9,1.5.6.8Zm4.1,5-.3-.4,2.5,1.4.4.6Zm4.1,5h-.1l2.1,1.2.2.3Zm1.5-1.7-.6-.8,3,1.6.7,1Zm4,5.1-.4-.6,2.6,1.5.5.7Zm4,5.1-.2-.3,2.2,1.3.3.5Zm1.5-1.7-.7-1,3,1.7.8,1.1Zm3,7.1,1.2.8h.1Zm.8-1.9-.6-.7,2.6,1.6.6.9Zm3.8,5.2-.4-.5,2.2,1.4.5.7Zm3.9,5.1-.3-.4,1.8,1.2.4.6Zm3.9,5.1h-.1l1.2.9.2.3Zm1-1.4-.7-.9,2.5,1.7.7,1.1Zm3.7,5.2-.5-.7,2.1,1.5.6.9Zm3.7,5.1-.3-.4,1.6,1.3.4.6Zm1.2-1.2-.8-1.2,2.6,1.9.9,1.4Zm3.6,5.2-.7-1,2.2,1.7.8,1.2Zm3.2,4.6h-.1l1.8,1.5.2.4Zm4.2,3.4c48.4,38.5,92.5,62.3,133.9,72.3,36.1,8.7,72.7,9.3,111.8,1.8,34.2-6.6,69.7-19.3,108.4-38.9h0c-81.2,44.3-150,57.9-216.4,42.8-42.9-9.7-88-35.1-137.2-77.3Zm383.7,24.9c-75.3,65.2-149.8,107.5-226.1,97.3-46.5-6.2-87.4-35.3-125.4-78.7,37.4,39.3,77.4,65.8,121.9,72.4,31.8,4.7,64,1.1,98.4-11.1,30.7-10.9,62.6-28.5,97.4-53.8Q723.5,658,740.3,644.1Zm-6.1,3.4q-14.2,11.4-28.4,21.8c-73.2,53.1-135.1,73.7-195,64.7C463.4,727,421,697,381.4,653a349.7,349.7,0,0,0,44.6,39c27.3,19.7,53.9,31.5,81.4,36,32.4,5.3,65.3,2.4,100.4-9.1,31.3-10.3,63.9-27.2,99.4-51.6Q720.8,657.9,734.3,647.6Zm-4.6,1.9q-11.5,8.7-23.1,16.7c-74.7,51.4-137.9,70.6-198.9,60.6-43.9-7.2-86-33-130.8-80.3a371.6,371.6,0,0,0,45.6,38.2c27.6,19.3,54.3,31.1,81.6,36,33.1,6,66.6,3.7,102.5-7.1,32-9.6,65.2-25.7,101.5-49.4Q718.9,657.2,729.6,649.5Zm-4.6,1.6q-8.8,6.2-17.7,11.9c-76.2,49.6-140.7,67.5-203.1,56.3-44.1-8-87.1-33.8-133.4-80.6a399.7,399.7,0,0,0,48,38.7c27.9,18.9,54.6,30.6,81.8,35.9,33.8,6.6,68.1,5,104.7-5,32.7-8.9,66.6-24.3,103.6-47.1Q717,656.4,725,651.1Zm-16.7,9C630.5,708,564.6,724.5,500.9,712c-44.4-8.7-88.2-34.7-136.2-81.1,47.1,42,89.8,66.1,132.6,75.2,34.5,7.3,69.5,6.4,107-2.8,33.4-8.2,68-22.8,105.9-44.8l10.1-6Zm1.1-2.9c-79.5,46.1-146.8,61.2-211.8,47.4-44.1-9.3-88.1-34.8-137-79.4l-.2-.4c48,40.6,91,64.3,133.6,74,35.3,8,71.1,7.8,109.3-.6,34.1-7.5,69.5-21.3,108.2-42.4l4.1-2.3Zm5.1-6.3h.3c-74.1,38.4-148,57.5-223.8,39.1-46.5-11.3-91.9-38.2-137-74.8l-.9-1.5c49,36.8,93.2,60,134.2,70.6,36.9,9.5,74.3,10.8,114.3,4.2C637.2,682.5,674.1,670.2,714.5,650.9ZM487.7,682.6c-46-11.8-91.4-37.9-137.1-72.7l-1-1.6c49.6,35.2,93.8,57.8,134.3,68.8,37.7,10.3,76,12.4,116.9,6.6,34.1-4.8,69.4-15.2,107.6-31.5C635.4,686.2,562.5,701.8,487.7,682.6Zm-3.3-7.4c-45.4-12.4-91-37.6-137.2-70.8l-1.1-1.8c50.2,33.5,94.4,55.5,134.4,67s77.8,14.1,119.8,9.2c27.5-3.2,55.7-9.8,85.5-20C619.1,684.1,551.8,693.6,484.4,675.2Zm-3.3-7.4C436.2,655,390.5,630.5,343.8,599l-1-1.7c46.1,29,90.9,52,134.3,65.1,39.6,12,79.7,15.9,122.7,11.9a418.7,418.7,0,0,0,81-16.1C614.8,680.2,548,687.1,481,667.9Zm-3.3-7.4c-44.3-13.4-90.1-37.1-137.2-67l-1.1-1.8c46.5,27.6,91.5,49.8,134.4,63.5,40.6,12.9,81.8,17.7,125.9,14.7a428.3,428.3,0,0,0,76.6-12.6C610.6,676.2,544.3,680.7,477.7,660.5Zm-3.3-7.4c-43.8-13.9-89.7-36.8-137.3-65.2L336,586c47,26.2,92,47.8,134.4,61.8s84,19.6,129.3,17.6a439.9,439.9,0,0,0,71.6-9.3C606.2,672,540.5,674.1,474.4,653.2Zm-3.3-7.4c-43.2-14.4-89.2-36.6-137.3-63.5l-1.2-2c47.4,24.8,92.5,45.7,134.4,60.3s86.3,21.6,132.8,20.6a453.8,453.8,0,0,0,66.3-6.5C601.7,667.8,536.6,667.6,471.1,645.8Zm-3.3-7.4c-42.7-14.8-88.8-36.3-137.2-61.8l-1.2-2.1c47.8,23.4,93,43.8,134.3,58.7a399.2,399.2,0,0,0,137.2,23.7,474,474,0,0,0,62.9-4.3C599,663.4,533.6,661.3,467.8,638.5Zm-3.3-7.4C422.4,615.9,376.2,595,327.3,571l-1.2-2.1c48.2,22.1,93.5,41.8,134.3,57.2,51,19.2,101.6,27.3,151.9,27.3,14.9,0,29.7-.7,44.5-2C593.2,658.9,529,654.5,464.5,631.1Zm-3.3-7.4c-41.6-15.6-87.9-35.9-137.1-58.5l-1.2-2.2c48.4,20.8,93.9,40,134.1,55.7C513.5,640.9,569.6,650,625.3,650q11.3,0,22.5-.5C586.1,654,523.9,647.4,461.2,623.8Zm-3.3-7.3c-41-16-87.5-35.7-137.1-56.9l-1.2-2.2c39,15.6,75.8,30.5,109.1,44.1l24.9,10.1A479.2,479.2,0,0,0,604.2,646q20.6,1.4,41.7,1.1C583.7,649.6,521,641.1,457.9,616.4Zm-3.3-7.4L429.7,599c-34.2-13.9-72-29.2-112.1-45.3l-1.3-2.3c49.5,18.5,94.9,36.4,133.9,52.8a511.4,511.4,0,0,0,156,38.5q17.1,1.5,34.6,1.9C579.3,644.7,517.2,634.5,454.6,609.1Zm-3.3-7.3c-41.7-17.5-88-35.8-136.9-53.9l-1.3-2.4c49.2,17.1,94.6,34.5,133.8,51.5C507.4,623.2,571,638.2,639.2,642,577.1,640.2,514.5,628.3,451.3,601.7Zm-3.3-7.3c-39.2-17-85.5-34.8-136.8-52.5l-1.3-2.4c49.6,16,95,32.8,133.6,50.1,60.1,27,123.2,43.5,190.4,49.7A552,552,0,0,1,448,594.4Zm-3.3-7.3c-37.9-17-84-34.2-136.6-51.1l-1.3-2.4c49.8,14.8,95.1,31.1,133.4,48.8a628.2,628.2,0,0,0,179.6,53A589.8,589.8,0,0,1,444.6,587Zm-7.9-12a675.5,675.5,0,0,0,170.2,55.3,622.1,622.1,0,0,1-165.6-50.7c-39.8-18.4-86.7-34.9-136.4-49.6l-1.3-2.5C354.2,541.5,399.5,557.2,436.7,575ZM302.3,527.3l1.3,2.4-5.8-1.7-1.3-2.3Zm-7.3-2,1.3,2.3-5.7-1.6-1.3-2.2Zm-7.3-1.9,1.3,2.1-5.5-1.6-1.3-2Zm-7.3-1.9,1.3,1.9-5.3-1.5-1.3-1.8Zm-7.3-1.8,1.2,1.7L269,520l-1.2-1.6Zm-7.3-1.8,1.2,1.5-4.9-1.3-1.2-1.4Zm-7.3-1.8,1.1,1.3-4.6-1.2-1.1-1.2Zm-7.3-1.7,1,1.1-4.5-1.2-.9-1Zm-7.3-1.7.8.9-4.2-1.1-.8-.7Zm-2.8,2.7.4.4-3.6-1-.3-.3Zm-4.5-4.4.6.6-3.9-1-.5-.5Zm-2.7,2.6h.1l-2.5-.7Zm-4.7-4.2.4.3-3.5-.9-.3-.2Zm-7.4-1.6h.1l-1.2-.3Z" transform="translate(0 -19.8)" style="fill:#f9d858"/><path d="M1484,742.5a278.6,278.6,0,0,0,44-1.9,289.9,289.9,0,0,0,44.3-.4c25.2,2.5,47.9,2.2,68.9-.9,35.5-5.4,65.3-18.7,91.1-40.7s45.8-59.9,64.7-120.2c33.1,41.3,65,78.6,95.5,108.2,9.6,9.3,18.7,17.5,27.5,24.8v-3.9c-38.1-31.9-79.2-79.2-121.9-132.5q2.7-8.7,5.3-18l1.8-6.4c39.9,45.7,78.5,86.1,114.8,113.6v-3.6c-35.9-27.6-74.2-67.8-113.9-113.3q3.4-12.4,6.6-25.4c37.1,38.5,73.1,72.4,107.4,95.8v-3.4c-33.9-23.4-69.7-57.3-106.6-95.6q3.2-12.9,6.2-26.4c28.2,26,55.6,49.4,82.6,67.8q9.1,6.2,17.7,11.4v-3.1q-7.9-4.8-16.2-10.5c-27.2-18.6-55-42.3-83.5-68.6q3-13.3,5.9-27.1c27,21.7,53.9,41.4,79.9,56.4q7.1,4.1,14,7.6v-2.9c-4.2-2.2-8.4-4.5-12.7-7-26.2-15.1-53.3-35-80.5-57q2.8-13.6,5.6-27.5c26.2,17.7,52.3,33.6,77.8,45.4l9.8,4.3v-2.7l-8.8-3.9c-25.6-11.9-52-28-78.4-45.8q2.7-13.7,5.4-27.8c25.6,13.8,51.3,26.1,76.6,34.7l5.1,1.7V435c-27-8.8-54.1-21.7-81.2-36.2q2.6-13.8,5.3-27.9c25.2,9.8,50.6,18.4,76,23.8v-2.3c-25.2-5.4-50.5-14-75.6-23.8l5.2-27.9c23.3,5.4,46.7,9.9,70.4,12.2v-2.2c-23.5-2.3-46.9-6.8-70-12.1l1.6-8.9,3.5-18.8c21.4,1.3,43,2,64.9,1.2V310c-21.8.7-43.3,0-64.5-1.2l5.1-27.4c19.5-2.6,39.3-5.3,59.4-8.9v-2c-20,3.6-39.6,6.3-59,8.8q2.5-13.5,5.1-27l26.5-8.9,27.5-9.2v-1.9l-28.1,9.4-25.5,8.6q2.5-13.1,5.1-26.3c15.6-8.9,31.7-17.7,48.4-26.3v-2c-16.5,8.6-32.5,17.2-48,26q2.5-12.8,5.2-25.7,20.6-17.1,42.8-33.2v-2q-22,15.9-42.3,32.7,2.6-12.6,5.3-25.1,17.7-19.9,37-38.4v-1.9q-18.5,17.8-36.4,37.7,2.5-11.6,5.1-23.2,15-21.7,31.3-42.1V98q-15.4,18.9-30.1,40l-.3.4q2.6-11.4,5.3-22.6,12-22,25.1-42.7V70.9q-7.8,12.2-15.4,25.2-4.4,7.5-8.6,15.1,2.5-10.3,5.1-20.6,7.1-16.2,14.8-31.9l4.1-8.3V47.8l-5.2,10.4q-6.1,12.5-11.9,25.4,2.3-8.9,4.7-17.7,6-16.7,12.4-32.8V30q-4.4,11.1-8.7,22.5,4.2-14.9,8.7-29.4V19.8q-6.8,21.8-13,44.5-7.9,21.9-15.1,44.7-8.4,20.2-16.2,41.1-9,18.2-17.5,36.8-9.5,15.8-18.7,32.1-10.3,13.5-20.3,27.5-10.9,10.8-21.5,22-11.6,8.1-22.9,16.8-11.9,5.4-23.7,11.3c-8.5,1.9-16.9,4.1-25.2,6.5-8.5.3-17,.9-25.4,1.9-8.8-1.1-17.5-1.8-26.3-2.1-9.1-2.3-18.1-4.3-27.1-5.7q-13.8-5.1-26.9-8.5c-8.8-4-17.6-7.6-26.4-10.7-9-4.9-18-9.2-27-13-8.9-5.4-17.8-10.3-26.7-14.5q-13.8-9.1-27.6-16.3-13.5-9.4-26.4-16.7c-47.4-34.9-89.2-49.7-126.8-45.1-26.5,3.3-51.6,16.4-74.3,39.1s-46.8,59.9-67.1,106.3c-43.6,99.7-84.6,184.5-123.4,255.6-24-8.3-48.1-15.9-72.1-22.6-61.3-17-116.5-26-166.8-27.1q-17.5-1.8-34.3-2.3-18-2-36-2.7c-11.5-1.4-23-2.4-34.5-2.8s-22.8-2.5-34.2-3.1-22.4-2.7-33.7-3.3a373.9,373.9,0,0,0-46.9-4.1l-8.8-1.2a359.7,359.7,0,0,0-43.6-5.9q-16.2-2.8-32.6-4.2-16-2.9-32.4-4.3-13.8-2.6-27.9-4.1l-4.5-.4q-10.7-2.1-21.6-3.5l-10.8-1.2q-7.5-1.5-15.2-2.7t-16.8-2.1l-9.3-1.8q-11.4-2-22.4-3.2l-3.6-.8c-9.4-1.9-18.5-3.3-27.5-4.3a271.9,271.9,0,0,0-30.6-5.1,255.7,255.7,0,0,0-30.2-5.1,241.5,241.5,0,0,0-29.9-5.2c-96.3-23.5-174.5,21.3-237.9,57.6l-13.7,7.8Q8.5,499.2,0,482.7v2.2q8.1,15.6,16.3,30.9L9,519.9,0,503v2.4l8,15.1L.8,524.4,0,522.9v5.3l1.2-.6,6.9,12.7L.8,543.7,0,542.3v5l1-.4,6.8,12L.3,561.4l-.3-.5v3.5H.3l6.3,10.8-2.8.5-3.9.7v5.2l5.3,8.6-5.3.8v2.6l6.8-1L14.3,604l-7.5.9L0,594.8v3l4.9,7.3-4.9.3v2.4l6.5-.4,7.8,11.1H7.1L0,608.9v2.9l4.8,6.5L0,617.9v2.5l6.8.4q3.8,4.9,7.6,9.6l-7-1.3Q3.7,625,0,620.5v2.9l4.4,5.1L0,627.3v4.3l2.2,2.1L0,632.5v3a141.3,141.3,0,0,0,17.2,11.1,146.4,146.4,0,0,0,19.7,12.9,149.9,149.9,0,0,0,20.2,13.2A156.7,156.7,0,0,0,75.9,685a161.5,161.5,0,0,0,19.8,13,164.9,164.9,0,0,0,19.5,12.8,169.5,169.5,0,0,0,19.3,12.7,173.9,173.9,0,0,0,19.7,12.9,180.8,180.8,0,0,0,18.6,12.3h2.6l-2.7-1.5-5.7-4.5,5.7,2.3,4.1,3.7h1.5l-3.2-2.8q4.7,1.6,9.3,2.8h5.9a110.8,110.8,0,0,1-17.8-5.2l-8.3-7.9,6.8,1.5A101.8,101.8,0,0,0,190,739c30.6,0,61.3-14.1,93.2-42.7,58.5-52.5,110.3-95.9,173-127.3l11.7,11.4c-58,31-107,72.4-162.4,124.8-25.6,24.2-50.5,38.6-75.3,43.7H236c23.2-6,46.5-20.2,70.3-42.7,52.5-49.6,101.2-92.3,162.4-124.8l11.7,11.8c-53.5,30.5-100,70.5-151.8,122q-21.9,21.7-43.3,33.7h2.2c13.9-8,28-19,41.9-32.9,51.8-51.4,98.3-91.4,151.8-121.9l11.6,12.2C447.8,633.6,405,669.9,351.9,725a241.2,241.2,0,0,1-26.3,23.8h1.7a240.3,240.3,0,0,0,25.4-23c48-49.8,90.9-88.6,140.9-118.9l12,13c-42.1,27.4-83,63.7-130.5,115q-6.9,7.4-13.7,13.8h1.4q6.5-6.2,13-13.2c45.6-49.4,86.5-86.3,130.4-115,20.5,22.4,40.2,45.2,59.2,67.4s35.8,41.5,53.3,60.8h4.1c-18.1-19.8-36.4-41-55.1-62.7s-38.8-45-58.9-67.1q8.4-5.4,17.1-10.4c24.1,24.6,47.2,50,69.4,74.5,20.7,22.9,40.9,45.1,60.9,65.7h4c-20.6-21.1-41.4-44.1-62.8-67.7s-45.2-49.8-68.9-74.1q8.5-4.9,17.2-9.4c27,25.9,53.2,53.4,79.1,80.5,23.6,24.7,46.5,48.8,69.2,70.6h4c-23.4-22.4-46.9-47.1-71.2-72.6s-51.4-54-78.5-79.9q8.6-4.4,17.4-8.5c30.5,27.3,60,56.6,89.1,85.7,26.6,26.6,52.4,52.3,78.1,75.3h4c-26.3-23.5-52.8-49.9-80.2-77.2s-57.8-57.7-88.4-84.9q8.6-3.9,17.6-7.6c34.1,28.3,66.9,59.3,99.2,90,29.9,28.4,58.9,55.7,87.7,79.8h4c-29.5-24.4-59.2-52.5-89.9-81.6s-64.3-60.9-98.4-89.1q8.7-3.5,17.7-6.8c37.7,29,73.9,61.5,109.6,93.5,33.1,29.8,65.7,59,98.2,84h4.1c-33.3-25.4-66.7-55.3-100.6-85.8s-70.9-63.7-108.6-92.7q8.7-3.1,17.8-6c41.4,29.4,81.1,63.2,120.3,96.5,37,31.5,73.3,62.4,109.6,88h4.1c-37.1-26-74.3-57.6-112.2-89.8s-78-66.4-119-95.6l17.7-5.4c45.3,29.6,88.7,64.5,131.4,99,41.2,33.2,81.6,65.7,122,91.8h4.2c-41.3-26.3-82.6-59.6-124.8-93.6s-85.2-68.6-130-98l17.6-4.8c49.3,29.5,96.6,65.6,143.2,101s90.7,69.1,135.6,95.4h4.3c-45.8-26.4-91.7-61.3-138.6-97.1S719.5,581,670.7,551.6l17.5-4.3c53.7,29.2,105.2,66.3,155.8,102.8,48,34.6,95,68.4,141.8,94l-3.7,4.7h3.8l2.6-3.2,6.1,3.2H999l-9.3-4.9,8.4-11,4.4-6q10.1,5.6,20.1,10.9l-9,11h3.9l7.8-9.6q9.5,4.9,18.9,9.3l-.3.3h5.7l-1.4-.6q6.7-7.6,13.4-15.8,9.9,4.9,19.9,9.3l-6.6,7.2h3.7l5.5-6,14.3,6h5.1q-9-3.5-18-7.5,5.3-6,10.7-12.3,10.1,4.7,20.2,8.9-5.3,5.6-10.5,10.9h3.6l9.4-9.8q9.9,4.1,19.9,7.8l-2.1,2h3.6l1.1-1.1,3,1.1h5.3l-6.9-2.4q8.5-8.2,17.1-17.3,10.3,4.2,20.5,7.9-6.5,6.2-13,11.8h3.6q6-5.2,11.9-10.9,10.1,3.6,20.2,6.7l-5.2,4.2h3.6l4.1-3.4,11.9,3.4h6.1q-8.3-2.1-16.6-4.6,7.3-6.2,14.7-13,10.4,3.6,20.7,6.8-7.1,5.7-14.2,10.8h3.6q6.5-4.8,13-10.1,10,3,20,5.5l-6.9,4.6h4.1l5.7-3.9q8.8,2.1,17.6,3.9h9l-2-.3q7.8-4.6,15.5-9.8,10.2,2.5,20.3,4.5-5.5,3-10.9,5.6h4.1l9.6-5.1q11,2.1,22,3.5l-3.6,1.6h4l2.7-1.2,12.2,1.2h49.6c7.8-.7,15.6-1.7,23.3-3.2A270.3,270.3,0,0,0,1484,742.5Zm-35.7,1.7q6.6-1.4,13.1-3.2,7.6.8,15,1.2A269.3,269.3,0,0,1,1448.3,744.2ZM678,519.2l-14,1.7-12.5-4.7,13.4-1.2Zm-23.1-8.9h.5l13.6,3-2.9.2ZM1870.4,182.9q-2.9,10.8-5.8,21.7l-9.8,8.6q3.3-9.8,6.6-19.5Zm-7.7,7.2,6-16.9,7.9-12.3q-2.7,9.5-5.3,19.1ZM711.8,523.8l13.6-1.7,7.1-.8,14.5,4.1-21.1,3.2Zm10.5,5.5-8.2,1.4-13.5-5.3,7.2-1Zm27.2-3,14.9,4.8-22,4L728,529.5Zm3.8-.5,13.5-1.6,14.9,4-4.3.7-9.7,1.6Zm13.1,6C841.6,557.3,915,599.1,986.8,640c17.3,9.8,34.5,19.6,51.6,29.1q-6.9,10.8-13.7,20.9c-26.9-15.2-54.1-31.6-81.7-48.2-64.8-39-130.8-78.9-199-106.2ZM987.6,638.6c-71-40.4-143.6-81.7-218-107.5l7.9-1.3,6.4-1c82.4,23.8,163.2,67.2,242.4,109.7l23.4,12.5-10.5,16.8C1022.2,658.3,1005,648.5,987.6,638.6Zm-200-110.3,13.8-1.7c87.4,20.9,174.1,64.1,258.9,106.9l-9.8,16.2-23.5-12.6C948.9,595.2,869,552.3,787.7,528.3Zm264.8,124.1,22.7,12q-5.6,8.6-11.2,16.9l-22.1-12.1Zm.8-1.3,9.8-16.2,5.2,2.6,18.2,9.2L1076,663.2Zm784.4-388.9-6.5,21-12.5,1.7,7.3-18.4Zm-10.8,1.9,7.2-17.7,10.7-6.6-6.4,20.2ZM1253.2,656.8l24.2,10.2q-6.3,7.9-12.6,15.3l-23.4-10Q1247.3,664.8,1253.2,656.8Zm-14.1,14.6L1215.5,661q5.6-7.6,11.1-15.6l24.3,10.4Q1245,663.8,1239.1,671.4Zm14.7-15.5q5.5-7.4,11-15.2l6.5,2.7,18.5,7.6q-5.9,7.8-11.7,15.2Zm38.1-4,24.8,10.2q-6.2,7.7-12.5,14.9l-24-9.9Q1286.1,659.6,1292,651.8Zm508.4-323.4-7.2,18.9-4-1.7-10.7-4.6,7.9-16.2Zm-13.1-5.6,7.9-16.1,13.2.9-7.2,18.7ZM1490.1,518.7c44.5-78.1,88.1-128.4,132.2-161.8l16.3,19.6c-40.4,38.7-80.9,90.1-123.1,161.2-38.9,65.6-78.3,117-118.6,154.7l-24.3-9.3Q1431.8,621.1,1490.1,518.7ZM1370.5,682.4l-24.4-9.6c38.9-44.6,77.4-101.9,117-174.1,46.7-85.2,94.1-134,142.4-161.4l15.4,18.1c-44.2,33.5-88,84-132.6,162.3Q1429.7,620.7,1370.5,682.4Zm254.1-327.3,8.5-6.1,15.9,17.7-8.3,7.7Zm25.6,13,16.4,18.7-8.2,9.5-16.5-20.4ZM1758.4,379l-7.8,16-16.4-14,8.2-13.5Zm-14.7-13.7,8.3-13.5,15.2,8.9-3.9,8.1-3.8,7.9Zm5.7,32.1-7.8,15.9-17-16.6,8.1-13.5ZM1733.1,380l-15.8-13.4,8.5-11.1,15.4,11Zm-1.4,2.2-8.1,13.4-16.4-15.8,8.4-11.2Zm-9.5,15.8-8,13.4-16.9-18.2,8.3-11.2Zm-16.1-19.3-15.8-15,8.7-8.9,15.5,12.9Zm-1.6,2.2-8.3,11.1-16.3-17.3,8.5-9.1Zm-9.9,13.4-8.1,11.1L1669.7,386l8.3-9.2Zm-15.8-20.8-15.8-16.4,8.6-7.1,15.6,14.4Zm-1.9,2.1-8.2,9.2-16.2-18.4,8.4-7.3Zm-9,12.7,16.9,19.6-8.1,11.3-17-21.4Zm18,20.9,17.4,20.6-8,13.3-17.6-22.5Zm1.7-2.4,8.1-11.2,17,18.4-1.7,2.8-6.3,10.4Zm24.8,10.7,1.4-2.4,17.6,19.2-7.7,15.4-17.9-21.3Zm2.9-4.9,8.1-13.4,17.1,16.7-7.8,15.7Zm26.3,4.3,7.7,7.6,10,9.8-7.4,18.2-8-8.7-10.1-11Zm9.6,5.6-8.3-8.2,7.8-16,6.8,5.9,10.2,8.8-7.4,18.5Zm8-20.2-7.4-6.3,7.8-16.1,6.9,5,9.5,6.9-7.3,18.7Zm8.8-19.4-7.3-5.3,3.9-8.2,3.9-8.1,8.1,4.7,7.6,4.4-7.3,18.9Zm9.9-18.8-8.2-4.8,7.9-16.2,10.8,4.6,4.1,1.8-7.3,18.9Zm-.7-23.7-14.3-6.1,8.4-13.4,13.7,3.4Zm-1,2-7.8,16.1-15-8.7,8.3-13.5Zm-24.2,6.6-14.5-8.3,8.7-10.8,14,5.8Zm-1.2,2-8.2,13.4-15.2-10.9,8.6-11Zm-24.7,1.6-14.6-10.2,8.9-8.5,14.2,7.9Zm-1.5,2-8.4,11-15.2-12.6,8.8-8.7Zm-25.1-2.8-14.7-11.9,8.9-6.5,14.5,9.8Zm-1.8,1.8-8.6,8.8-15.3-14.2,8.8-6.8Zm-25.2-6.6-14.8-13.3,8.8-4.8,14.6,11.3Zm-2.1,1.7-8.5,7-15.2-15.4,8.7-5.2Zm-10.7,8.8-8.3,7.3-15.7-17.4,8.5-5.6Zm-25.4-11.6-14.7-15.9,8.5-3.9,14.6,14.2Zm-2.4,1.7-8.4,6-15.1-17.8,8.5-4.5ZM1606.6,334l-14.8-16.8,8.4-2.9,14.7,15.3Zm-2.7,1.5c-19.6,11.2-38.2,25.4-56.1,43-30.6,29.9-58.8,68.9-86.4,119.3Q1402.5,605.1,1344,672l-24.5-9.9c38.4-47.7,76.9-108.2,116.7-183.3,49.3-93.1,100.2-139.9,152.6-160.4Zm-82,22.7c-31.3,28.4-60,67.5-87.6,119.6-39.9,75.3-78.4,135.8-116.9,183.5L1292.6,651c38.1-50.7,76.7-114.2,116.7-192.2,47.8-93,100.1-143.8,163.3-158.1l14.6,15.9C1564.1,325.7,1542.6,339.5,1521.9,358.2ZM1318.8,662.8l24.5,9.9q-6.6,7.5-13.2,14.5l-23.7-9.5Q1312.6,670.5,1318.8,662.8Zm26.6,10.8,24.3,9.6q-7,7.2-13.9,13.9l-23.6-9Q1338.9,681.1,1345.4,673.6Zm26.3,10.4,24.3,9.2q-7.3,6.8-14.6,13l-23.5-8.4Q1364.8,691.2,1371.7,684Zm26.2,10,24.8,9q-7.5,6.3-15.1,12-12-3.8-24.2-7.9Q1390.7,700.7,1397.9,694Zm.8-.8c40.2-37.8,79.4-89.2,118.2-154.5,42.1-70.8,82.4-122.1,122.7-160.7l16.7,20.7c-37.8,44.4-75.1,96.5-114,159.1s-78,110.2-118.8,144.4Zm145.1-134.5c39.8-63.9,77-115.6,113.6-158.6l17.2,21.7c-33.2,46.8-67.5,98.4-105.3,156.1S1491,680.8,1449,710.8l-23.7-8C1466,668.5,1505.1,621,1543.9,558.7Zm26.9,20c37.7-57.5,71.9-109,105-155.6l17.8,22.7c-30,49.8-61.4,100.8-97.1,152-40,57.4-80.8,96.2-122.5,120.8q-11.6-3.4-23.5-7.3C1490.9,682.4,1530.9,639.4,1570.8,578.6Zm26.9,20c35.6-51.1,66.9-101.9,96.9-151.6l18.3,23.6c-26.9,51.9-55.9,102.2-89.4,147.1-39.8,53.3-81.4,87.7-124.4,107.8q-11.4-2.9-23-6.3C1517.4,694.5,1558,655.6,1597.7,598.6Zm98.5-154.4,8-13.3,18,21.5-7.8,15.3Zm27,9.3,11.8,14.2,6.8,8.2q-3.8,8.8-7.6,17.4l-3.5-4.5-15.4-19.9Zm14,12.3-12.6-15.1,7.7-15.4,9.3,10.2,8.9,9.7-7.5,17.7Zm14.3-9.6,18.8,20.5q-3.6,10.2-7.2,20.1L1744.1,474Zm1.2-2.8,7.5-18.2,18.3,17.8q-3.5,10.5-7.1,20.7Zm8.5-20.9,7.4-18.6,17.6,15.1q-3.4,10.7-6.9,21.2Zm8.4-21.1,7.3-18.8,16.9,12.2-6.8,21.5Zm8.3-21.2,7.3-19,16.2,9.4-6.7,21.7Zm8.2-21.2,7.3-19.1,15.3,6.5-6.6,21.8Zm8.1-21.2,7.3-19.1h.5l14,3.6-1.5,4.9-5.1,16.9Zm8.4-21h-.3l7.3-19,10.3.7,3.3.2-6.6,21.7Zm17.4-20.4-9.6-.7,7.3-18.8,12.7-1.7-6.6,21.4Zm-3-21.3-12,1.7,7.9-15.4,11.2-4.2Zm-.8,2.1-7.2,18.5-13-.9,7.9-15.8Zm-21.7,17.5-12.5-.8,8.4-12.9,11.9-1.8Zm-1,2-7.8,15.8-13.4-3.4,8.4-13.2Zm-22.8,12-12.8-3.1,8.8-10.3,12.3.5Zm-1.2,1.9-8.3,13.2-13.7-5.7,8.8-10.6Zm-23.6,6.8-13-5.2,9.1-8,12.6,2.8Zm-1.5,1.8-8.6,10.7-13.9-7.7,9.1-8.3Zm-24.2,2-13.3-7.1,9.2-5.9,13,4.9Zm-1.8,1.7-8.7,8.4-14.1-9.5,9.1-6.2Zm-24.5-2.3-13.5-8.8,9-4,13.3,6.7Zm-2.2,1.5-8.8,6.4-14.2-11.1,9-4.4Zm-24.7-6-13-9.7,8.9-2.5,12.8,7.9Zm-2.5,1.3-8.7,4.7-13.7-11.8,8.8-3Zm-11.1,6.1-8.6,5.1L1630.7,325l8.7-3.4ZM1636,320.3l-7.2,2.9-13.8-13,8.5-1.8,13.8,11.4Zm-9.9,4.1-8.4,3.8-14.3-14.9,8.4-2.3Zm-24.4-12.8L1588,297.9l3.7-.4,4.5-.4,13.6,12.2Zm-3.1,1-8.3,2.9L1576,299.9l8.3-1.5ZM1574.2,298l-13.3-14,8.1-.2,13.3,12.6Zm-3.4.8c-26.4,6.2-50.8,18.8-73.9,38-32.4,27.1-61.8,66.6-89.7,120.9-40.1,78.1-78.7,141.7-116.9,192.4l-18.7-7.7-6.3-2.6c37.9-53.7,76.5-120.2,116.9-201,41.9-84,88.8-132.7,143.2-148.9a145.8,145.8,0,0,1,31.4-5.6Zm-45.9-11.1c-55.1,16.4-102.4,65.5-144.7,150.1-40.4,81-79.1,147.5-117,201.1l-25.1-10.4c37.8-56.6,76.6-126,117.3-209.7s87.7-132.7,142.1-146.3a139.4,139.4,0,0,1,44.1-3.6l13.1,13.1A148.2,148.2,0,0,0,1524.9,287.6ZM1262.6,639.7q-5.5,7.8-11,15.2l-24.3-10.4,10.3-15.1Zm-37.7,3.8-11-4.8-13.5-5.8,9.6-14.8,25.2,10.3Zm-11.5-3.7,10.8,4.7q-5.6,8-11.1,15.6l-23.8-10.6,10.4-15.5Zm-26.4,8.6-23.9-10.8,9.7-15.2,24.6,10.6Zm-.7,1q-5.6,8.2-11.2,15.9L1152,654.4l10.5-15.9Zm-25.7-13-24.1-10.9,9-14.8,24.8,10.5Zm-.7,1-10.5,15.8-23.4-11.1,9.8-15.6Zm-36.4,3.5-10.1-4.8-13.1-6.3,9-15.1,23.9,10.7Zm-10.7-3.6,10,4.8-10.5,16.1-22.5-11.3,9.8-15.9Zm-25.6,8.3-18.3-9.3-5.1-2.6,9.1-15.5,24.1,11.4Zm1.9,2.5,22.5,11.3q-5.6,8.5-11.2,16.5l-21.8-11.3Zm25,12.5,22.7,11.2q-5.9,8.4-11.8,16.4l-22-11Q1108.5,669,1114.1,660.5Zm.8-1.2,10.5-16.2,23.4,11.1q-5.6,8.3-11.2,16.2Zm36.4-3.9,23.2,10.8q-5.9,8.3-11.9,16.1l-22.5-10.7Q1145.6,663.8,1151.2,655.5Zm25.5,12,23,10.5q-6.3,8.2-12.5,15.9l-22.3-10.2Q1170.8,675.7,1176.8,667.4Zm.8-1.1q5.6-7.8,11.2-16l23.7,10.6q-5.9,8.1-11.9,15.9Zm37.2-4.3,23.6,10.3q-6.3,8-12.6,15.6l-22.9-10.1Q1208.8,670.2,1214.8,662Zm25.8,11.3,23.4,10q-6.6,7.8-13.2,15.1l-22.7-9.5Q1234.3,681.3,1240.6,673.3Zm25.6,10.9,23.2,9.5-9.8,10.3-4.1,4.1q-11.2-4.2-22.5-8.8Q1259.6,692,1266.2,684.2Zm.8-1q6.3-7.4,12.5-15.3l24,9.9q-6.6,7.7-13.3,14.9Zm38.6-4.5,23.6,9.5q-7,7.4-14,14.2l-22.9-8.8Q1299,686.4,1305.6,678.7Zm25.9,10.3,23.5,9q-7.3,7-14.7,13.3-11.3-3.9-22.7-8.1Q1324.5,696.4,1331.5,689Zm25.5,9.7,23.4,8.4q-7.7,6.4-15.4,12.2-11.2-3.4-22.6-7.3Q1349.7,705.7,1357,698.7Zm25.4,9.1q12.1,4.2,24.1,7.9-7.8,5.8-15.7,10.9-11.7-3.1-23.6-6.6Q1374.8,714.2,1382.4,707.8Zm11.2,18.8q7.4-4.9,14.7-10.3,11.3,3.5,22.4,6.6-8.3,5-16.6,9.3-10.6-2.3-21.3-5Zm15.8-11.1q7.6-5.7,15-11.9l23.6,8q-8,5.6-16,10.6Q1420.7,719,1409.3,715.4Zm40.2-3.4q11.7,3.8,23.3,7.2-8.4,4.9-16.8,9-11.1-2.6-22.4-5.7Q1441.6,717.6,1449.5,712Zm25.4,7.9q11.5,3.4,22.8,6.3-8.7,4-17.4,7.2-10.8-2-21.7-4.5Q1466.7,724.7,1474.9,719.9Zm25,6.9q11.1,2.8,21.9,5.2-8.9,2.9-18,5.2-8.7-1.1-17.8-2.7l-3-.5Q1491.6,730.7,1500,726.8Zm1.4-.7c42.6-20.3,83.8-54.6,123.3-107.5,33.5-44.8,62.4-95,89.3-146.7l14.5,18.8,4.4,5.8c-24.1,53.6-50.5,102-82.3,141.3-39.6,48.9-82.1,78.4-126.8,93.6Q1512.7,729,1501.4,726.1Zm150.2-87.5c31.8-39.3,58.1-87.6,82.2-141l19.5,25.2c-21.6,54.4-45.8,101.3-75.8,134.9-37.4,41.9-79.6,67.7-129.1,78.2q-8.4-1.4-17.1-3.1l-5-1C1570.5,716.4,1612.4,687,1651.5,638.6Zm83.6-144.1q3.9-8.6,7.7-17.5l19.2,23q-3.7,10-7.5,19.6ZM1763,501l19.9,23.5q-3.6,11.2-7.3,21.9l-20.1-25.8Q1759.3,511,1763,501Zm1.2-3.1q3.7-9.9,7.2-20.2l19.4,20.9q-3.4,11.5-6.9,22.6Zm8.3-23.1q3.6-10.3,7.1-20.8l18.8,18.1q-3.3,11.9-6.6,23.4Zm8-23.6q3.5-10.5,6.9-21.3l18.2,15.3q-3.2,12.2-6.4,24Zm7.8-23.9,6.8-21.6,17.4,12.4q-3.1,12.3-6.2,24.4Zm7.6-24.1,6.7-21.9,16.6,9.5q-3,12.4-6.1,24.7Zm7.5-24.2,6.7-22,15.8,6.6-6,24.8Zm7.4-24.2,5.2-17.1,1.5-4.9,14.9,3.8-5.9,24.8Zm7.3-24.1,6.6-21.9,14,1-5.2,21.9-.6,2.7Zm7.3-23.9,6.6-21.7,13.1-1.7-5.8,24.3Zm7.3-23.7,6.6-21.3,12.1-4.3-5.8,23.9Zm7.3-23.5,6.6-20.6,11.2-6.7q-2.9,11.6-5.8,23.2Zm7.4-23.2,6.6-20.1,10.1-8.9q-2.9,11.2-5.8,22.4Zm5.8-21.6-9.1,8.2,7-16.3,8.3-10.3Zm-1,3.1-6.3,19.4-10.4,6.4,7.1-17Zm-18.6,27-9.5,6.1,7.5-13.9,8.7-8.2Zm-1.2,2.9-6.9,17.1-10.8,4.1,7.7-14.7Zm-19.8,21.9-10.3,4,7.7-11.3,9.8-6.5Zm-1.3,2.5-7.6,14.9-11.5,1.8,8.2-12.4Zm-21.1,17-10.6,1.8,8.4-9.3,9.9-4.1Zm-1.5,2.2-8.1,12.5-11.8-.6,8.8-10Zm-22,11.8-10.8-.3,8.8-7.2,10.2-2Zm-1.7,2-8.5,10-12.1-2.7,9-7.6Zm-22.9,6.8-11.2-2.3,8.7-4.9h10.9Zm-2.1,1.8-8.7,7.7-12.4-4.7,9.1-5.4Zm-23.4,2.2-11.4-4,8.6-3,11.3,1.9Zm-2.5,1.5-8.9,5.7-12.6-6.4,9.1-3.6Zm-23.9-1.9-10.9-5.2,8.7-1.5,10.6,3.3Zm-3,1.3-8.6,3.8-12.1-7.5,8.8-2Zm-23.6-5.3-11.1-6.5,7.9-.2,11.3,4.8Zm-3.4.9-8.4,2.4-12.3-8.8,8.4-.7Zm-11.5,3.4-8.5,2.9L1627,307.8l8.5-1.3Zm-24-9.8-12.1-9.5,7.9.2,12.2,8.1Zm-3.5.7-8.2,1.8-12.9-11.6,8.2-.3Zm-23.6-12-11.6-9.9,7.6.9,11.7,8.6Zm-3.9.3-2.4.2-5.5.7-12.6-12,7.9.4Zm-23.1-13.5-11-10-.3-.3,7.1,1.4,11.5,9.1Zm-4.3,0-7.7.3-12.4-12.4,7.7,1,3.8,3.3Zm-22.9-14.9-1-1-10-9.5,6.8,1.8,11.2,9.4Zm-4.7-.3a141,141,0,0,0-42,3.8c-55.1,13.7-102.1,62-143.7,147.6-40.8,83.8-79.6,153.3-117.4,209.8l-25.2-10.3c37.8-59.4,76.8-131.8,118-218.4s86.8-133.1,141.1-144.5c18.7-4,37.8-3.5,57.1.5Zm-69.8-14.5c-55.1,11.7-101.8,59.4-142.9,146S1246,556.9,1208.2,616.3l-25.4-10.2c38-62.5,77.5-138.1,118.9-227.3,40.2-86.7,86.1-133.7,140.2-143.5,22.9-4.2,46.3-1.5,70.2,6.5l11,9.7C1504.8,248.2,1486.8,248,1469.1,251.7ZM1207.6,617.1l-9.6,14.8-24.6-10.6,8.9-14.4Zm-36.7,3.1L1146,609.7l8.1-13.7,25.5,10Zm-27.4-11.6-24.7-10.2,7.4-13,25.4,9.5Zm-.6,1-8.9,14.7L1110,613.6l8.2-14.2Zm-35.6,2.8-24.8-10.9,7.5-13.4,25.5,10.2Zm-.6,1.1-9,15.1L1073.6,617l8.3-14.5Zm-35.8,2.3c-81.3-38.3-163.9-74.4-246.4-90.9l12.2-.4c80.4,11.5,161.9,42.1,242.5,76.9Zm-.7,1.1-9.1,15.4C977.5,590,892,547.5,805.8,526.2l13.3-1C903.1,541.2,987.4,577.9,1070.2,616.9ZM802.9,525.5l-13.1-3,11.8-.4,13.7,2.3Zm-4.3.4-13.3,1.7-14.1-3.9,13-.9Zm-30.5-3-12.6-3.1,11.5-.3,13.1,2.4Zm-4.5.4-12.3,1.5h-.6l-13.7-4,12.6-.9ZM733.8,520l-12.1-3.1,11-.2,12.5,2.4Zm-4.6.5-3.9.4-16.1,2-13.6-4.3,3.8-.4c5.4-.5,10.8-.9,16.3-1.1Zm-24,3-6.9,1-13.1-4.7,5.7-.6Zm-163.5.6,15.5-3.2,12.3,6.8-15.8,3.8Zm8.9,8.2-16,4.5-11.9-8,15.7-3.9ZM539.8,523l-11.8-6.8,14.9-2.6,12.2,6.2Zm-3.3.8-15.5,3.9-11.7-7.4,15.2-3.3ZM507.2,519q-7.5-4.6-14.9-8.7l14.4-2.5q7.8,3.8,15.4,7.9Zm-3.4.8-15.2,4q-7.4-4.9-14.7-9.5,7.2-1.8,14.7-3.3Q496.3,515.2,503.8,519.8Zm2,1.2,11.9,7.5L502,533.1,490.4,525Zm13.7,8.6,12.1,8.1q-8.2,2.5-16.1,5.2l-11.8-8.7Zm13.3,9,12.3,8.7q-8.4,2.8-16.5,5.8l-8.5-6.7-3.5-2.7Q524.5,541,532.8,538.5Zm3-.9,16.2-4.5,12.5,8.1L548,546.3l-.5-.4Zm19.3-5.3,16.1-3.8,12.7,7.4-16.4,4.4Zm19.5-4.5,15.7-3.1,12.8,6.8-16.1,3.7ZM594,524l15.4-2.6,12.9,6.1-15.8,3.2Zm19.3-3.2,15-2.1,13,5.5-15.4,2.7Zm-2.3-1L599,514.4l14.1-1.5,12.6,4.8Zm-3.9.6L592.1,523,580,517l14.7-2Zm-18.8,3.3L573,526.9l-12.1-6.7,15.1-2.6ZM558.8,519,547,512.9l14.4-2,12.2,5.5Zm-14.4-7.3q-7.3-3.6-14.8-6.9l13.5-1.2q7.6,2.9,15.1,6.1Zm-4.1.7L525.7,515q-7.5-4.1-15-7.9l14.1-1.8Q532.6,508.6,540.3,512.3ZM508,505.8l-7.9-3.8,13.5-1.4,8.1,3.3Zm-4.1.6-14,2.5-8.2-4.4,14-2Zm-17.7,3.3L471.9,513l-8.5-5.1,14.3-2.7Zm-46.3,2.1L425.3,516l-11.2-7.8,14.3-3.6Zm-7.8-7.9,14-2.8,11.6,6.4-14.3,3.5Zm-10.4,13.3L407.3,522l-11.1-8.5,14.1-4.3ZM167.1,647.1c18.2-11.5,36-24,54.9-37.3,49.6-34.9,103.1-72.6,170.6-95l11.3,8.6q-14.5,5.3-28.7,11.8c-53.5,24.3-98.2,56.9-141.4,88.5-15.2,11.1-29.6,21.6-44.4,31.8-24.3,16.7-47.2,26.2-69.3,28.6q-4.7-6.2-9.4-12.8C128.6,667.5,147.4,659.5,167.1,647.1Zm-57.8,22.3L101,657.4l-1-1.5c14.1-3.7,28.6-10,43.9-18.7,20.8-11.9,41.5-26.1,63.5-41,49.9-34,104-70.9,171.9-91l11.4,8.1c-67.1,22.6-120.4,60.1-169.8,94.8-18.9,13.3-36.7,25.8-54.8,37.3C146.3,658,127.4,665.9,109.3,669.3ZM394.3,512.1l-11.2-8,13.6-3.6,11.5,7.3Zm-13.4-9.5-11-7.3,13-2.9,11.3,6.6Zm-3.8,1.1c-67.4,20.2-121.2,56.9-170.8,90.8-21.9,14.9-42.6,29.1-63.4,41-15.3,8.8-30,15-44.1,18.7l-9.1-13.7a201.8,201.8,0,0,0,31-13c22.8-11.7,46-27.1,70.6-43.4,50.6-33.6,105.6-70,174.5-87.7ZM97.8,654.4,90.4,656l-9-13.2,7.3-2.1ZM319,509.6c-48.9,19.6-91.4,47.8-128.9,72.6-24.5,16.3-47.7,31.6-70.4,43.3a198.8,198.8,0,0,1-31.2,13l-8.8-13.8q8.7-3.1,17.7-7.1c24.4-11,49.7-27.4,76.5-44.7,49.3-31.9,106.8-69.1,178.6-84.6l10.9,6.6A376.9,376.9,0,0,0,319,509.6ZM87.5,638.8l-7.4,2.1-8.8-13.4,7.4-2.4ZM79,641.2l-7.3,1.6-8.8-13,7.3-2ZM70,625.5l-8.3-13.3,7.5-2.6,8.3,13.5Zm-1.1.3-7.4,1.9-8.4-13,7.4-2.2ZM60.4,628l-7.4,1.5L44.6,617l7.5-1.9Zm-8.5-15.4L44.1,600l6.9-2.1.7-.2,7.7,12.7Zm-1.2.3-7.5,1.8-7.9-12.4,7.6-2Zm-7.5,4.3,8.3,12.5-7.3,1-6.6-9.5-1.7-2.6Zm9.7,14.6,8.6,12.4-7.2.5Q50,639,45.7,633Zm1.4-.2,7.3-1.6L70.4,643l-7.4,1.1Q58.7,638,54.4,631.6Zm17.4,13.3,8.9,12.5-7.3.5q-4.4-5.8-8.9-11.9Zm1.3-.3,7.2-1.6,9,13.2L82,657.3Q77.5,651.1,73.1,644.7Zm17.5,13.4,9.1,12.7-7.2.5q-4.5-5.9-9.1-12Zm1.2-.2,7.3-1.7,1.2,1.8,8,11.6-7.3,1.1Q96.3,664.4,91.7,657.9Zm17.8,13.4q4.7,6.6,9.3,12.8l-7.4.4q-4.6-5.9-9.2-12.1Zm10.6,14.5q4.7,6.2,9.3,12l-7.4-.3q-4.6-5.5-9.1-11.2Zm1.2-.1c22.1-2.6,44.9-12.1,69.1-28.8,14.8-10.2,29.2-20.7,44.5-31.9,51.6-37.7,104.3-76.2,170.6-100.6l9.2,7.4c-63,26.2-113.7,65.4-163.5,103.9-12.6,9.8-25.7,19.9-38.6,29.5-28.6,21.3-55.6,32-81.9,32.4Q126,691.9,121.3,685.7ZM408.8,523.2q7.2-2.6,14.6-4.9l9.1,6.6q-7.4,2.7-14.6,5.6Zm18.2-6q7.3-2.2,14.8-4.2l8.9,5.9q-7.5,2.3-14.8,4.9Zm18.2-5.1,14.6-3.4,8.7,5.2q-7.4,1.9-14.6,4.1Zm16.1-5.5-11.2-6.3,13.6-2.1,11.5,5.6Zm-14-7.8-10.9-5.6,12.8-1.4,11.3,5Zm-4,.7-13.6,2.8-11.1-6.4,13.3-2.1ZM426,503.2l-14,3.6-11.2-7.2,13.7-2.9ZM398.3,498l-10.9-6.5,13-2.2,11.3,5.8Zm-13.6-8-10.4-5.7,12.1-1.5,10.7,5Zm-4.4.9-12.7,2.9L357,487.3l12.4-2.3Zm-26.4-5.4-10.3-5.8,11.7-1.6,10.5,5.1Zm-4.4,1A357,357,0,0,0,298.6,502c-47.7,18.4-89.2,45.3-125.8,69-26.7,17.3-52,33.7-76.2,44.6q-9.2,4.2-18,7.2l-8.3-13.5,4-1.5c25.5-9.9,52.7-27.1,81.4-45.3,50.4-31.9,109.6-69.3,183.1-82ZM154.4,560.5c-28.6,18.1-55.7,35.3-81,45l-4.4,1.7-7.7-12.9c23.2-9.2,47.6-24.3,75.2-41.4,51.7-32.1,112.7-69.9,188.3-79.3l10.6,5.2C262.7,491.9,204.3,528.9,154.4,560.5ZM68,607.6l-7.5,2.6-7.8-12.8,7.6-2.7ZM51.4,595.2l-7.3-12.3,7.5-3.1L59,592.5Zm-1.1.4h-.1l-7.5,2.2-7.2-12,7.5-2.6ZM34.2,583.6l-7-11.9,7.4-3.1L41.7,581Zm-8.3-14.3-6.9-12.2,7.3-3.4,7.1,12.6Zm.2,2.8L33,584l-6,1.7-1.8.4-6.7-11.3Zm1.6,16,6.7-1.9,7.2,11.9-7.6,2-7.3-11.8Zm6.3,14.6,7.9,12.4-7.5,1.4-8-12.1Zm2.5,19.4,6.2,8.9-7.3.5Q31.1,625.9,27,620l7.3-1Zm7,22.6-7.1-.7q-4.2-4.9-8.3-10.1h7.1Q39.2,639.5,43.4,644.7Zm-6.4-11,7.1-.6q4.3,6,8.5,11.7H45.4Q41.2,639.5,36.9,633.7Zm17.2,13.2q4.3,5.7,8.5,10.9l-7-.7q-4.2-4.9-8.5-10.2Zm1.8-.1,7.1-.6q4.4,6.1,8.7,11.8H64.6Q60.3,652.6,55.9,646.9Zm17.3,13.2q4.4,5.7,8.6,11l-7-.7q-4.3-4.9-8.6-10.2Zm1.6-.1,7.2-.6q4.4,6.1,8.9,11.9H83.8Q79.4,665.8,74.9,660Zm17.6,13.2q4.4,5.6,8.8,11l-7.1-.8q-4.3-4.9-8.7-10.2Zm1.5-.1,7.1-.6q4.5,6.1,9.1,11.9l-7.1-.2Q98.4,678.9,93.9,673.1Zm17.6,13.2q4.5,5.7,8.9,11l-7.1-.9q-4.4-5-8.8-10.2ZM122,699.2q4.3,5.1,8.7,10l-3-.6-4-1q-4.3-4.4-8.5-9.1Zm1.5.1,5.6.2h1.6q4.6,5.7,9.1,11.1l-7.4-1Q128,704.6,123.5,699.3Zm17.8,13q4.4,5.2,8.8,10h-.6l-6.8-1.6q-4.3-4.4-8.6-9.1Zm-.1-1.7q-4.6-5.4-9.3-11.2c26.2-.7,53.1-11.6,81.5-32.7,13-9.6,26-19.8,38.7-29.5,49.9-38.6,100.7-77.9,163.9-104q6.9,5.7,13.7,11.6c-68.2,29.8-122,72.8-177.5,117.3l-16.5,13.2C202.8,701.5,171.7,713.2,141.3,710.7ZM419.4,531.8q7.3-2.9,14.7-5.6,7.1,5.4,14.1,11-7.8,3-15.3,6.2Q426.2,537.4,419.4,531.8Zm18.2-6.8q7.4-2.6,14.9-4.9,7.3,5,14.5,10.3-7.9,2.6-15.5,5.5Q444.5,530.3,437.6,525Zm18.1-5.8q7.3-2.2,14.8-4.1,7.5,4.6,14.9,9.6-7.8,2.3-15.4,4.7Q462.9,524.1,455.7,519.2Zm31.5,6.7L499,534q-8,2.6-15.8,5.3l-11.5-8.8Q479.3,528.1,487.2,525.9Zm13.3,9.3,11.9,8.7q-8.2,2.9-16.2,6l-3.5-2.9-8.1-6.5Q492.5,537.7,500.6,535.1Zm13.1,9.6,12.1,9.4q-8.4,3.2-16.6,6.6l-11.9-10Q505.3,547.6,513.6,544.7ZM527,555.1l11.9,9.7q-8.6,3.5-16.9,7.2l-11.7-10.3Q518.5,558.3,527,555.1Zm2.8-1q8.2-3,16.7-5.8l12.1,9q-8.6,3.1-16.9,6.4Zm19.6-6.7,16.6-5.1,12.2,8.4q-8.6,2.7-16.9,5.6Zm25.7-1.8-6.1-4.1,16.5-4.4,12.4,7.8-16.9,5Zm13.7-9.3,16.2-3.8,12.6,7.2L601,544Zm19.6-4.5,16-3.2,12.9,6.6-16.4,3.7Zm19.5-3.8,15.7-2.7,13.1,6-16.1,3.2Zm19.4-3.3,15.2-2.2,13.3,5.4-15.7,2.8Zm19.2-2.7,14.4-1.8,13.6,4.8-15,2.3Zm15.8-3.3-12.4-4,3.4-.3h.2l14,3.7Zm-22.4,2.8-14.9,2.2-12.6-5.4,14.3-1.6Zm-30.1-4.3-12-4.7,13.3-1,12.6,4.1Zm-15.3-5.9-11.2-3.9,11.9-.5,11.9,3.4Zm-4.8.5-13.6,1.5-11.5-4.7,13.1-.9Zm-17.9,2-14.3,2-11.8-5.4,13.9-1.4Zm-29-4.7q-7.1-3.1-14.2-5.8l13-.6q7.3,2.3,14.4,5Zm-18.1-7.4-7.2-2.6,11.5-.3,7.7,2.3Zm-5.4.4-12.8,1.2-7.6-3.2,12.5-.8Zm-24.1-3.5-10-3.9,11.1-.2,10.5,3.3Zm-5.3.5-12.8,1.4-10.7-4.7,12.4-.8Zm-17.2,2-13.4,2.1-11-5.5,13.1-1.4Zm-27.7-5-10.6-4.8,12.1-.8,10.9,4.1Zm-14.6-6.5-9.5-3.9,10.6-.2,9.9,3.2Zm-5.3.5L433,491.5l-10.3-4.8,11.7-.8Zm-16.6,2.1-12.8,2.1L405,488.6l12.5-1.5ZM401.8,487l-10-4.8,11.4-.8,10.3,4.1Zm-14.2-6.8-9.1-3.9,9.9-.2,9.5,3.3Zm-5.4.6-11.4,1.6-9.8-4.9,11.1-.9Zm-25.4-5.3-9.1-4,9.6-.3,9.4,3.4Zm-5.6.7-10.9,1.6-9.9-5,10.6-.9Zm-25-5.5-8.9-4.1,9.3-.3,9.2,3.4Zm-5.6.7c-74.3,10.3-134.4,47.5-185.4,79.2-27.7,17.2-52.1,32.3-75.2,41.4l-7.4-12.8c19.7-8.7,40.8-21.5,64-35.7,53.1-32.4,116.1-70.8,194-76.5ZM115.2,541.4c-23.3,14.2-44.3,27-64,35.7l-7.3-12.8c16.2-7.9,33.5-18.3,52.1-29.4,54.6-32.7,119.8-71.8,200.1-73.4l9.1,3.5C229.2,472,167.4,509.6,115.2,541.4ZM50.3,577.5l-7.5,3.1-7.1-12.4,7.4-3.4Zm-16-11.7-7.1-12.6,7.3-3.7,7.2,12.9Zm-8.5-15L18.8,538l7.3-3.9,7.1,13Zm-1,.5-7.3,3.4-7-12.5,7.2-3.7Zm-7.1,6.4,6.9,12.1-7.6,2.6-6.7-11.6Zm-.5,17.5,6.7,11.2-7.7,1.7L9.6,577.2Zm8.1,13.5,7.3,11.8L25,602.2l-7.4-11.8Zm7.5,28.1-7.4,1-3.8-5.6L17.4,606l7.5-1.3Zm.6,14.8H26.1Q22,626.3,18,620.8l7.3-.6Zm.4,12.1-6.7-1.2q-4-4.4-8-9.1l6.7.5Q29.8,638.9,33.8,643.7Zm2.1,2.5,7.6,8.7L39,653.6l-1.8-.6q-3.8-3.8-7.6-7.8Zm2.3.3,6.9.5q4.1,5.1,8.1,9.9l-7-1.3Q42.3,651.1,38.2,646.4Zm17,12.8,7.7,8.7-1.6-.4-5-1.6q-3.8-3.8-7.6-7.8Zm2.4.3,6.7.5q4.2,5.1,8.3,9.9l-6.7-1.3Q61.8,664.2,57.7,659.5Zm16.9,12.7,7.9,8.7L76.2,679q-3.9-3.8-7.9-7.9Zm2.3.3,6.7.6q4.2,5.2,8.4,10l-6.8-1.4Q81.1,677.3,76.9,672.5Zm17,12.7,8,8.8-6.4-2-7.9-7.9Zm2.2.3,6.8.6q4.3,5.1,8.6,10l-5.7-1.2-1.2-.3Q100.3,690.3,96.1,685.5Zm17.3,12.7,8.1,8.8-6.6-2.1q-4-3.8-8.1-7.9Zm10.4,11.1,7.3,7.3-6.2-2.7-7.1-6.3Zm2.2.5,1.5.4,5.1,1,8.2,8.8-6.7-2.2Zm16.9,12.3,7.4,7.3-6.3-2.8-7.1-6.3Zm2.1.6,4.4,1,2.6.5,8.4,8.8-7.3-2.5Zm6.9-.1q-4.5-4.9-9-10.2l6.6.2c28.3,0,57-11.9,87.4-36.1l16.5-13.2c55.6-44.5,109.5-87.7,177.9-117.4l11.3,10.2c-69.8,32.7-124.4,79-183.6,129.1C221.8,716.7,186.7,729,151.8,722.6ZM438.5,548.3l-4.2-3.7q7.6-3.2,15.4-6.2l11.5,9.5q-8,3.3-15.7,6.9ZM453,537.1q7.7-2.9,15.6-5.5l11.6,8.8q-8.1,2.9-15.9,6.1Zm28.7,4.4,11.7,9.4q-8.2,3.2-16.2,6.8l-11.5-10Q473.6,544.5,481.7,541.5Zm12.8,10.3,12,10.1q-8.4,3.6-16.5,7.4l-11.7-10.7Q486.2,555,494.5,551.8Zm13.1,11,11.8,10.3q-8.5,3.9-16.8,8l-11.6-11Q499.1,566.4,507.6,562.8Zm12.8,11.2,11.8,10.8L521,590.5l-5.8,3-11.7-11.4Q511.8,577.9,520.4,574.1Zm2.7-1.2q8.3-3.7,17-7.2l12,10.1q-8.7,3.8-17.2,7.8Zm19.7-8.3q8.3-3.3,17-6.4l12.2,9.5q-8.8,3.4-17.2,7Zm19.8-7.4q8.3-2.9,17-5.6l12.4,8.9q-8.8,3-17.3,6.2Zm19.9-6.5,17-5L612,554l-17.3,5.5Zm20-5.8,16.7-4.3,12.9,7.8-17.2,4.8Zm19.9-5.1,16.6-3.7,13.1,7.2-17,4.3Zm19.9-4.4,16.3-3.2,13.4,6.6-16.8,3.8Zm19.8-3.9,15.9-2.8,13.6,6-16.4,3.3Zm19.5-3.3,15.4-2.3,13.9,5.4-15.9,2.9Zm31.2,3.9,14.1,6-16.6,3.4-13.5-6.5Zm3.4-.6,8.4-1.4,14.7,5.5-9.2,1.8Zm24.8,4.8c68.9,27.3,135.8,67.6,201.3,107.1,27.6,16.6,54.7,33,81.6,48.2l-9.3,13.6c-33.2-19-66.6-40.4-100.6-62.2-59.3-38-119.8-76.8-182.4-104.8ZM1026.4,693l21.3,11.7-9.8,13.4q-10.4-5.6-20.8-11.5Zm1-1.4q6.8-10.2,13.7-20.9l22.1,12.1q-7.2,10.7-14.4,20.6Zm38.3-7.5,21.1,11.1q-7.6,10.4-15.1,20.1-10.1-5.1-20.3-10.6Q1058.5,694.7,1065.7,684.1Zm.9-1.3q5.6-8.2,11.2-16.9l21.8,11.3q-5.9,8.6-11.8,16.7Zm35.4-4.3,22,11q-6.3,8.4-12.5,16.4l-21.3-10.7Q1096.1,687,1102,678.4Zm24.4,12.2,21.7,10.4q-6.2,7.7-12.3,14.9l-.8.9q-10.5-4.7-21.1-9.8Q1120.2,699,1126.5,690.6Zm.9-1.3q5.9-8,11.8-16.4l22.4,10.7q-6.3,8.3-12.5,16.1Zm36.6-4.6,22.3,10.2q-6.6,8.1-13.1,15.6-10.8-4.7-21.6-9.7Q1157.8,693,1164,684.7Zm24.6,11.2,22.1,9.5-3.5,3.9q-5.1,5.7-10.3,11-10.7-4.2-21.4-8.8Q1182.1,704,1188.6,696Zm.9-1.1q6.2-7.7,12.5-15.9l22.8,10q-6.6,7.9-13.2,15.4Zm37.6-4.8,22.6,9.5-6.5,7.1-7.3,7.6q-10.9-4.2-21.9-8.8Q1220.6,697.9,1227.2,690Zm17.7,18.1,7.1-7.7q11.2,4.5,22.4,8.8-7.2,7.2-14.5,13.8-10.8-3.7-21.7-7.9Zm31.7,1.9q11,4.1,22,7.9-7.6,6.6-15.1,12.6-10.6-3.2-21.2-6.8Q1269.4,717.1,1276.6,709.9Zm1-1,3.4-3.4q5.2-5.3,10.4-11l22.8,8.8q-7.3,7.1-14.6,13.5Q1288.8,713,1277.7,708.9Zm38.9-4.8q11.4,4.2,22.6,8.1-7.6,6.5-15.2,12.4-10.9-3.3-21.8-7Q1309.4,711.2,1316.6,704.1Zm24.7,8.8q11.3,3.8,22.5,7.3-7.9,5.9-15.8,11.1-10.8-2.7-21.7-6Q1333.8,719.4,1341.3,712.9Zm24.7,7.9q11.8,3.6,23.4,6.6-7.9,5.1-16,9.5-11.4-2.3-23-5.1Q1358.2,726.7,1366,720.9Zm25.3,7.1q10.5,2.7,20.9,5-8.4,4.2-16.9,7.8-9.8-1.4-19.7-3.3Q1383.5,733.1,1391.3,728Zm23.1,5.5c6.9,1.5,13.7,2.8,20.5,3.9q-8.6,3.3-17.2,5.8-9.7-.8-19.6-2.1Q1406.2,737.7,1414.3,733.5Zm1.7-.9q8.2-4.3,16.3-9.3,11.1,3.1,22.1,5.7-8.6,4.2-17.3,7.5Q1426.7,734.9,1416,732.6Zm40.9-3q10.7,2.5,21.2,4.5-8.8,3.2-17.8,5.6-8.6-.9-17.5-2.2l-2.6-.4Q1448.6,733.7,1456.9,729.6Zm25.9,11.7q-9-.3-18.3-1.2,8.3-2.4,16.5-5.4l4.8.9,15,2.3Q1491.9,739.9,1482.9,741.3Zm7.3.2q7.3-1.3,14.6-3.1,8.7,1.1,17.1,1.8A280.9,280.9,0,0,1,1490.2,741.4Zm37.6-2c-6.6-.4-13.3-1.1-20.1-1.9q8.5-2.2,16.8-5l6.6,1.4,14.6,2.7Q1536.9,738.3,1527.8,739.5Zm5.9.3q7.6-1.1,15-2.7,9.2,1.5,18,2.5A292.6,292.6,0,0,1,1533.7,739.8Zm38.3-.6q-10.1-1-20.6-2.7c5.6-1.3,11.2-2.7,16.7-4.4,41.6-12.8,77.7-36.8,110.4-73.5,30-33.6,54.2-80.4,75.7-134.6l20.2,25.9c-19.2,54.8-41.5,99.7-69.8,127.9C1667.8,714.4,1624.6,734.6,1572,739.1Zm159.6-41.4c-39.6,33.9-89.3,47.6-154.2,41.9a232.8,232.8,0,0,0,26.8-4.5c38.8-8.9,71.8-27.5,101.1-56.6s50.6-73.1,69.8-127.7l21,26.5C1777.3,637.8,1756.6,676.4,1731.6,697.8Zm70.8-141.2c-1.7,6-3.4,11.7-5.1,17.3l-20.9-26.4q3.7-10.7,7.3-22l20.7,24Zm2.9-10.4-20.6-23.9q3.5-11.1,6.9-22.7l20.2,21.2Q1808.6,533.8,1805.3,546.2Zm7.3-28.5-20.1-21.1q3.4-11.6,6.7-23.5l19.5,18.4Q1815.8,504.7,1812.6,517.6Zm6.8-29.3L1800,470q3.3-11.9,6.5-24.1l18.8,15.4Q1822.4,475,1819.5,488.3Zm6.4-29.8-18.7-15.3q3.2-12.1,6.3-24.5l18,12.4Q1828.7,445,1825.9,458.5Zm6.1-30-17.9-12.3q3.1-12.3,6.1-24.8l17.1,9.4Q1834.7,414.7,1832,428.4Zm5.8-30.1-17-9.4,6-24.9,16.3,6.5Q1840.5,384.5,1837.8,398.3Zm5.7-30.1-16.2-6.5,5.9-25,15.3,3.7Zm7.2-38.8-1.6,8.9-15.2-3.7.6-2.7,5.3-22.1,14.4.9Zm3.8-20.7-14.3-.9,5.9-24.6,13.5-1.7Zm5.4-29.2-13.4,1.7,5.9-24.2,12.5-4.3Q1862.4,266.2,1859.9,279.5Zm5.5-28.8-12.4,4.3q2.9-11.8,5.9-23.5l11.6-6.7Q1867.9,237.7,1865.4,250.7Zm5.5-28.3-11.4,6.6q2.9-11.5,5.9-22.9l10.6-9Q1873.4,209.7,1870.9,222.4Zm5.6-27.9-10.4,8.8q2.9-11.2,6-22.4l9.6-11Q1879,182.2,1876.5,194.5Zm5.7-27.2-9.4,10.7q2.8-10.2,5.7-20.3l8.7-12.9Q1884.7,156,1882.2,167.3Zm5.9-26.7-8.2,12.1q2.8-9.8,5.7-19.5l7.4-14.1Q1890.6,129.8,1888.1,140.6Zm15.2-62.5-2.8,11-3.7,8.4Q1900,87.7,1903.3,78.1Zm-10.7,32.4,6-14.2q-2.3,9.1-4.5,18.3l-6.6,12.3Q1890.1,118.7,1892.7,110.5Zm-4.9,12-2.9,9.6-3.7,7.2Q1884.4,130.8,1887.8,122.5Zm-11,28.4,6.2-12.3q-2.5,8.6-5,17.2l-6.9,10.7Zm-5.4,11-3.4,9.2-4.1,6.6Zm-12.8,27.5,7-11.5-5.2,14.8-7.4,9.1Zm-5.6,9.3-3.1,7-3.8,4.8ZM1841.3,219l6.5-8.4-6.2,14.5-7.7,7.2Zm-6.5,8.5-4.4,8-5.2,5Zm-15.2,20.9,8.3-8.1-6.5,12.1-8.6,5.7Zm-5.9,6-4.2,6-4.9,3.3Zm-15.4,16,8.3-5.8-6.8,10-8.8,3.6Zm-6.8,4.8-4.2,4.5-4.8,2.1ZM1776,286.8l8.3-3.7-7.4,8.2-9,1.7Zm-7.6,3.5-4.6,3.6-5.2,1.1Zm-16.9,8.2,9-2-7.7,6.3h-9.4Zm-7.4,1.8-4.7,2.5h-5.3Zm-18.5,5,9.8-.3-7.5,4.3-9.6-1.7Zm-8.2.4-3.4,1.1-3.8-.6Zm-16.6,1.5,8.6,1.2L1702,311l-8.8-2.8Zm-9.6-1-3,.5-3.5-1Zm-17.4-1.1,9.1,2.5-7.3,1.4-9-4Zm-9.9-2.4h-2.5l-2.8-1.1Zm-18.3-3.5,9.6,3.6-6.3.3-8.8-4.7Zm-10.8-3.7h-.4l-.5-.2Zm9.6,8-7.6.8-10.9-7.3,7.3.6ZM1619.5,291l8,3.8-5.6-.3-7.6-4.8Zm-2.7,3.3h-7.1l-10.1-7.5,6.9,1.3Zm-24.5-14.3,7.8,4.3-5-.8-7.1-4.9Zm-13.1-4.1,10.2,6.9-6.6-.7-9.8-7.9Zm-14-8.8,7.3,4.5-4.2-1-6.4-4.9Zm-13-5,9.8,7.2-6.1-1.1-9.4-8Zm-13.8-9.5,6.5,4.4-3.5-1.1-5.7-4.6Zm-13.4-5.9,9.5,7.4-5.7-1.3-9-8.1Zm-14.4-10.5,6.4,4.6-2.8-1-5.2-4.4Zm-3.8,1.2c-22.2-6.6-44-8.5-65.4-4.6-55,10-101.5,57.5-142.2,145-41.6,89.8-81.1,165.1-119,227.4l-25.6-9.9c38.1-65.1,77.9-143.5,120-236.3,39.9-87.7,85.5-134.5,139.6-143.1,27-4.3,54.8,1.3,83.2,14Zm-17.6-14.1c-25.6-10-50.7-14.1-75.3-10.2-26.4,4.2-51.3,17.7-74.1,40.2-24.3,24-47,59.2-67.7,104.5q-63,138.6-120.1,236.4l-25.4-9.5c38.3-68.1,78.5-149.6,121.1-245.7,39.7-88.8,85.3-135.6,139.5-143,29.3-4.1,61.3,3.7,96.8,23.6Zm-268.3,95.7c39.4-89.9,84.8-136.9,139-143.6,32-3.9,67.2,6.5,106.4,31.9-28.6-12.9-54.9-17.6-79.4-14.2-26.5,3.7-51.5,17-74.3,39.5s-47,59.4-67.5,105.2q-63.8,143.6-121.3,245.9l-26.2-9.3C1136.4,503.2,1177.3,418.5,1220.9,318.9ZM1097.2,575.1l26.2,9.4-7.4,12.9-25.5-10.2Zm-2.9-1-6.6,12c-35.3-13.8-70.7-26.4-106.1-36.8-41-12-79.2-20.2-115-24.5C940.9,527.8,1017.4,547.5,1094.3,574.1ZM854.4,524.4c76.6,7.5,154.8,32.2,232.8,62.6l-7.5,13.3c-78.3-33.9-157.4-63.7-235.6-76Zm-10.9-1h-4.9l-4.6-.7Zm-24.3-1.2,11.8,1.4-10.4.5-11.1-2ZM806.9,521h-3.6l-3.6-.5Zm-22.5-1.3,11.1,1.5-9.8.4-10.4-2Zm-13.7-1.4h-2.3l-2.2-.4ZM749.8,517l10.4,1.5-9.2.3-9.8-2Zm-14.4-1.6H734l-1.3-.2ZM715.7,514l9.8,1.5-8.6.3-9.2-2Zm-15.1-1.8h0Zm10.3,3.9-11.6.9-7.1.7-13-3.6q9.8-.5,19.6-.5Zm-19.6-3.8q-8.3.2-16.6.7l-11.3-2.7q9.3,0,18.6.5Zm-25.1-3.5h-9.6l-7.6-1.5Q657.6,507.8,666.2,508.7Zm-17.8,1.8L661,514l-12.7,1.2-11.7-4,10.7-.6Zm-16.5-3.8,11.3,2.6-10.7.6L622,506.7Zm-9-1.6h-6.4l-5-1.3Zm-23.2-2,9.9,2.3-10.6.5-10.6-3.3,6.6.2Zm-17-3.4,6.7,1.2-7.6-.2-5.5-1.5Zm-2.4,2.8,13,3.8-12.3.9-13-4.7Zm-6.7-1.8-10.4.2-6.6-2.1h9.6Zm-23.5-5.1,7,1.3h-6.6l-6.3-1.7Zm-16.6-.9,9.3,2.3-9.9.4-8.8-2.9Zm-16.6-3.4h.7l6.2,1.2h-6.1l-5.6-1.6Zm-16.1-.9,8.8,2.3-9.4.3-8.4-2.9Zm-6.9,2.9-11.4.8-9.8-3.9,11-.2Zm-8.7-6.4,5.4,1.1H485l-5-1.5Zm-16.8-1.1,8.5,2.3-9.2.3-8.1-2.8Zm-15.5-3.5,5,1h-5.1l-4.6-1.4Zm-16.5-1.1,8.2,2.2-8.8.3L428,481Zm-15.5-3.6,4.7,1h-4.6l-4.3-1.4Zm-1.1,3.3,9.6,3.2-10.6.9-9.2-3.9Zm-15.2-4.5,8,2.2-8.4.3-7.6-2.8Zm-15.3-3.7,4.5,1h-4.2l-4.2-1.4Zm-16-1.2,7.9,2.3-8.1.3-7.5-2.9Zm-15.1-3.8,2.2.5,2.2.5h-4l-4-1.3Zm-15.8-1.2,7.8,2.3-7.8.4-7.4-2.9Zm-14.8-3.8,4.1,1h-3.8l-3.9-1.3Zm-15.7-1.1,7.5,2.3-7.5.4-7.3-2.9Zm-14.6-3.9,3.9,1h-3.7l-3.8-1.3Zm-15.3-1.1,7.1,2.3c-77.7,3.6-141.1,41.6-194.5,73.5C76.1,543.7,58.8,554.1,42.6,562L35.4,549c12.6-6.6,25.8-14.4,39.7-22.6,56.2-33.1,123.8-73,206.7-69.7Zm-10.8-3.1c-78.8.3-143.4,38.4-197.5,70.3-14,8.2-27.2,16-39.7,22.6l-7.1-13c8.7-4.8,17.6-10,26.9-15.4,57.9-33.6,128.1-74.4,213.7-65.4Zm-239,56.5c58-33.2,128.4-73.5,213.4-61.6-76.5-.7-140.1,36.2-193.3,67.1-9.3,5.4-18.2,10.6-26.8,15.3l-7-13Zm-14.6,8.3,7,13-7.3,4-7-12.9ZM2.2,527l7.2-3.9,7,12.9-7.3,3.7Zm0,19.2,7.3-3.5,6.9,12.4L9,558.3Zm-.5,17.6,7.5-2.7,6.7,11.5q-3.9,1.2-7.7,2ZM.2,579l4.1-.7,3.8-.7,6.6,10.8L7,589.8Zm8.2,13.2,7.7-1.5,7.4,11.8L16,603.8Zm-.2,15,7.5-.9,4.5,6.8,3.3,4.9-7.4.5ZM9,620.9h7L24,631.4l-7-.6Q13,626,9,620.9Zm7.6,12.2,7.5,8.7-6.6-1.9q-3.7-3.7-7.5-7.8Zm-15.3-3L7,631.5l6.6,7.1-5.7-2.3Zm16.5,14.5-5-4,2.9,1,1.3.4,4.9,4.8Zm3-1.4,5.9,1.5,6.7,7.1-6-2.4Zm16.6,14.4-5.2-4.1,4.5,1.6,5.2,5Zm9.4,6.7H47Zm-6.4-8.2,5.6,1.4,6.8,7.1-5.6-2.2Zm17.1,14.7-5.5-4.4,4.2,1.5,5.3,5Zm2.1-1.8,1.3.4,4.6,1.2,7,7.2-6-2.4Zm16.6,14.2-5.1-4,4.6,1.7,5.3,4.9Zm9.2,6.6.4.2.4.4Zm-6.1-7.8,3.9,1.1,1.7.4,7.1,7.2-5.6-2.3Zm17.4,14.7L90.8,692l4.3,1.6,5.5,5.1Zm1.8-1.9,5.7,1.6,7.3,7.3-5.8-2.5Zm17,14.4-5.5-4.3,4.5,1.7,5.4,5Zm8.9,6.3h.2l.3.2Zm10.5,6.5-5.7-4.4,4.7,1.8,5.7,5.2Zm8.4,6,.8.4,1,.8Zm10.3,6.4-5.4-4.3,4.9,2,5.8,5.3Zm8.3,6,1.3.6,1.6,1.3Zm8,2.1-7-3.1-7.2-6.3,6.6,2.1Zm277-170.3C385,604.8,333.7,649,282.2,695.2c-38.1,34.2-74.4,47.5-110.9,40.6-3-.6-6-1.3-9.1-2.2q-4.3-4.4-8.7-9.1c34.8,5.6,69.6-6.9,106.5-38.1,59.2-50.2,113.9-96.5,183.8-129.2L455.2,568Zm-.1-16.4q7.8-3.6,15.8-6.9L474.2,559q-8.1,3.6-16.1,7.5Zm12.3,11.6q7.9-3.9,16.1-7.6L487,570.6q-7.8,3.7-15.4,7.7l-1,.5Zm12.5,12.3q8.1-4.2,16.5-8.2l11.7,11.1q-8.4,4.3-16.6,8.9ZM484,592.5q8.2-4.6,16.7-8.9L512.5,595q-8.5,4.6-16.9,9.6Zm24.2,25.8-11.9-12.9q8.3-5,16.9-9.6l12.1,12.1Q516.7,612.8,508.2,618.3Zm19.7-11.9-12-12.1q8.4-4.5,17.1-8.7L545,596.9Q536.4,601.4,527.9,606.3Zm19.7-10.7-12-11.3q8.4-4,17.2-7.8L565,587.2Q556.1,591.3,547.6,595.6Zm20-9.6-12-10.6q8.5-3.6,17.3-6.9l12.2,10Q576.2,582.1,567.6,586Zm20.2-8.6-12.2-9.9q8.5-3.2,17.4-6.2l12.4,9.3Q596.4,573.9,587.7,577.4Zm20.3-7.7-12.3-9.3,17.4-5.5,12.6,8.8Q616.7,566.5,608.1,569.6Zm20.5-6.9L616.1,554l17.2-4.8,12.9,8.2Zm20.5-6.2-12.7-8.2,17.1-4.3,13.1,7.6Zm20.5-5.6-13-7.6,16.9-3.8,13.5,7.1Zm7.1-12.1,16.6-3.3,13.7,6.5-17.1,3.8Zm319,192.2L987,742.5c-46.8-25.6-93.8-59.4-141.9-94-50.1-36.1-101-72.7-154-101.8l17.2-3.8c58.3,28.7,114.4,66.9,169.5,104.3,41.3,28.1,81.8,55.6,122,78.4Zm5.4-7.3c-40.2-22.8-80.8-50.3-122.1-78.4-54.5-37-109.9-74.7-167.5-103.4l16.8-3.4c63.4,28,124.5,67.2,184.6,105.7,34,21.8,67.4,43.2,100.6,62.2Q1007.2,715.5,1001.1,723.9Zm22.8,12.4q-10.1-5.2-20.2-10.9,6.1-8.4,12.3-17.3,10.4,5.9,20.8,11.5Q1030.3,728.2,1023.9,736.2Zm21.7,10.7q-9.5-4.4-19-9.3l6.8-8.6,6.1-8q9.8,5.2,19.6,10.1Q1052.3,739.3,1045.6,746.9Zm14.6-17.3q-9.9-4.9-19.7-10.1l9.8-13.4q10.2,5.4,20.3,10.5Q1065.4,723.3,1060.3,729.6Zm22.5,10.6q-10-4.4-20-9.3l4.7-5.9,5.5-7q10.2,5.1,20.4,9.9Q1088.2,734.2,1082.8,740.2Zm11.9-13.7q-10.2-4.8-20.5-9.9,7.5-9.7,15.1-20.1l21.3,10.6-10,12.4Zm22.8,10.1q-10.1-4.2-20.2-8.9,7.8-9.3,15.7-19.4,10.5,5.1,21,9.8Q1125.7,727.8,1117.5,736.6Zm22.5,8.9q-10-3.7-20-7.8,8.2-8.8,16.4-18.4,10.4,4.7,20.8,8.9Q1148.6,737.2,1140.1,745.4Zm18.3-18.6q-10.4-4.3-20.9-8.9l.3-.4q6.4-7.5,12.7-15.5,10.8,5,21.5,9.7l-.7.8Q1164.9,720,1158.4,726.9Zm23.1,8.9q-10.3-3.7-20.6-7.9,6.2-6.6,12.4-13.7l1.2-1.4q10.7,4.6,21.3,8.8Q1188.6,729,1181.5,735.8Zm22.9,7.6q-10.2-3.1-20.4-6.7,7.1-6.8,14.2-14.2,10.5,4.1,21,7.8Q1211.8,737.2,1204.4,743.4Zm16.2-14.3q-10.6-3.7-21.2-7.9L1209,711l4-4.5q10.9,4.6,21.8,8.8Q1227.7,722.5,1220.5,729.2Zm23.3,7.6q-10.4-3.1-20.9-6.8,7.1-6.6,14.2-13.9,10.8,4.1,21.6,7.9Q1251.3,730.7,1243.8,736.8Zm22.8,6.2q-10.1-2.5-20.3-5.5,7.4-6,14.7-12.7,10.6,3.6,21,6.8Q1274.4,737.6,1266.6,743Zm22.8,4.9q-9.9-1.8-19.9-4.2,7.6-5.4,15.2-11.4,10.4,3.1,20.7,5.7Q1297.4,743.3,1289.4,747.9Zm17.6-11q-10.4-2.6-20.9-5.7,7.5-6,14.9-12.6,10.9,3.7,21.7,7Q1314.9,731.6,1307,736.9Zm23.2,5.1q-10.3-2-20.7-4.5,7.7-5.3,15.5-11.2,10.8,3.2,21.5,6Q1338.4,737.5,1330.2,742.1Zm25.4,4q-11.2-1.4-22.6-3.5,8-4.5,15.8-9.7,11.4,2.9,22.6,5.2Q1363.6,742.4,1355.6,746Zm3,.3q7.7-3.6,15.3-7.9,9.5,1.9,19,3.3-8.3,3.4-16.8,6.1Q1367.3,747.4,1358.6,746.4Zm21.5,1.7q7.8-2.6,15.6-5.9,9.2,1.3,18.4,2.1-8.3,2.3-16.6,4Q1388.7,748.5,1380,748.1Zm26.1,0q6.3-1.5,12.5-3.4,7.2.5,14.3.8A259.4,259.4,0,0,1,1406.1,748.1Zm16.1-4.5q8-2.5,15.9-5.7l4.6.7,14.5,1.9q-8.4,2.2-16.9,3.7Q1431.3,744.2,1422.2,743.6Z" transform="translate(0 -19.8)" style="fill:#d14a43"/></svg>