<svg id="87058521-d799-4793-8db2-bdd5b11e48a2" data-name="футер" xmlns="http://www.w3.org/2000/svg" viewBox="0 0 1930.8 696.4"><title>prefooter-bg</title><rect width="1930.8" height="696.4" style="fill:#3a4151"/><path d="M1707,629c26-35,64.4-108.2,113-200.9,16.3-31,33.6-64.1,51.9-98.3,17.9,21.8,35.8,44.4,53.6,67.3v-4.9c-17.3-22.2-34.6-44.1-52-65.2l2.7-5c16.5,18.1,33,36.9,49.3,55.9v-4.5c-15.9-18.4-31.9-36.6-47.9-54.2l2.8-5.2c15,14.7,30.1,30,45.1,45.5v-4c-14.6-15-29.1-29.8-43.7-44l2.8-5.3c13.6,11.6,27.3,23.7,40.9,36v-3.6c-13.2-11.9-26.4-23.5-39.6-34.8l2.9-5.4c12.2,8.9,24.4,18,36.6,27.4v-3.3c-11.8-9-23.6-17.9-35.4-26.4l3-5.5c10.8,6.4,21.6,13.1,32.4,19.9v-3c-10.4-6.5-20.8-13-31.2-19.1l3-5.6c9.4,4.3,18.8,8.8,28.2,13.4v-2.7c-9-4.4-18-8.7-27-12.8l3.1-5.7q12,3.8,23.9,8v-2.4l-22.8-7.6,3.1-5.8,19.7,3.7v-2.2l-18.6-3.5,3.1-5.7,15.4.5v-2.1l-14.3-.5,3.1-5.7,11.2-1.3v-2l-10,1.2,3.1-5.6,6.9-1.9v-2l-5.6,1.5,3-5.4,2.6-1.1v-2l-1.1.5,1.1-2V227l-1.2.7,1.2-1.9v-3l-.4.4.4-.6v-3l-4.1,4.8-9.4,9.2-9.6,7.8-9.4,6.1-9.5,4.6-9.5,3.1-9.7,1.8-9.6.4-9.8-.9-10-2.1-9.8-3.3-9.7-4.3-10.3-5.7-10.2-6.7-11.7-8.7-9.7-8.1c-67-62.9-123.7-90.5-173.2-84.3-26.7,3.3-51.8,16.7-74.7,39.7s-47,60.7-67.4,107.7c-46.7,107.8-90.2,200.9-130.8,280.3-29.3-15.8-60.1-30.6-92.3-42.5-75.7-28-147.6-35.8-219.6-23.7a201.9,201.9,0,0,0-51.7,16,203,203,0,0,0-28.9,10.8A201.5,201.5,0,0,0,906,532.4a200.2,200.2,0,0,0-28.9,10.5,199.2,199.2,0,0,0-29,10.4,198.4,198.4,0,0,0-28.8,10.2,195.8,195.8,0,0,0-21.8,7.2,189.8,189.8,0,0,0-49.3,16.9q-8.6,2.8-16.8,6.4a200.6,200.6,0,0,0-28.7,9.7,202.3,202.3,0,0,0-29.4,9.7,204.8,204.8,0,0,0-29.6,9.6,208.3,208.3,0,0,0-29.8,9.5,212.6,212.6,0,0,0-29.9,9.3,218.2,218.2,0,0,0-30.6,9.3,224.6,224.6,0,0,0-30.2,8.8,232.3,232.3,0,0,0-31.1,8.7,241.8,241.8,0,0,0-31.4,8.5,253.8,253.8,0,0,0-32,8.2,264.6,264.6,0,0,0-26.9,6.2h18l8.8-3.1,6.1-1-8.6,4h6.6c4-1.9,8-3.7,12.1-5.4l9.6-.8-11.2,6.2h5.6c4-2.2,8.1-4.4,12.2-6.5h11.3l-10.4,6.6h4.8l10.5-6.5q6.1.2,12.3.8l-7.9,5.7H486l7.4-5.2q6.4.7,12.9,1.9l-4.2,3.4h4l3.5-2.8q6.3,1.2,12.8,2.8h11.5l-5.3-1.5q5.9-5.1,12-10,6.6,1.2,13.4,2.9l-9.1,8.6h3l8.5-8,4.8,1.3,9.4,2.8-3.8,3.9h2.7l3.1-3.2,9.9,3.2h9q5.7-6.4,11.6-12.5l14.8,4.8-6.6,7.7h2.4l6.1-7.1,13.8,5-1.6,2.1h2.2l1.1-1.4,3.7,1.4h7.6l-9.4-3.8q5.5-6.9,11.2-13.7,8.7,2.9,17.3,6L657,691.6H659l8.3-10.8q8,3,15.9,6.3l-3.3,4.5h1.9l2.8-3.9,9.2,3.9h6.7l-14.2-6.2q5.5-7.5,11.2-14.8,8.1,2.9,16,6.1-5.3,7.4-10.4,14.9h1.8q5-7.3,10.1-14.4,8.2,3.3,16.3,6.9l-4.9,7.5H728l4.6-6.9,14.8,6.9h6l-1.6-.8q5.4-8.6,10.9-17,8.5,3.7,16.7,7.6l-6.2,10.3h1.3l5.9-9.8q8.6,4.1,17.1,8.4l-.8,1.4h1.2l.5-.9,1.7.9h5.4l-5.9-3.1q5.3-9.1,10.7-18.1c14.4,6.6,28.4,13.7,42,21.2h5c-14.8-8.2-30-16-45.7-23.2q5.3-8.7,10.7-17.1c28.9,11.6,56.1,25.5,82,40.4H909c-26.9-15.6-55.2-30.2-85.3-42.3q5.3-8.2,10.7-16.1c44,15.2,84.4,36.2,122,58.4h4.3c-38.5-22.9-79.8-44.6-125-60.3q5.3-7.7,10.8-15.1c59.9,17.3,113.2,45.9,162.2,75.4h4c-49.8-30-103.9-59.5-165-77.2l8.3-10.8,2.6-3.2c76.6,17.7,142.8,54.9,202.8,91.2h3.8c-60.7-36.8-127.6-74.8-205.3-92.9q5.4-6.7,10.9-13c94.2,16.3,173,63.4,243.9,105.9h3.6l-2.1-1.3c-70.9-42.5-149.7-89.7-244-106.3q4.8-5.5,9.7-10.7C983.4,588,1067.6,637.6,1143,682l16.3,9.6h3.5l-18.9-11.1c-75.2-44.3-159.3-93.8-260.4-108.6q6.1-6.4,12.3-12.3c112.8,6.7,204.9,60.4,287.1,108.3,14,8.2,27.7,16.1,41.1,23.7h3.4c-14.3-8-28.8-16.4-43.7-25.1C1101.8,618.7,1009.9,565,897.5,558q5.6-5.2,11.2-10c122.5.4,221.5,57.7,309.4,108.5,14.9,8.6,29.5,17.1,43.9,25l-5.9,10h3.5l5-8.6,12,6.5-1.2,2h3.4l.4-.7,1.3.7h3.3l-3.8-2q6.4-10.6,13-21.8l12.2,6.7-10.5,17.1h3.3l9.6-15.7,12.2,6.5-5.8,9.2h3.2l5.1-8,12.2,6.2-1.2,1.8h3.2l.4-.6,1.3.6h3.2l-3.7-1.8q6.6-10.1,13.3-20.7l12.3,6.5q-5.4,8.2-10.7,16.1h3l10-14.9,11.8,5.8-6.4,9.1h2.9l5.6-8,12.3,5.7-1.8,2.4h2.8l1.1-1.4,3.3,1.4h3.5l-6-2.5q6.8-9.2,13.6-19.1l12.5,6.1q-5.9,8-11.7,15.5h2.8q5.5-7.1,11-14.6l12.4,5.6-7.2,8.9h2.8l6.4-8,12.5,5.1-2.5,2.9h2.6l1.9-2.2,6,2.2h3.9l-9.1-3.2q6.9-8.1,13.8-16.9l12.8,5.8q-6.4,7.5-12.8,14.3h2.5q6-6.5,12-13.6c4.5,1.9,8.9,3.7,13.3,5.3l-7.9,8.2h2.4l7.2-7.6q6.2,2.3,12.2,4.2l-3.7,3.4h2.3l3.1-2.9,10.2,2.9h5.6q6.8-5.5,13.5-11.8c4.3,1.6,8.6,3.1,12.8,4.4q-5,3.9-10.1,7.5h2.6q4.6-3.3,9.2-6.9,6.4,1.9,12.6,3.4l-5.9,3.6h2.9l5-3.1q6.1,1.3,12.2,2.2l-2.1.9h3.2l1.3-.6,5.7.6h22C1644.6,688.4,1676.4,670.1,1707,629Zm165.7-303-5.2-6.3,2.7-4.4,5.2,5.7ZM1590.5,464.6c57.3-115.9,138.9-168.8,229.7-194.8l4.1,4.5q-12,5.2-23.7,10.9c-42.6,20.9-78.7,45.7-110.3,75.8-35.4,33.8-64.4,73.4-88.5,121.1-37.1,73.4-72.5,131.8-107.3,176.3l-13-7C1516.6,603,1552.7,541.1,1590.5,464.6ZM1479.7,650.4l-13-7.3c35.4-51.6,71.9-116.6,110.8-196.8,60-123.8,144.2-169.1,237.1-182.7l3.9,4.2c-12,3.4-23.8,7.3-35.4,11.7-41.2,15.8-76.3,37.1-107.1,65.1-34.6,31.4-63.1,70.3-87.2,119C1550.9,540.3,1514.9,602.2,1479.7,650.4Zm432-404.9-2.8,4.5-3.6.5,2.8-3.9Zm-1.8-1.5,2.6-3.6,3.3-1.5-2.6,4.2Zm-63.6,37.8,4.2,3.9-2.4,2.1-4.2-4.3Zm-3.6.4-4.1-4.2,2.2-1.2,4.2,3.8Zm50.8-17.3-2.9,4.1-3.6-1.1,2.9-3.6Zm-2-2.5,2.9-3.5h3.3l-2.8,4Zm-29.8,24.8,4.6,3.8-2.6,3.3-4.6-4.3Zm-3.6,1.8-4.5-4.2,2.5-2.2,4.6,3.7Zm12.5-3.5-2.7,3.3-4.4-3.6,2.6-2.8Zm-2.7-5,2.7-2.8,4.3,2.4-2.7,3.4Zm-.5,11.4,4.5,3.7-2.7,3.9-4.5-4.3Zm1.7-2.1,2.8-3.4,4.3,3.1-2.8,4Zm4.4-5.5,2.8-3.5,4.2,2.4-2.8,4Zm4.4-5.4,2.9-3.5,4,1.8-2.8,4.1Zm4.4-5.5,2.9-3.6,3.8,1.2-2.9,4.1Zm2.9-6-3.8-1.1,2.7-2.8,3.8.6Zm-1.6,1.9-2.8,3.4-4-1.7,2.8-2.9Zm-4.4,5.4-2.8,3.4-4.1-2.3,2.7-2.9Zm-8.1.4-4.1-2.3,2.6-2.2,4.1,1.7Zm-1.8,1.9-2.6,2.7-4.2-2.9,2.5-2.2Zm-4.4,4.7-2.6,2.7-4.4-3.6,2.5-2.2Zm-8-1.7-3.8-3.1,2.4-1.7,3.9,2.6Zm-2.1,1.8-2.4,2.1-4-3.7,2.3-1.7Zm-3.5,4.9,4.7,4.4-2.5,2.7-4.7-4.9Zm5.7,5.3,4.7,4.4-2.6,3.3-4.7-4.9Zm5.8,5.5,4.6,4.4-2.7,3.9-4.6-4.9Zm5.5,5.3,5,4.8-2.7,4.5-5-5.3Zm1.6-2.3,2.7-4,4.9,4.1-2.8,4.6Zm4.3-6.2,2.8-4.1,4.7,3.4-2.8,4.6Zm4.3-6.2,2.9-4.1,4.6,2.7-2.9,4.7Zm4.3-6.2,2.9-4.2,4.5,2-2.9,4.8Zm4.3-6.2,3-4.2,4.4,1.3-3,4.9Zm4.4-6.2,3-4.3,4.2.7-3,4.9Zm4.4-6.2,3-4.2h4l-3,4.8Zm4.5-6.3,2.9-4.1,3.8-.5-2.9,4.7Zm2.9-6.1-2.7.4,2.6-3.1,2.6-.8ZM1902,253l-2.7,3.8h-3.1l2.8-3.3Zm-7.8,3.7h-3.3l2.4-2.5,3.3-.5Zm-1.8,2.1-2.6,3.2-3.5-.5,2.6-2.7Zm-7.8,2.4-3.3-.5,2.3-1.9h3.4Zm-1.9,1.9-2.6,2.6-3.6-1,2.5-2.1Zm-4.4,4.5-2.6,2.7-3.9-1.6,2.6-2.2Zm-7.9.5-3.2-1.3,2.4-1.6,3.2.9Zm-2,1.8L1866,272l-3.4-1.9,2.4-1.7Zm-4.4,3.8-2.4,2.1-3.7-2.5,2.4-1.7Zm-7.7-1.4-3.5-2.3,2.1-1.1,3.6,1.9ZM1854,274l-2.2,1.6-3.7-2.9,2.1-1.2Zm-4.5,3.2-2.2,1.6-3.9-3.6,2.1-1.2Zm-7.6-3.3-3.6-3.2,1.9-.8,3.7,2.9Zm-2.6,1.5-2.1,1.2-3.8-3.8,2-.8Zm-4.7,2.7-2,1.1-4-4.5,1.9-.8Zm-7.5-5-3.7-4.1,1.6-.4,3.9,3.8ZM1603.4,482.9c54.7-108.2,133.5-168.5,222.3-206.9l4.3,4.8-2.6,1.5c-46.3,27.3-85.2,56.9-119.1,90.5a503,503,0,0,0-93.6,127.7c-36.2,69.9-70.9,124.6-105.3,165.6l-13.4-6.7C1531,614.6,1566.4,556.2,1603.4,482.9Zm12.9,18.3c52.2-100.7,128.1-168.2,214.9-219l4.5,5.1c-94.3,70.2-162.6,146.3-207.9,231.4-35.5,66.6-69.7,117.4-104,153.8l-12.7-5.8C1545.5,625.7,1580.3,570.9,1616.4,501.2ZM1834,280.6l2.1-1.2,4.4,4.4-2.1,1.6Zm7.7,4.6,4.4,4.5-2.3,2.1-4.3-5Zm5.3,5.5,4.9,5.1-2.4,2.6-4.8-5.6Zm5.8,6.1,4.8,5.1-2.5,3.1-4.8-5.6Zm5.9,6.2,4.8,5.1-2.6,3.7-4.7-5.6Zm5.6,6,5.1,5.5-2.6,4.3-5.1-6Zm12.5,9.3-5.1-5.5,2.8-4.5,5.1,4.9Zm4.1-7.7-5-4.8,2.8-4.6,5,4.2Zm4.1-7.7-4.9-4.1,2.9-4.7,4.9,3.5Zm4.1-7.7-4.7-3.4,2.9-4.8,4.7,2.8Zm4.1-7.6-4.6-2.7,3-4.9,4.6,2.1Zm4.1-7.6-4.5-2,3.1-5,4.5,1.4Zm4.2-7.7-4.4-1.4,3.1-5,4.3.7Zm4.2-7.7-4.2-.7,3.1-5h4.2Zm4.2-7.7h-4l3-4.9,4-.5Zm4.2-7.7-3.8.5,3-4.7,3.8-1.1Zm4.3-7.7-3.6,1,2.9-4.6,3.6-1.6Zm6.9-12.4-2.6,4.6-3.3,1.5,2.6-4.1Zm-3.6-1.5,2.4-1.9L1922,229l-2.4,1.5Zm-4.1,3.6-.7,1-.3.2Zm-.8,3.2,3-1.9-2.2,3.6-2.9,1.3Zm-4.1,2.6,1.3-.8-1.6,2.3-1.4.7Zm-6.4,4,1.8-1.2-.7.9-1.5.7Zm1.8,1.4,2.1-.9-2.3,3.2-2.2.6Zm-5.9,2.8,2.5-1.2L1903,246l-2.3.7Zm-5.2,2.5,1.8-.8-.8.8-1.5.5Zm.7,2.1,3-.9-2.2,2.6-2.9.4Zm-5.2,1.6,2.6-.8-1.6,1.6-2.4.4Zm-4.1,1.3.6-.2-.5.4h-.6Zm-.4,2.4,3.1-.5-2.1,2.1h-2.9Zm-4.3.7,1.7-.3-1.4,1.2h-1.6Zm-5.2.9h.9l-.4.2h-.5Zm.5,2.3h2.3l-1.9,1.6-2.3-.3Zm-5.2.1h1.8l-1.3.9-1.7-.2Zm.6,3,2.8.4-2.3,1.9-2.8-.8Zm-4.9-2.9h0Zm-.3,2.2,2.5.3-1.8,1.3-2.4-.6Zm-4.9-.6,1.6.2-1.2.6-1.5-.4Zm.1,3.1,3,.8-2.1,1.4-2.9-1.2Zm-5-1.3,2.3.6-1.6.8-2.2-.9Zm.2,3.8,3.3,1.3-2.1,1.5-3.2-1.7Zm-5.2-5.1,1.5.4-.9.3-1.4-.5Zm.1,3.1,2.8,1.1-1.8,1-2.7-1.4Zm-5.2-2,2.2.9-1.2.5-2.1-1.1Zm.4,3.8,3.2,1.7-1.9,1-3.1-2Zm-5.5-5.7,1.4.5h-.4l-1.2-.6Zm.3,3,2.7,1.4-1.5.6-2.6-1.7Zm.5,4.5,3.5,2.2-2,1.1-3.4-2.6Zm-5.7-7.2,2.2,1.1-.9.2-1.9-1.2Zm.4,3.8,3.1,2-1.6.6-3-2.3Zm-5.3-3.3,2.7,1.7-1.1.3-2.5-1.9Zm.5,4.5,3.4,2.6-1.7.7-3.3-2.9Zm-6.1-8,2.4,1.4h-.5l-2-1.5Zm.7,3.9,3.1,2.3-1.3.3-2.9-2.5Zm.5,5.3,3.7,3.2-1.8.7-3.5-3.5Zm-6.2-9.4,2.9,2.1h-.8l-2.6-2.2Zm.7,4.7,3.4,2.9-1.5.4-3.2-3.1Zm-2.9,4.6-3.5-3.8,1.3-.2,3.7,3.6Zm-2.8-9.4,3.3,2.8h-1.1l-3-2.9Zm-5.4-4.5,2.7,2.3h-.5l-2.4-2.3Zm.3,4.4,3.6,3.4h-1.1l-3.3-3.6ZM1770,270.4c-40.8,11.3-75.7,29.6-106.5,56-34.6,29.6-63.3,68.5-87.8,119-38.6,79.6-75.2,144.8-110.8,196.6l-12.9-7.5c35.8-54.9,73-123.2,112.6-206.4,46.5-97.7,110.3-152.2,194.9-166.5a307.3,307.3,0,0,1,49.3-4.1l3.8,4.1A350.7,350.7,0,0,0,1770,270.4ZM935.5,527.9l4.5-.5c139.7-13.2,250.8,50.1,348.8,106.7q-6.4,11.5-12.6,22.6l-21.3-12.2c-93.4-53.8-199-114.7-331-108.5Q929.6,531.7,935.5,527.9ZM922,536l-7.4.4-5.3.4q5.6-3.5,11.2-6.6,6.3-1.2,12.7-2.1Q927.6,531.9,922,536Zm17.8-10-1.9.2q5.7-3.6,11.4-6.8c5.2-1.1,10.5-1.9,15.9-2.6,133.3-15.8,241.3,38.4,336.6,93.1l-12.4,22.9C1191.3,576.2,1080,512.9,939.9,526.1Zm364.6,85.5,12.7,7.3q-6.4,11.6-12.7,22.7l-12.3-7.1h-.2Zm72.3,9.3-5.1-3-7.8-4.6q6.3-11.2,12.7-22.9l13.1,7.8Q1383.2,609.8,1376.7,620.9Zm15.2-21.4,13,7.9q-6.6,11.5-13.2,22.4l-12.8-7.5Q1385.5,611.1,1392,599.5Zm-30.4,12.4-13-7.6q6.2-11.3,12.5-23.1l13.2,7.7Q1367.9,600.7,1361.6,611.9Zm-15.4-9-12.9-7.5,12.2-23.1,13.2,7.5Q1352.4,591.6,1346.2,602.8Zm-.5,1q-6.4,11.7-12.7,22.8l-1.9-1.1-10.8-6.3,12.4-23Zm-27.9,14-12.7-7.4,12.2-23,13,7.4Zm1.9,2.5,10.8,6.3,1.9,1.1q-6.5,11.5-12.9,22.5l-12.5-7.1Q1313.3,631.9,1319.7,620.3Zm15.1,8.8,12.7,7.4q-6.6,11.3-13.1,22.1l-12.5-7Q1328.3,640.6,1334.8,629.1Zm.6-1.1q6.3-11.2,12.7-22.8l12.9,7.6q-6.5,11.6-12.9,22.6Zm27.9-13.9,7.8,4.6,5.1,3q-6.6,11.4-13.1,22.2l-12.7-7.3Q1356.8,625.8,1363.3,614.2Zm15.2,9,12.8,7.5q-6.7,11.2-13.3,21.7l-12.6-7.1Q1371.9,634.5,1378.5,623.2Zm14.9,8.8,12.3,7.2q-6.8,10.8-13.5,21.1l-12.1-6.6Q1386.7,643.1,1393.4,632Zm.6-1q6.5-10.9,13.1-22.3l6.7,4.1,5.8,3.5q-6.7,11.2-13.4,21.9Zm27.7-13.5,13,7.8q-6.8,10.9-13.6,21.3l-12.8-7.3Q1415,628.8,1421.7,617.5Zm14.9,9,13,7.7q-6.9,10.6-13.7,20.5l-12.8-7Q1429.8,637.5,1436.6,626.6Zm14.8,8.8,12.9,7.5q-7,10.1-13.8,19.5l-12.7-6.7Q1444.6,645.9,1451.5,635.4Zm356.8-383.1,3.2,3h-.6l-2.8-3Zm-1.5,3a307.5,307.5,0,0,0-47.6,4.1c-41,6.9-76.1,22.5-107.3,47.6-35,28.2-64.2,67.4-89.3,120.1-39.6,83.2-76.8,151.4-112.5,206.3l-13-7.7c36.2-58.2,74.1-129.6,114.5-215.8,47.9-102.2,112.8-154.6,198.3-160.1a284.8,284.8,0,0,1,53.3,1.9Zm-8.9-9.3,2.9,3a284.4,284.4,0,0,0-50.9-1.6c-41.5,2.7-77.1,15.6-108.8,39.6-35.7,26.9-65.5,66.7-91.4,121.9-40.4,86.2-78.2,157.5-114.4,215.6l-13-7.8c36.7-61.3,75.3-135.9,116.5-225.1,36.2-78.4,80.5-125.8,135.3-144.8C1712.8,233.4,1754.6,235.2,1797.8,246Zm-3.2-3.2c-42.3-10-83.2-11.4-121.4,1.8-55.5,19.2-100.2,67-136.7,146-41.2,89.1-79.7,163.6-116.3,224.8l-5.8-3.5-6.7-4.1c37.1-64.5,76.3-142.2,118.1-234.4,37.1-80.9,81.8-128,136.8-144,40.8-11.9,84.6-5.6,129.8,11.1Zm-7.9-7.9,1.4,1.4c-43.9-15.5-86.5-21-126.3-9.3-55.7,16.2-101,63.8-138.4,145.4-41.8,92.2-80.9,169.8-118,234.2l-13-7.9c37.8-67.7,77.7-148.6,120.4-243.5,37.6-83.2,82.7-130.2,137.6-143.7C1693.4,200.8,1739.4,211.8,1786.8,234.8Zm-5.7-5.6h0c-45.5-21.1-89.8-30.7-131.4-20.4C1594,222.5,1548.5,270,1510.5,354c-42.7,95.2-82.6,175.8-120.3,243.2l-13.1-7.8c38.4-70.5,79.2-154.3,122.8-252.6,38.2-85.3,83.3-132.4,138.1-143.7C1683.2,183.7,1731.5,199.5,1781.1,229.2Zm-143.7-38.8c-26.7,5.5-51.6,19.8-74.1,42.4-24,24.2-46.2,58.8-65.9,102.9-43.5,97.9-84.2,181.7-122.7,252.3l-13.2-7.7c39.1-73.5,80.7-160.4,125.4-261.7,38.6-87.4,84-134.5,138.6-144.1,45.3-8,93.5,10.7,143,44.5C1723.3,194.1,1679.1,181.8,1637.5,190.4Zm-12.4-18.7c-26.7,4.7-51.7,18.6-74.3,41.3-24.1,24.2-46.5,59.3-66.4,104.5-44.6,101.3-86.2,188.1-125.3,261.5l-13.2-7.5c39.9-76.5,82.4-166.5,128.1-271,39.1-89.3,84.6-136.6,139.1-144.7,40.7-6,87,10.5,140.5,50.3C1709.3,178.7,1666.1,164.5,1625.1,171.7Zm-164,110.4c39.5-91.2,85.2-138.8,139.7-145.6,41.1-5.1,87.4,13.7,140.9,57.3-48.4-33.2-90.9-46.7-128.9-41-26.7,3.9-51.7,17.5-74.5,40.3s-46.7,60-66.9,106.1c-45.7,104.5-88.1,194.4-128,270.8l-13.3-7.3C1370.8,483.1,1414.3,389.9,1461.1,282.1ZM1329.6,563.5l13.3,7.3-12.2,23-13-7.4Zm-313.9-67.6c119.8-20,222.9,18.7,311.3,66.2L1315.1,585c-36.1-20.2-74.8-39.9-115.6-54.9-72.2-26.5-140.6-34.6-209.2-24.8a197.8,197.8,0,0,0-20.2,4A200,200,0,0,1,1015.7,495.9Zm-25.2,10.5C1117.5,488.2,1222,534,1314.6,586l-12.2,23c-95.5-54.8-203.6-109.1-337.3-93.3-4.1.5-8.2,1.1-12.2,1.9q5.3-2.8,10.7-5.3A196.4,196.4,0,0,1,990.5,506.4Zm-33.4,7.8-7.4,3.9-7.9,1.8Q949.4,516.7,957.1,514.2Zm-11,6q-5.2,3-10.4,6.4-5.7.7-11.3,1.6,5.1-2.7,10.2-5.1T946.1,520.2Zm-18.7,5.1-6.7,3.5-6.9,1.5Q920.6,527.6,927.4,525.3Zm-21.3,8.4q5.3-1.5,10.8-2.7-5.1,2.9-10.1,6.2-5.4.6-10.8,1.5Q901.1,536.1,906.2,533.7ZM570,658.5c4,.1,8.1.3,12.2.7q-5.7,4.3-11.2,8.9-6.2-1.1-12.3-1.9Q564.3,662.2,570,658.5Zm-15,7.3q-5.7-.6-11.3-.9l10.6-6.2q5.6-.3,11.2-.3l-3,2Zm19-9.9q5.3-3.3,10.7-6.4,5.6-.3,11.2-.3l-9.2,6.6-1.3,1Q579.7,656.2,574.1,655.9Zm11.1,3.5q6.7.7,13.4,1.8-5.8,5-11.5,10.3c-4.5-1.2-9-2.2-13.5-3Q579.3,663.9,585.1,659.5Zm3.2-2.4q5.5-4.1,11.1-7.9c4.3.1,8.6.3,13,.6L611,651l-9.7,8Q594.7,657.8,588.3,657.1Zm273.4-98q-5.8,4.4-11.6,9.2l-11.1-.6h-1.5q5.6-4,11.3-7.7Q855.3,559.2,861.8,559Zm-9.7-1.1q5.4-3.4,10.9-6.4,5.9-1.1,12-1.9-5.5,3.6-10.9,7.6Q858,557.4,852.1,557.9Zm-177.2,73,10.8,1.3q-5.6,5.2-11,10.6l-11.3-2.2Q669,635.6,674.9,630.9ZM661,640.1q-6.5-1.1-12.9-1.8,5.5-4.3,11.2-8.2c4.3,0,8.5.2,12.9.5Q666.5,635.2,661,640.1Zm16.7-11.4q5.6-4.4,11.3-8.4l9.8.3q-5.4,4.6-10.8,9.4h0Zm23.7-7.9c3.8.3,7.6.6,11.5,1.1l5.2.7q-5.7,5.3-11.2,10.8-8.2-1.7-16.6-3Q695.7,625.4,701.3,620.8Zm18.9-.1-7.1-1-9.2-1q5.3-4.3,10.7-8.3,8.3-.1,16.9.5Q725.7,615.6,720.2,620.6Zm13.6-9.6,4.2.4,9.5,1.1q-5.6,5.3-11.1,10.8l-14.1-2.4Q728,615.8,733.8,611Zm-13.7,11.9,14.4,2.4q-5.6,5.8-11.1,11.8l-14.7-3.3Q714.4,628.2,720.1,622.9Zm16.2,2.7,15,3.1q-5.6,6.3-11,12.8l-15.2-4.1Q730.7,631.5,736.3,625.7Zm1.9-2q5.6-5.6,11.3-10.9L764,615l-6.9,7.3-4.1,4.5Zm68.1-31.9q-5.5,5.2-11,10.8l-14.4-2q5.6-5.1,11.4-10Zm-11.8-3q5.7-4.6,11.5-8.9h7.8l5.5.2q-5.6,4.7-11.1,9.9Zm-1,15.7q-5.5,5.7-10.9,11.9l-14.9-2.9q5.5-5.6,11.2-10.9ZM779,600.4,765.4,599q5.7-4.6,11.5-8.9H778l10.6.3h1.5Q784.5,595.2,779,600.4Zm-2,1.9q-5.6,5.2-11.1,10.8l-14.2-2.2q5.6-5.1,11.4-10h.2Zm-11.1,13.1,15.1,2.9q-5.5,6.3-10.9,12.9l-15.3-3.9Q760.2,621.1,765.9,615.3Zm16.7,3.3q7.9,1.7,15.6,3.7-5.5,6.8-10.8,13.9-7.8-2.5-15.8-4.7Q777,624.9,782.6,618.6Zm1.7-1.9q5.5-6.1,11.1-11.9l15.2,2.7-4.5,5.2-6.4,7.7Q792.1,618.4,784.3,616.7Zm12.8-13.8q5.5-5.6,11.2-10.9l14.8,1.8q-5.5,5.7-10.9,11.9Zm13.1-12.7q5.6-5.1,11.3-10l14.2.9q-5.5,5.2-11,10.9Zm13.4-11.7q5.8-4.8,11.7-9.2H839l9.2.5q-5.4,4.6-10.7,9.6Zm11.7-10.9h-3.7l-7.5.2q4.9-3,9.8-5.7,5.9-1.1,11.9-1.8Q840.6,563.7,835.3,567.5Zm-3.7,1.7h1.3q-5.8,4.3-11.5,9.1l-7.6-.3h-5.2q6.1-4.4,12.4-8.4Q826.3,569.3,831.6,569.3ZM806.1,578q-5.9.1-11.7.5,6.6-4,13.5-7.6l10.2-1.1Q812,573.7,806.1,578Zm-2.6,1.9q-5.6,4.2-11.1,8.8l-3.7-.2-9-.3q5.5-3.9,11.2-7.5Q797.1,580.1,803.5,579.9ZM777,588.2q-5.9,0-11.7.4,5.2-3.1,10.5-6,5.7-1,11.6-1.6Q782.2,584.4,777,588.2Zm-2.7,2q-5.6,4.2-11.1,8.6c-4.2-.3-8.4-.5-12.6-.6q5.5-3.9,11.1-7.4Q767.9,590.3,774.3,590.2Zm-13.4,10.6q-5.7,4.8-11.2,9.8l-11.4-1.4-2-.2q5.6-4.5,11.4-8.7Q754.2,600.3,760.9,600.8Zm-27,8.1q-8.2-.7-16.3-.7,4.9-3.5,10-6.8,8.5-.9,17.2-1Q739.3,604.4,733.9,608.8Zm-19.3-.6-7.4.3q5.1-3,10.3-5.7l6.3-.9Zm-3,2.2q-5.2,3.9-10.3,8l-9.1-.4q5.4-3.7,10.9-7.1ZM688.9,618c-3.7,0-7.4.1-11.1.3q5-2.9,10.2-5.6,5.4-.9,11-1.4Q693.9,614.5,688.9,618Zm-3.3,2.3q-5.4,3.9-10.7,8.1-6.1-.6-12.2-.7,5.3-3.6,10.6-6.8Q679.4,620.4,685.6,620.3Zm-26.1,7.3c-3.7,0-7.5,0-11.2.2l9.4-5.1q5.7-.9,11.5-1.5Zm-3.5,2.4q-5.4,3.8-10.7,8-6.1-.6-12.3-.8,5.2-3.5,10.6-6.7C647.8,630.3,651.9,630.1,656.1,630.1Zm-13.6,10.2-7.3,5.9-4,3.4q-6.5-1.1-13-1.9,5.5-4.2,11.2-8.1C633.8,639.8,638.1,640,642.5,640.3Zm-27,7.2q-6.2-.6-12.2-.8,5.2-3.4,10.5-6.5,6.1-.4,12.4-.5Q620.8,643.4,615.5,647.5Zm-.2,2.6q6.7.6,13.5,1.8-5.8,5.1-11.5,10.5l-4.8-1.2-8.6-1.8Q609.4,654.6,615.3,650.1Zm15.8,2.2,5.9,1.1,7.9,1.7q-5.8,5.7-11.4,11.6L619.4,663Q625.2,657.5,631.1,652.3Zm6.4-1.4-3.9-.8q5.7-4.9,11.5-9.5,6.6.6,13.4,1.7-5.8,5.2-11.4,10.7Zm23.4-8.2,1.4.2,10.3,2q-5.6,5.7-11,11.6l-12.2-3.1Q655,647.9,660.9,642.7Zm13.7,2.7q8.6,1.8,17.1,4-5.7,6.3-11.2,12.8-8.4-2.7-17-5Q669,651.1,674.6,645.3Zm2.1-2.1q5.5-5.5,11.2-10.8,8.5,1.3,16.8,3-5.7,5.7-11.2,11.8Q685.2,645.1,676.7,643.2Zm30-7.4,14.9,3.3q-5.6,6.3-11.1,12.8-7.5-2.3-15.1-4.2Q701,641.6,706.7,635.8Zm16.6,3.7q7.8,1.9,15.4,4.1-5.6,6.8-11,13.9-7.7-2.6-15.5-5Q717.6,645.9,723.3,639.6Zm17,4.5q8,2.3,15.8,4.9-5.5,7.3-10.9,14.9-7.9-3.1-15.9-5.9Q734.7,650.9,740.3,644.1Zm1.7-2q5.5-6.6,11.1-12.9,7.8,1.8,15.5,3.9-5.5,6.8-10.9,13.9Q749.8,644.4,741.9,642.1Zm28.1-8.6q8,2.2,15.9,4.7-5.5,7.4-10.8,15-7.9-3-16.1-5.7Q764.4,640.3,770,633.5Zm17.3,5.1q8.2,2.6,16.3,5.5-5.5,7.9-10.8,16-8.1-3.4-16.4-6.5Q781.8,646,787.3,638.6Zm1.5-1.9q5.4-7.1,10.9-14,8.1,2.1,16,4.5-5.5,7.4-10.8,15Q796.9,639.2,788.8,636.6Zm12.4-15.9q5.4-6.6,11-13,7.9,1.6,15.7,3.5-5.5,6.8-10.8,14Q809.2,622.9,801.2,620.8ZM813.8,606q5.4-6.1,11-12,7.7,1.1,15.3,2.5-4.8,5.5-9.5,11.3l-1.3,1.7Q821.6,607.6,813.8,606Zm12.7-13.7q5.5-5.6,11.1-11l14.9,1.6q-5.5,5.7-10.9,11.9Zm12.9-12.7q5.3-5,10.8-9.6l14,1.2q-5.1,4.9-10.1,10.1Zm12.7-11.2q5.9-4.9,12-9.5h13.7q-6,5.1-11.9,10.7Zm14.3-11.2q5.7-4.1,11.5-7.9,5.7-.6,11.6-.9h1.3q-5.6,4.2-11.1,8.9Zm23-10.4-8.6.6q5.5-3.5,11.1-6.6,6-1.2,12.2-1.9-5.6,3.7-11.1,7.8Zm8.6-10.7-6.2,3.3-6.3,1.3Q891.7,538.3,898,536.2Zm-20.9,8.2q5.2-1.4,10.5-2.6-4.9,2.8-9.8,6c-3.6.4-7.1.9-10.5,1.4Q872.2,546.6,877.2,544.4Zm-8.5,2.6-5.7,3-5.8,1.2Q862.8,548.9,868.6,546.9Zm-20.5,8q5.1-1.4,10.4-2.5-4.8,2.8-9.6,5.8l-10.3,1.3Zm-8.9,2.7-5.2,2.7-5.3,1Q833.9,559.3,839.2,557.6Zm-20.1,7.8,10.2-2.4-8.2,4.9-8.7.7Zm-9.4,2.8-1.9,1-1.6.2Zm-6.6,3.4q-6.2,3.4-12.3,7.2l-9.8,1.1q8-4,16.3-7.3Zm-14.7,3q-6.4,2.9-12.6,6.2-8.2,1.4-16.1,3.5A186.9,186.9,0,0,1,788.6,574.5Zm-40.5,15.1a190.5,190.5,0,0,1,22.5-6.1l-8.9,5.3q-8.2.7-16.3,2.1Zm10,1.5q-5.2,3.4-10.3,7.1-8.2,0-16.3.7l8.4-4.9Q748.8,592.2,758.1,591.2Zm-26.2,4.7,2.2-.5-6.6,4-4.4.5Zm-11.7,3.4-3.1,1.6-3.2.5Zm-17.7,6.6,9-2-8.4,4.9-9,.9ZM691.2,609l-3,1.5-3.1.5Zm-18.3,6.7,9.3-2-8.3,4.8-9.1.9Zm-11.6,3.2-2.6,1.3-2.6.4Zm-19.7,7.2,10.1-2.3-7.5,4.2-8.9.8Zm-2.1,4.8-9.6,6.2c-3.7-.1-7.4,0-11.1.1l9.3-4.9Q633.7,631.5,639.4,631Zm-25.1,4.1,7.3-1.6-7.2,4-7.2.6Zm-4.9,5.4-9.5,6.1h-9.9l9.6-5Zm-25,3.9,7-1.4-7,3.9-7.1.5Zm-5.3,5.4-9.4,5.9h-9.9l9.5-4.8Zm-25.2,3.8,6.9-1.4L554,656l-6.9.5Zm-5.4,5.4-9.3,5.6h-9.7l9.3-4.5Zm-13.6,8.4-10.5,7.1q-5.7-.6-11.3-.9l10.5-6Q529.2,667.5,534.9,667.5Zm-11.7-4.7,6.7-1.3-6.6,3.4-6.7.4Zm-5.6,5.3-3.1,1.7-6.1,3.6h-9.7l9.2-4.3ZM492,671.6l6.8-1.2-6.3,3.2-6.6.4ZM461,682l-6.2.3,5.8-2.1,6.4-1.1Zm6.5-.1,9-4.1,9.7-.9-9.1,5.2Zm25.8,1.4-11.3-1,10.5-5.7,11.2-.2Zm16.2,2.4q-6.2-1.2-12.3-1.9,5.6-3.7,11.3-7.3,6.1.2,12.2.8Q515.1,681.3,509.6,685.7Zm16.3,3.6q-6.6-1.7-13-3,5.8-4.4,11.7-8.7,6.4.7,12.9,1.8Q531.6,684.3,525.8,689.3ZM540.5,677q-6.2-1.1-12.3-1.9,5.6-3.9,11.3-7.5,6,.2,12.2.7Q546,672.5,540.5,677Zm3.2.6q5.8-4.6,11.7-8.9,6.4.7,12.9,1.8-5.8,4.9-11.6,10.1Q550.1,678.9,543.6,677.6ZM562,682l-3.1-.8q5.8-5.3,11.8-10.3,6.8,1.2,13.8,3-5.9,5.6-11.7,11.4Zm27.5,8.8L575,686q5.8-5.9,11.8-11.5l14.3,4Q595.3,684.6,589.6,690.9Zm-.3-18.7q5.8-5.4,11.8-10.5l10.7,2.2,3.1.8q-5.9,5.6-11.5,11.5Zm16.1,4.6q5.7-5.9,11.6-11.6l14.4,3.8q-5.8,6.2-11.4,12.6Zm30.2,10.4-13.6-5q5.7-6.4,11.5-12.6l13.2,4Q641,680.3,635.6,687.1Zm0-19.8q5.7-6,11.5-11.7l12.5,3.1q-5.6,6.2-11,12.6Zm14.8,4.6q5.5-6.5,11.1-12.7,8.7,2.3,17.2,5-5.7,6.7-11.2,13.7Q659,674.8,650.4,671.9Zm34.5,12.9q-7.8-3.2-15.8-6.2,5.6-7,11.3-13.8,7.9,2.5,15.6,5.3Q690.4,677.3,684.9,684.8Zm-2.7-22.2q5.6-6.5,11.3-12.8l15.3,4.3q-5.6,6.8-11.1,13.8Q690,665.1,682.2,662.6Zm17,5.8q5.5-7,11.2-13.9c5.3,1.6,10.5,3.3,15.7,5.1q-5.6,7.3-11,14.8Q707.2,671.3,699.2,668.4Zm17.3,6.6q5.5-7.6,11.1-14.9,8.1,2.8,16.1,5.9-5.5,7.8-10.9,15.9Q724.7,678.3,716.5,675Zm34,15.2q-8.2-4-16.5-7.7,5.4-8.1,11-16,8.3,3.2,16.4,6.7Q755.9,681.6,750.5,690.2Zm-4-25.8q5.4-7.6,11-15,8.2,2.7,16.2,5.7-5.5,7.9-10.8,16Q754.8,667.6,746.5,664.4Zm17.5,7.2q5.4-8.1,10.9-16,8.3,3.1,16.5,6.5-5.5,8.4-10.8,17Q772.5,675.3,764.1,671.6ZM798.7,688q-8.4-4.3-17-8.4,5.3-8.6,10.8-17.1,8.6,3.6,16.9,7.4Q804,678.9,798.7,688Zm12-20.1q-8.3-3.8-16.9-7.4,5.3-8.1,10.8-16.1,8.5,3.1,16.8,6.4Q816,659.3,810.7,667.9Zm12-19q-8.2-3.3-16.7-6.4,5.3-7.6,10.8-15,8.4,2.5,16.6,5.3Q828,640.7,822.7,648.9Zm12-17.9q-8.1-2.8-16.5-5.3,5.3-7.1,10.8-14,8.3,2,16.3,4.3Q840,623.3,834.7,630.9Zm20.5-28q-4.3,5.5-8.5,11.2-8-2.3-16.2-4.3l1-1.3q4.9-6.1,9.9-11.7,8.1,1.5,16.1,3.3Zm3.6-4.5q-7.9-1.8-15.9-3.4,5.5-6.2,11-12,8,1,15.8,2.4Q864.2,591.7,858.9,598.4Zm12.2-14.6q-7.7-1.3-15.6-2.4,5.1-5.2,10.2-10.1l15.1,1.9Q875.9,578.3,871.1,583.8Zm11.1-12.2-14.9-1.9q6-5.7,12.1-10.8l14.9.5Q888.3,565.3,882.3,571.6Zm13.8-13.7-14.6-.6q5.7-4.7,11.4-9l14.2-.3Q901.5,552.7,896.1,557.9Zm-1-11.2q5.7-4.2,11.5-8l8.2-.8,5.2-.3q-5.6,4.2-11.1,8.9Zm367.6,133.5c-14.3-7.9-28.9-16.4-43.9-25-87.6-50.7-186.3-107.7-308.3-108.7q5.6-4.7,11.3-9c132.6-6.9,238.6,54.2,332.4,108.2l21.3,12.2Q1269,669.3,1262.7,680.2Zm14.7,8-12-6.5q6.3-10.9,12.8-22.2l12.2,6.9Q1283.8,677.5,1277.3,688.2Zm13.7-23.1-12.2-6.9q6.3-11.1,12.6-22.6h.2l12.3,7.1Q1297.4,654.2,1291,665.1Zm14.8,8.2-12.2-6.8q6.4-10.9,12.8-22.3l12.4,7.1Q1312.3,662.6,1305.8,673.3Zm14.7,7.9-12.3-6.5q6.5-10.7,13-21.9l12.5,7Q1327.1,670.7,1320.5,681.2Zm14.6,7.4-12.2-6.2q6.5-10.4,13.2-21.4l12.4,6.8Q1341.8,678.5,1335.1,688.6Zm14.1-21.9-12.4-6.8q6.5-10.7,13-22l12.6,7.3Q1355.8,656.2,1349.2,666.7Zm14.7,7.7-12.4-6.5q6.6-10.5,13.2-21.5l12.6,7.1Q1370.6,664.2,1363.9,674.4Zm14,7-11.8-5.8q6.6-10.1,13.3-20.8l12,6.6Q1384.7,671.6,1378,681.4Zm14.5,6.7-12.3-5.7q6.7-9.7,13.5-20l12.5,6.5Q1399.3,678.8,1392.5,688.1Zm14.4-20.2-12.5-6.5q6.7-10.2,13.5-21l12.7,7.2Q1413.6,658,1406.9,667.9Zm14.6,7.2-12.6-6.1q6.8-9.8,13.6-20.2l12.7,7Q1428.3,665.7,1421.5,675.1Zm14.5,6.6-12.5-5.6q6.8-9.3,13.7-19.3l12.7,6.6Q1442.9,672.8,1436,681.6Zm14.6,6-12.6-5.1q6.8-8.7,13.7-18.2l12.7,6.3Q1457.5,679.5,1450.6,687.6Zm14.6-17.9-12.8-6.3q6.9-9.4,13.8-19.5l12.9,7.3Q1472.1,660.8,1465.2,669.7Zm14.7,6.6-12.9-5.8q6.9-8.8,13.9-18.3l13,7Q1486.8,668.1,1479.9,676.3Zm15.1,6.1q-6.6-2.5-13.4-5.3,6.9-8.2,13.9-17l13.3,6.7Q1501.9,674.9,1495,682.4Zm14.1,4.8q-6.1-1.9-12.4-4.2,6.8-7.4,13.7-15.6l12.7,5.8Q1516.1,680.7,1509.1,687.3Zm14.6,4q-6.4-1.5-12.9-3.5,6.2-5.9,12.5-12.5l1.3-1.4q6.6,2.8,13.1,5.3Q1530.7,685.6,1523.8,691.3Zm14.8-12.9q-6.5-2.4-13.2-5.3c34.4-36.6,68.4-86.9,104-153.7,49.5-93,122.8-167.7,207.7-230.8l4.5,5.2c-88.8,80.7-156,162.2-200.6,243.1C1606.3,599.8,1572.7,646.4,1538.5,678.4Zm14.4,4.9q-6.4-2-13-4.4l7.5-7.3c31.7-31.9,62.7-75.7,94.8-134,49.1-89.2,120.9-170.8,200.1-242.8l5,5.8c-81.1,88-149.1,177.2-193.4,254.6C1620.5,613.7,1587.3,656,1553,683.3Zm14.6,3.9q-6.4-1.4-12.9-3.4c32.7-26.3,65.9-67.4,100.5-127.9,43.4-75.8,111.2-165.2,193.1-254.2l4.9,5.8c-80.7,102.3-146.3,199.5-186.2,266C1633.2,629.9,1600.3,666.1,1567.6,687.2Zm14.6,2.6q-6.3-.8-12.7-2.2c32.5-21.4,65.1-57.5,98.6-113.4,44.1-73.5,109.2-168.4,186.1-265.6l4.9,5.8c-60.6,88.4-112.6,171.4-151.4,233.4-10,15.9-19.4,31-27.7,44C1647.4,643.4,1615,674.1,1582.2,689.8Zm2.4.3c32.3-16.1,64.2-46.8,96.4-97.6,8.2-13,17.7-28.1,27.7-44,38.8-61.8,90.7-144.7,151.2-233l5.2,6.2c-30.5,50.7-58.5,98.8-82.9,140.9-35.9,61.8-67,115.1-89,147.6-31.4,46.3-63.2,71.1-96.2,80.8Q1590.8,690.8,1584.6,690.1Zm16.2.9c31.9-10.6,62.7-35.4,93.2-80.2,22.1-32.5,53.1-85.9,89.1-147.7,24.4-42,52.3-89.9,82.7-140.5l5.3,6.4c-18.3,34.4-35.7,67.6-52.1,98.7-48.6,92.6-87,165.8-112.9,200.8C1673,673,1638.2,690.6,1600.9,691Z" transform="translate(5.4 4.8)" style="fill:#d14a43"/><path d="M1803,531.5l-12.6,2.2-10.8,1.3-14.5.8h-10.8l-11.1-.9-13.4-2.1L1718,530l-11.6-3.7-11.4-4.6-11.2-5.6-11-6.6-10.7-7.6-10.4-8.6-10.1-9.7-9.7-10.7-10.2-12.8-8-11.4-8.6-13.8-8.2-14.7-7.8-15.6-7.3-16.4q-3.4-8.7-6.9-17.2t-6.5-18c-12.3-38.2-25.3-73.1-41.5-101-27.9-48.2-62.1-70.9-107.6-71.7h-2.5c-152.3,0-281.6,229.7-406.6,451.8q-16.9,30-33.6,59.4h1.2c11-19.4,22.1-39.1,33.3-58.9,124.9-221.9,254-451.3,405.7-451.3h2.5c45.1.7,79.1,23.4,106.8,71.2,13.4,23.1,24.7,51,35.1,81.6-9.9-24.7-20.5-47.2-32.6-66.3-29.1-45.9-63.9-67.5-109.5-67.9h-1.3c-150.8,0-280.1,221.3-405.1,435.4q-16.6,28.5-32.9,56.2h1.3q16.2-27.4,32.6-55.6c124.9-213.8,254-434.9,404.2-434.9h1.2c45.2.4,79.7,21.8,108.6,67.4,14.8,23.4,27.3,51.8,39.1,83.1-11.1-25.4-22.9-48.4-36.4-67.8-30.3-43.8-65.7-64.2-111.4-64.2-149.2,0-278.5,213.1-403.5,419.2q-16.2,26.7-32.1,52.8h1.4l31.8-52.2c124.8-205.8,253.9-418.6,402.5-418.6,45.3,0,80.4,20.3,110.5,63.7,15.6,22.5,29,49.9,41.6,80.1l.5,1.5c-12.1-24.9-24.9-47.5-39.3-66.4-31.4-41.3-67.1-60.5-112.4-60.5h-1.1c-147.2,1.3-275.9,205.6-400.5,403.1L987,691.6h1.5l30.7-48.6c124.4-197.3,253-401.2,399.4-402.5h1.1c44.9,0,80.3,19.1,111.4,60,15.7,20.7,29.6,45.9,42.7,73.7l1,3.4c-12.7-23.2-26-44.3-40.7-61.9-33-39.5-69.7-57.6-115.7-56.8-145,2.5-273.3,198.1-397.3,387.2l-30,45.6h1.6l29.5-44.8c123.8-188.8,251.9-384.1,396.2-386.6,45.5-.7,82,17.2,114.7,56.4,15.9,19,30,42,43.7,67.4l1.4,4.5c-13.2-21.3-26.8-40.6-41.8-56.8-34.4-37.4-71.9-54.3-118.2-53.2-142.9,3.7-270.5,190.7-394,371.4l-28.5,41.7h1.7l28-40.9c123.2-180.5,250.7-367.1,392.8-370.8h3.9c73.4,0,117.5,48.3,157.6,114l1.6,5.2c-13.5-19.3-27.4-36.8-42.4-51.5-35.9-35.3-74.3-51-120.8-49.5-140.7,4.9-267.6,183.3-390.4,355.9l-26.9,37.7h1.9l26.2-36.8c122.6-172.2,249.3-350.4,389.3-355.2h5.6c71.8,0,117.2,43.9,159,104.3l1.7,5.8c-13.7-17.2-27.8-32.8-42.8-46.1-37.6-33.2-76.9-47.7-123.8-45.9-33.3,1.5-66.5,12.1-101.7,32.5-31.2,18.2-63.1,43.7-97.6,78-64,63.6-126.7,148.2-187.4,230l-24.9,33.4h2l24.2-32.5c121.9-164.1,247.9-333.8,385.5-339.8,74.4-3,122.9,37.6,167.7,94.5l1.4,4.8.4,1.2c-13.8-15.1-27.8-28.8-42.6-40.4-39.4-31.1-79.8-44.4-127.2-42-32.8,1.7-65.5,12-100.2,31.6-30.8,17.4-62.4,41.8-96.6,74.5-63.4,60.7-125.8,141.2-186.2,219.2l-22.5,29h2.1l21.7-28c121.1-156.2,246.3-317.8,381.8-324.6,73.8-3.7,123.9,32.6,170.8,84.5l2,6.7a368.6,368.6,0,0,0-41.9-34.9c-41.4-29-83-41.2-131.1-38.3-32.2,1.9-64.5,12-98.7,30.8-30.4,16.7-61.6,40-95.4,71.1-62.7,57.8-124.8,134.3-184.8,208.3l-19.9,24.5h2.3l18.9-23.3c60-74,122-150.5,184.6-208.1,70.3-64.7,133.4-97.9,193-101.5,73.1-4.3,125,28,173.9,75l2.1,6.9a381.7,381.7,0,0,0-40.7-29.4c-43.6-27-86.7-38-135.6-34.6-31.6,2.2-63.4,12-97.1,30-30,16-60.8,38.2-94.2,67.8-62,54.9-123.6,127.5-183.2,197.6L1026,691.6h2.4l15.7-18.5c59.5-70.1,121.1-142.7,183-197.4,69.4-61.4,131.7-93.3,190.3-97.3,72.5-5,126.1,23.3,177.1,65.4l2.1,7.1a403.4,403.4,0,0,0-38.4-23.9c-46.2-25-91.1-34.8-141.1-30.9-57.9,4.5-119.6,35.2-188.4,93.7-61.3,52-122.4,120.7-181.5,187.1l-13.1,14.8h2.6l12-13.5c59-66.3,120.1-134.9,181.3-186.9,68.6-58.2,129.9-88.7,187.4-93.2,71.9-5.6,127.3,18.7,180.3,55.9l2.2,7.3c-11.5-6.7-23.1-12.9-34.8-18.3-49.4-23.1-96.5-31.7-148.1-27.2-56.8,5-117.4,34.3-185.4,89.6-60.5,49.2-121,114-179.6,176.6l-9,9.6h2.8l7.7-8.2c58.5-62.6,119-127.3,179.4-176.5,67.7-55.1,127.9-84.2,184.3-89.2,71.3-6.2,128.4,14.1,183.6,46.4l2.3,7.4c-9.6-4.6-19.2-8.8-28.9-12.7-53.4-21.3-103.4-28.8-157.3-23.5-55.6,5.4-115.2,33.4-182.2,85.6-59.7,46.5-119.6,107.4-177.5,166.4l-4.2,4.3h2.9l2.8-2.8c57.9-58.9,117.7-119.8,177.3-166.2,66.7-51.9,125.9-79.8,181.2-85.2,70.7-6.9,129.6,9.5,186.9,37l2.3,7.4q-9.6-3.6-19.2-6.9c-58.8-19.8-113-26.2-170.4-20-54.4,5.8-113,32.5-178.9,81.6-58.3,43.4-117.1,100.1-174,155h3.1c113.3-109.4,230.4-221.7,349.9-234.5,70.7-7.6,130.6,4.4,190.2,27.2l2.5,7.7-2-.6c-67.1-18.9-127.8-24.3-191.1-16.9-53.2,6.2-110.5,31.6-175.4,77.7-55.2,39.2-111,89.8-165.1,139.3h3.4c109.7-100.3,222.9-201.4,337.4-214.8,70.1-8.2,132-.1,193.6,17.7l2.5,7.7c-63.6-12.7-127.4-16.9-196.6-8.1-51.9,6.6-108,30.8-171.6,73.9-51.7,35-104.1,79.5-155.1,123.6h3.6c105.6-91.1,214.4-181.2,323.4-195.1,69.3-8.8,133.3-4.5,197.1,8.3l2.5,7.5c-68.8-8.2-133.9-7.6-200.1,1.5-50.5,6.9-105.4,29.8-167.6,70-47.7,30.8-96.2,69.2-143.7,107.8h3.9c104.5-84.9,204.3-161.2,307.8-175.4a773.7,773.7,0,0,1,200.6-1.6l2.7,7.7a1074.2,1074.2,0,0,0-203.7,11.1c-49.1,7.3-102.5,28.9-163.4,66.2-43.3,26.5-87.3,59-130.6,92h4.2c98.6-75.1,193.1-141.3,290.2-155.7a1081.2,1081.2,0,0,1,204.2-11.2l2.7,7.7c-63.8,2-132.3,8.8-207.5,20.5-47.5,7.6-99.4,28.1-158.6,62.5-38.2,22.2-77,48.8-115.4,76h4.5c91.8-65.2,180-121.6,269.9-136,59.5-9.3,130.7-18.3,208-20.5l2.6,7.2c-73.5,7.2-145.5,19.3-211.3,30.4-83.7,14.3-166.2,62.5-251.7,119h4.9c84.1-55.3,165.3-102.3,247.3-116.3,66.1-11.1,138.1-23.2,211.8-30.3l2.6,7c-44.4,7.3-88.4,15.9-131,24.3-29.3,5.8-57,11.2-84.1,16-74.9,13.6-149.4,52.7-226.3,99.3h5.4c75.2-45.5,148.2-83.3,221.4-96.6,27-4.8,54.8-10.3,84.1-16,42.8-8.4,87-17.1,131.5-24.3l2.7,6.9c-29.4,6.6-58.6,13.7-87.1,20.5-46.8,11.3-90.9,21.9-131.9,29.8-65.1,12.5-130,42.8-196.8,79.7h6c65-35.6,128.2-64.7,191.4-76.9,41.1-7.8,85.3-18.5,132-29.8,28.6-6.9,58-14,87.5-20.6l2.7,6.7c-19.8,5.6-39.5,11.4-59.1,17.1-58.9,17.2-114.6,33.4-163.9,43.4-53.6,10.9-107.4,33-162.3,60.1h6.7c52.9-25.8,104.7-46.7,156.2-57.2,49.4-10,105.2-26.3,164.1-43.5,19.5-5.7,39.4-11.5,59.4-17.1l2.7,6.6-39,13.3c-68.5,23.5-133.2,45.7-188.1,57.5-40.1,8.6-80.5,22.9-121.5,40.5h7.8c38.6-16.2,76.6-29.4,114.4-37.5,55.1-11.8,119.9-34,188.5-57.6l39.2-13.4c12.5,29.3,26.9,57.7,43.9,84.2q8.1,12.6,16.8,24.3h1.7c-25-33.3-44.9-70.4-61.4-108.8l6.8-2.3c13,28,27.9,55.2,45.2,80.6q11,16.1,23,30.6h1.9c-28.2-33.9-50.4-72-69-111.5l6.6-2.2c13.6,26.8,28.9,52.9,46.7,77.3a420.5,420.5,0,0,0,29.8,36.5h2.1c-31.7-34.4-56.6-73.6-77.4-114.2l6.4-2.1c14.2,25.7,30.1,50.8,48.4,74.3a422,422,0,0,0,37.5,42h2.3c-35.7-34.8-63.6-75.1-86.8-116.7l6.2-2.1c14.9,24.7,31.5,48.9,50.4,71.5a426.8,426.8,0,0,0,46.1,47.4h1.5c-40-34.8-70.8-76-96.8-119.2l6.3-2.1a586,586,0,0,0,52.6,68.8,435.6,435.6,0,0,0,55.9,52.4h1.9c-45.3-35-79.9-77.3-109.1-121.7l6.1-2a605.8,605.8,0,0,0,55.1,66.3,449.1,449.1,0,0,0,67.3,57.3h2.3c-51.4-35.1-90.4-78.6-123.4-124.1l5.9-1.9a635.5,635.5,0,0,0,58,64,468.7,468.7,0,0,0,80.7,62h2.8c-58.7-35-102.7-79.8-140-126.5l5.8-1.8a678.8,678.8,0,0,0,61.3,61.8,495.9,495.9,0,0,0,96.4,66.6h3.4c-67.3-34.7-117.2-81-159.4-128.9l5.4-1.7c47.7,48.8,103.9,96.2,180.2,130.6h4.4c-77.6-34.3-134.5-82.1-182.7-131.2l5.2-1.6c54.6,49.9,118.8,99.1,207.3,132.9h.7v-1.7c-87.8-33.5-151.6-82.3-206-131.8l5-1.6c54.7,44.2,117.7,88.8,200.9,121.3v-2.1c-82.2-32.2-144.5-76.2-198.7-119.9l4.8-1.5c54.4,38.6,115.9,78.4,193.9,109.5v-2.2c-76.8-30.7-137.6-69.9-191.5-108l4.5-1.4c53.9,33.1,114,68.3,186.9,97.6v-2.3c-71.8-28.9-131-63.5-184.2-96.1l4.2-1.2,1.8.9c52.5,27.4,110.6,57.7,178.3,84.8v-2.4c-67.1-26.9-124.8-57-177-84.2l3.8-1.1,41.3,18.1c41.9,18.4,84.8,37.3,131.8,55.8v-2.4c-46.7-18.3-89.3-37.1-130.9-55.4l-38.8-17,3.4-1c38.8,13.5,78.9,28.8,121.1,45l45.2,17.2v-2.5L1881,589c-41.1-15.7-80.1-30.6-118-43.9l2.9-.8c50.1,13.5,102.7,30.5,159.5,50.8v-2.7c-50.6-18.1-102.6-35.3-154.9-49.4l2.5-.7A1206.6,1206.6,0,0,1,1925.4,582v-2.7A1203.1,1203.1,0,0,0,1778.2,541h.2a885,885,0,0,1,147.1,28.6v-2.8a862.3,862.3,0,0,0-135.5-27.3c46.1,2,91.6,7.5,135.5,18.1v-2.8c-38.5-9.3-80-15.1-124.9-17.6,43.1-1,85.1,1.4,124.9,8.9V543c-34.6-6.4-70.7-9.1-107.7-9,37.5-2.9,73.7-3,107.7,1.2v-2.9c-29.7-3.7-61.2-4.1-93.6-2.2,32.7-4.4,64.2-6.3,93.6-4.7v-3c-24.1-1.3-50.7-.3-79.8,2.9,29.4-5.5,56-8.5,79.8-8.9v-3c-27.8.5-59.3,4.4-94.6,11.8Q1817.1,528.1,1803,531.5ZM1577.3,381.9l-.4-1.4.8,1.6.4,1.1Zm164.6,158.4h0l-1.5.2h-.2Zm-6.5.6.8.4-2.4.4-1-.5Zm-6.6-2.2h0Zm0,2.8,1.4.7-3,.5-1.5-.9Zm.7,5.2-3.9.9-1.9-1.4,4-.7Zm-5.9-7.9.7.3-2.5.3-.9-.5Zm-1.4,3.4,1.8,1.1-3.6.6-1.9-1.4Zm-117-89.5,2.2,5.8-3.8-2.7-2.1-6.2Zm-4.8-6.6-2-5.9,3.3,3.3,2.1,5.5Zm108.5,97.6,2.4,2-4.3.8-2.4-2.2Zm-2.1-4.3h3.7l1.7,1.2-3.6.4Zm-85.2-56.2,2.5,5.7-4.4-1.8-2.4-6.1Zm-5.4-5.2-2.3-5.9,4,2.5,2.4,5.5Zm23.3,32.4,2.7,5.3-4.9-.7-2.6-5.7Zm-6-3.8-2.6-5.8,4.5,1.5,2.7,5.4Zm34.9,32.1-5.2.4-2.7-4.5h5.2Zm-1-4.1h4.9l2.7,3.6-5,.3Zm-8.5,0,2.8,4.6-5.4.4-2.7-5Zm-6.8-2.7-3-5.6,5.1.4,3,5.2Zm6.8,0-3-5.1,4.9.4,3,4.7Zm-4.4-7.5-2.8-4.9,4.6.8,2.9,4.5Zm-1.7-.1-5-.4-2.8-5.5,4.9.8Zm-9-8.2-2.6-5.1,4.6,1.1,2.7,4.7Zm-.3,2.2,2.9,5.6-5.1-.3-2.8-6Zm4.2,8.1,3,5.7h-5.3l-2.9-6.1Zm4.5,8.4,2.8,5.1-5.5.5-2.7-5.6Zm4.2,7.8,2.8,5-5.7.8-2.7-5.4Zm1.4-.1,5.6-.4,2.8,4.5-5.6.8Zm7.1-.5,5.4-.4,2.7,4.1-5.4.8Zm7-.5,5.1-.3,2.7,3.6-5.2.7Zm7-.5,5-.3,2.6,3.1-5,.7Zm7.1-.4,4.7-.3,2.5,2.6-4.6.6Zm-2.2-2.7-2.4-2.9h4.4l2.4,2.6Zm-2,.1-4.8.3-2.6-3.5h4.8Zm-9.4-5.9-2.9-4,4.5.4,3,3.6Zm-1.9,0h-4.7l-2.9-4.5,4.6.4Zm-9.2-7-2.8-4.4,4.4.7,2.9,4Zm-4.4-6.9-2.5-4,4.1,1,2.6,3.6Zm-2-.3-4.4-.7-2.6-4.6,4.4,1.1Zm-8.6-8.1-2.6-4.6,4.1,1.4,2.7,4.2Zm-1.9-.4-4.4-1.1-2.6-5.2,4.3,1.4Zm-8.4-9.1-2.5-5.1,4,1.8,2.6,4.7Zm-1.8-.6-4.4-1.4-2.6-5.8,4.3,1.8Zm-8.2-9.9-2.4-5.4,4,2.1,2.5,5Zm-.5,2.1,2.7,6-4.6-1.4-2.6-6.4Zm3.9,8.6,2.7,6-4.9-1.1-2.6-6.4Zm3.9,8.7,2.7,5.9-5.1-.7-2.6-6.3Zm3.8,8.2,2.9,6.1-5.3-.3-2.8-6.6Zm4,8.6,3,6.2h-5.5l-2.9-6.6Zm4.3,8.9,2.8,5.7-5.7.5-2.7-6.1Zm4.1,8.3,2.8,5.5-5.8.9-2.7-5.9Zm4.1,8.1,2.8,5.5-6,1.3-2.8-5.9Zm1.4-.2,5.8-.9,2.9,5.1-5.8,1.2Zm7.1-1.1,5.8-.8,2.9,4.6-5.8,1.2Zm7.2-1,5.6-.8,2.9,4.2-5.6,1.2Zm7.2-1,5.3-.7,2.8,3.7-5.4,1.1Zm7.1-1,5.2-.7,2.8,3.3-5.2,1Zm7.2-.9,4.9-.6,2.7,2.8-4.9.9Zm7-.9,4.6-.6,2.5,2.4-4.6.9Zm4.4-3.3-2.1-2,4.1-.2,2,1.7Zm-4.9-4.7-2-1.9h3.8l1.9,1.6Zm.3,2.8,2.3,2.2-4.4.5-2.3-2.5Zm-6.9-2.5-2.2-2.4h4.1l2.2,2.1Zm-4.9-5.2-2.7-2.9,3.7.4,2.7,2.6Zm-5-5.5L1678,524l3.3.6,2.4,2.3Zm-.3,2.3,2.9,3.1h-4.1l-2.8-3.4ZM1674,526l-2.6-3.2,3.7.7,2.6,2.9Zm-4.7-5.8-2.2-2.7,3.4.9,2.2,2.4Zm-.4,2.2,2.8,3.4-4.2-.4-2.7-3.8Zm-6-3.3-2.4-3.4,3.9,1,2.4,3Zm-4.5-6.4-2.3-3.3,3.5,1.3,2.4,3Zm-4.5-6.4-2.1-3,3.1,1.4,2.1,2.7Zm-.4,2.2,2.6,3.6-3.8-1-2.5-4Zm-5.6-4.3-2.3-3.8,3.4,1.5,2.4,3.4Zm-2.3-.8-3.8-1.3-2.5-4.5,3.7,1.7Zm-8-8.8-2.2-4,3.4,1.9,2.3,3.7Zm-2.1-.9-3.8-1.6-2.3-4.8,3.7,2Zm-7.8-9.7-2.2-4.5,3.4,2.2,2.3,4.2Zm-3.9-8.1-2-4.2,3,2.3,2.1,3.8Zm-.4,2.2,2.4,4.9-3.8-2-2.3-5.3Zm-5.1-5.7-2.1-5,3.3,2.5,2.2,4.6Zm-1.9-1.2-3.8-2.3-2.2-5.7,3.7,2.7Zm-7.3-11.5-2.1-5.4,3.3,2.9,2.2,5Zm-.5,2.1,2.3,6-4.1-2.5-2.2-6.4Zm3.5,9.2,2.4,6.2-4.3-2.2-2.3-6.6Zm3.6,9.2,2.5,6.3-4.6-1.8-2.3-6.7Zm3.5,8.9,2.6,6.6-4.8-1.5-2.5-7Zm3.7,9.2,2.7,6.6-5.1-1.1-2.6-7Zm3.8,9.2,2.6,6.4-5.3-.7-2.5-6.8Zm3.6,8.7,2.8,6.7-5.5-.3-2.7-7.1Zm3.9,9.1,2.9,6.7h-5.7l-2.8-7.1Zm4.1,9.4,2.7,6.2-5.9.5-2.7-6.6Zm3.9,8.8,2.7,6-6.1,1-2.7-6.4Zm4,8.6,2.8,6-6.2,1.4-2.7-6.4Zm4.1,8.7,2.8,5.8-6.4,1.8-2.8-6.2Zm1.3-.3,6.1-1.3,2.8,5.4-6.2,1.7Zm7.5-1.6,5.9-1.3,2.8,4.9-6,1.6Zm7.2-1.5,6-1.3,2.8,4.5-6,1.6Zm7.4-1.5,5.8-1.2,2.8,4-5.8,1.6Zm7.3-1.5,5.6-1.1,2.8,3.6-5.6,1.5Zm7.2-1.5,5.4-1.1,2.7,3.2-5.4,1.4Zm7.3-1.4,5.1-1,2.6,2.7-5.1,1.3Zm7.1-1.4,4.8-.9,2.5,2.3-4.8,1.2Zm7.1-1.3,4.6-.8,2.3,1.9-4.6,1.1Zm4.2-3.7-2.2-1.8,4-.4,2.1,1.5Zm7.2,1.6,2.1,1.5-4.3,1-2.2-1.8Zm-2.7-10.7h-1.7l-.4-.3Zm-1.2,3h.1l1.1.7-3.1.3-1.4-1Zm-5.7-6.5.9.5h-1.1l-.9-.6Zm.4,3.2,1,.6h-2.7l-1.1-.8Zm-6.5-4,1.6,1h-2.1l-1.6-1.2Zm0,3.7,1.5,1.1h-3.3l-1.6-1.4Zm-5.5-7.1.8.5h-1.2l-.8-.6Zm-.7,2.6,2.1,1.5h-2.8l-2.1-1.8Zm-7.1,1.3-2.4-2.3,3.3.4,2.5,2.1Zm1.7-5.1,1.6,1.1-2.2-.2-1.6-1.3Zm-4.9-3.6.6.4-1.4-.3-.7-.6Zm-1.2,2.4,2.1,1.7-2.8-.3-2.1-2Zm-4.9-4.1,1.3,1.1-2.2-.4-1.4-1.4Zm-5.3-4.5.9.8-1.5-.4-1-1Zm-.7,2.8,1.8,1.8-2.9-.5-1.9-2.1Zm-4.5-7.2h.1l-.4-.2-.2-.2Zm-.7,2.2,1.6,1.6-2.3-.6-1.7-1.8Zm-5.1-4.9,1.1,1.1-1.6-.6-1.2-1.3Zm-.9,2.7,2.1,2.3-2.9-.8-2.1-2.6Zm-4.1-7.5.2.2-.6-.3-.3-.3Zm-.8,2,1.7,1.9-2.4-.9-1.7-2.2Zm-4.8-5.3,1.1,1.3-1.7-.8-1.2-1.5Zm-4.9-5.5.4.4-.7-.4-.4-.6Zm-.7,2.2,1.7,2.2-2.6-1.2-1.7-2.5Zm-4.7-6,1.2,1.6-1.9-1.1-1.3-1.8Zm-1.1,2.7,2.1,3-3-1.3-2-3.3Zm-3.6-8.7.5.7-1-.7-.6-.9Zm-1,2.1,1.8,2.6-2.5-1.4-1.8-2.9Zm-4.6-6.6,1.4,2-1.8-1.2-1.3-2.2Zm-.9,2.9,2.1,3.4-3-1.6-2-3.7Zm-3.7-9.5.7,1-.9-.7-.7-1.2Zm-.7,2.4,1.8,3-2.5-1.6-1.8-3.2Zm-4.3-7.1.3.6,1.1,1.7-1.9-1.5-1.4-2.5Zm-4.3-7.1.8,1.3-1-.9-.8-1.4Zm-.7,2.4,1.8,3.3-2.5-1.9-1.8-3.6Zm-4.1-7.6,1.4,2.6-1.9-1.7-1.4-2.9Zm-1,2.9,2,4.2-3-2.3-2-4.6Zm-4.7-6.7-1.7-4,2.5,2.6,1.8,3.7Zm1.5-3.9.9,1.6-1.1-1.2-.8-1.8Zm-4.7-5.6,1.4,3-2-2-1.1-2.5-.3-.8Zm-1.1,3,2,4.6-3-2.6-1.9-5Zm-4.5-7.1-1.7-4.5,2.5,3,1.7,4.1Zm1.9-3.4.7,1.4-1.2-1.4-.7-1.7Zm-3.9-8-.2-.2h0Zm-.7,1.8,1.2,2.9-2.1-2.4-1.2-3.3Zm-1.3,2.6.5,1.3,1.4,3.8-3-3-1.8-5.4Zm-4.3-7.6v-.2l-1.4-4.3,2.6,3.4,1.6,4.1Zm2-3.5.9,2.1-1.4-1.8-.9-2.4Zm-3.6-8.4v.3l-.4-.5-.2-.5Zm-.7,1.7,1.4,3.7-2.1-2.8-1.4-4Zm-3.4-8.9,1,2.5-1.5-2.2-1-2.8Zm-3.4-8.9.3.7-.5-.9-.3-.9Zm-4.5-7.2-1-3.3,1.6,2.9,1,2.9Zm2.9,9.9-1.3-4.5,2.1,3.6,1.4,4.1Zm2.9,10-1.6-5.3,2.6,3.8,1.6,4.9Zm1.9,6.6-.7-2.3,3,3.8,1.7,5.1-3-3.4Zm2.1,7,3.3,3.7,2,5.9-3.4-3.3Zm2.9,9.8,3.6,3.5,2.1,6.2-3.7-3.1Zm2.9,9.9,3.9,3.3,2.2,6.5-4-2.9Zm3,10,4.2,3,2.3,6.6-4.3-2.6Zm3,10,4.5,2.7,2.3,6.8-4.6-2.2Zm3.1,10.1,4.7,2.3,2.4,6.9-4.8-1.9Zm3.1,9.8,4.9,1.9,2.5,7.1-5.1-1.5Zm3.2,10.1,5.2,1.5,2.6,7.1-5.3-1.1Zm3.3,10.2,5.4,1.1,2.6,6.9-5.5-.7Zm3.3,9.7,5.6.7,2.7,7.2-5.7-.3Zm3.5,10.1,5.8.3,2.8,7.2-5.9.2Zm3.7,10.3,6-.2,2.7,6.7-6.1.6Zm3.6,9.8,6.2-.6,2.7,6.5-6.3,1Zm3.6,9.6,6.3-1,2.8,6.5-6.4,1.4Zm6.5,16.3-2.7-6.7,6.5-1.5,2.8,6.3Zm3.9,9.3-2.7-6.5,6.7-1.9,2.8,6.1Zm7.9-2.7-2.8-6,6.4-1.8,2.8,5.7Zm7.7-2.6-2.8-5.6,6.3-1.7,2.8,5.2Zm7.6-2.5-2.8-5.1,6.1-1.7,2.8,4.8Zm7.2-2.4-2.8-4.7,6.2-1.7,2.8,4.3Zm7.5-2.5-2.8-4.3,6-1.6,2.8,3.9Zm7.4-2.4-2.7-3.9,5.7-1.5,2.8,3.5Zm7.3-2.4-2.7-3.4,5.6-1.5,2.7,3.1Zm7.3-2.3-2.6-3,5.3-1.4,2.6,2.7Zm7.1-2.3-2.5-2.6,5.1-1.3,2.5,2.3Zm7.1-2.2-2.4-2.2,4.8-1.2,2.3,1.9Zm7-2.2-2.2-1.8,4.6-1.1,2.1,1.5Zm6.9-2.1-2-1.4,4.3-1,1.9,1.2Zm1.6-5.3-1.6-1,3.6-.6,1.4.8Zm5.3,3.3-1.7-1,3.9-.9,1.5.8Zm1.4-4.8-1.1-.6,3.1-.5,1,.4Zm5.4,2.8-1.3-.7,3.5-.8,1.1.5Zm1.3-4.3-.5-.2,2.4-.4h.3Zm5.5,2.4-.8-.3,3-.7.6.2Zm6.7-1.9h-.1l.8-.2Z" transform="translate(5.4 4.8)" style="fill:#f9d858"/></svg>